<?xml version="1.0" encoding="utf-8"?>
<!-- Generator: Adobe Illustrator 24.2.1, SVG Export Plug-In . SVG Version: 6.00 Build 0)  -->
<svg version="1.1" id="Layer_29" xmlns="http://www.w3.org/2000/svg" xmlns:xlink="http://www.w3.org/1999/xlink" x="0px" y="0px"
	 viewBox="0 0 48.2 59.3" style="enable-background:new 0 0 48.2 59.3;" xml:space="preserve">
<style type="text/css">
	.st0{fill:#C6C6C6;}
	.st1{fill:#039639;}
	.st2{fill:#068838;}
	.st3{fill:#FFFFFF;}
	.st4{font-family:'ArialMT';}
	.st5{font-size:11.9994px;}
</style>
<path class="st0" d="M32.4,43.5C38.3,47.6,43.2,52.9,47,59c0.4,0.7,1.5,0.1,1.1-0.6c-3.9-6.3-9-11.7-15-16
	C32.4,41.9,31.8,43,32.4,43.5L32.4,43.5z"/>
<path class="st1" d="M2.2,0h4.1c16.3,0,29.5,13.2,29.5,29.5v14.7c0,1.2-1,2.2-2.2,2.2l0,0h-4.1C13.2,46.5,0,33.3,0,17V2.2
	C0,1,1,0,2.2,0L2.2,0z"/>
<path class="st2" d="M35.2,45.9l-5.7,0.6C13.3,46.5,0,33.3,0,16.9V2.2l0,0C0.3,2,6.7,14.9,15.7,26C24.6,36.9,35.5,45.6,35.2,45.9
	L35.2,45.9z"/>
<g id="Layer_2_1_">
	<text transform="matrix(0.6691 0.7431 -0.7431 0.6691 4.981 16.4139)" class="st3 st4 st5">20 cm</text>
</g>
</svg>
