<?xml version="1.0" encoding="utf-8"?>
<!-- Generator: Adobe Illustrator 24.2.1, SVG Export Plug-In . SVG Version: 6.00 Build 0)  -->
<svg version="1.1" id="Layer_1" xmlns="http://www.w3.org/2000/svg" xmlns:xlink="http://www.w3.org/1999/xlink" x="0px" y="0px"
	 viewBox="0 0 509.9 607.4" style="enable-background:new 0 0 509.9 607.4;" xml:space="preserve">
<style type="text/css">
	.st0{fill:#C6C6C6;}
	.st1{fill:#039639;}
	.st2{fill:#068838;}
	.st3{fill:#A6947D;}
	.st4{fill:#7F725E;}
	.st5{fill:#99AC19;}
	.st6{fill:#AFB21D;}
	.st7{fill:#8A9324;}
	.st8{fill:#008D36;}
	.st9{fill:#009439;}
	.st10{fill:#BFBB74;}
	.st11{fill:#444F2D;}
	.st12{fill:#8E7D69;}
	.st13{fill:#A69A7E;}
	.st14{fill:#8C8369;}
	.st15{fill:#C4BC95;}
	.st16{fill:#58693A;}
	.st17{fill:#973535;}
	.st18{fill:#A14546;}
	.st19{fill:#FCDDD4;}
	.st20{fill:#018337;}
	.st21{fill:#078938;}
	.st22{fill:#C9C779;}
	.st23{fill:#BCB872;}
	.st24{fill:#FFFFFF;}
	.st25{font-family:'Effra-Regular';}
	.st26{font-size:9px;}
	.st27{font-size:5px;}
	.st28{font-size:8px;}
	.st29{font-size:12px;}
</style>
<g id="Layer_26">
	<path class="st0" d="M310.6,250.2c-4.4-0.3-8.7-1.2-12.8-2.9c-0.7-0.3-1.1,0.9-0.3,1.2c4.2,1.7,8.6,2.7,13.1,2.9
		C311.4,251.5,311.4,250.3,310.6,250.2z"/>
	<path class="st1" d="M308.9,249.6l2.2-1.1c8.7-4.3,20-2.1,25.3,4.9l4.7,6.3c0.3,0.4,0.2,1.1-0.2,1.4c-0.1,0.1-0.2,0.1-0.3,0.1
		l-2.2,1.1c-8.7,4.3-20,2.1-25.3-4.9l-4.7-6.3c-0.3-0.4-0.2-1.1,0.2-1.4C308.7,249.7,308.8,249.6,308.9,249.6z"/>
	<path class="st2" d="M308.3,250.3l2.8-1.8c8.7-4.3,20-2.1,25.3,4.9l4.7,6.3l0,0c-0.1,0.1-7.6-3.7-16-6.1
		C316.8,251.2,308.3,250.4,308.3,250.3L308.3,250.3z"/>
	<path class="st0" d="M371.1,225c-3.5-0.3-7-1.2-10.2-2.8c-0.7-0.4-1.4,0.7-0.6,1.1c3.4,1.7,7.1,2.7,10.8,3
		C371.9,226.4,371.9,225.1,371.1,225L371.1,225z"/>
	<path class="st1" d="M369.8,224.4l1.8-1.1c7-4.3,16.2-2.1,20.5,4.9l3.8,6.3c0.3,0.5,0.1,1.2-0.4,1.5l0,0l-1.8,1.1
		c-7,4.3-16.2,2.1-20.5-4.9l-3.8-6.3C369.1,225.4,369.3,224.7,369.8,224.4L369.8,224.4z"/>
	<path class="st2" d="M369.3,225l2.3-1.7c7-4.3,16.2-2.1,20.5,4.9l3.8,6.3l0,0c-0.1,0.1-6.2-3.7-13-6.1S369.2,225.2,369.3,225
		L369.3,225z"/>
	<path class="st0" d="M432,195.5c-3.5,0.5-7.1,0.4-10.6-0.5c-0.8-0.2-1.1,1-0.3,1.2c3.7,0.9,7.5,1.1,11.2,0.5
		C433.1,196.6,432.8,195.4,432,195.5L432,195.5z"/>
	<path class="st1" d="M430.5,195.1l1.5-1.5c5.9-5.8,15.3-5.6,21.1,0.2l5.2,5.3c0.4,0.4,0.4,1.1,0,1.6l-1.5,1.5
		c-5.9,5.8-15.3,5.7-21.1-0.2l-5.2-5.3C430.1,196.2,430.1,195.5,430.5,195.1L430.5,195.1z"/>
	<path class="st2" d="M430.2,195.8l1.9-2.2c5.9-5.8,15.3-5.6,21.1,0.2l5.2,5.3l0,0c0,0.1-6.9-2.2-14-3S430.2,196,430.2,195.8
		L430.2,195.8z"/>
	<path class="st0" d="M415.8,141.9c-3.5,0.5-7.1,0.4-10.6-0.5c-0.8-0.2-1.1,1-0.3,1.2c3.7,0.9,7.5,1.1,11.2,0.5
		C416.9,143,416.6,141.8,415.8,141.9L415.8,141.9z"/>
	<path class="st1" d="M414.4,141.6l1.5-1.5c5.9-5.8,15.3-5.6,21.1,0.2l5.1,5.3c0.4,0.4,0.4,1.1,0,1.6l0,0l-1.5,1.5
		c-5.9,5.8-15.3,5.7-21.1-0.2l0,0l-5.1-5.3C413.9,142.8,413.9,142,414.4,141.6C414.3,141.6,414.4,141.6,414.4,141.6z"/>
	<path class="st2" d="M414,142.3l1.9-2.2c5.9-5.8,15.3-5.6,21.1,0.2l5.1,5.3l0,0c0,0.1-6.9-2.2-14-3.1S414.1,142.5,414,142.3
		L414,142.3z"/>
	<path class="st0" d="M331.4,109.5c-3.5,0.5-7.1,0.4-10.6-0.5c-0.8-0.2-1.1,1-0.3,1.2c3.7,0.9,7.5,1.1,11.2,0.5
		C332.6,110.6,332.2,109.4,331.4,109.5L331.4,109.5z"/>
	<path class="st1" d="M330,109.1l1.5-1.5c5.9-5.8,15.3-5.7,21.1,0.2l5.1,5.3c0.4,0.4,0.4,1.1,0,1.6l0,0l-1.5,1.5
		c-5.9,5.8-15.3,5.6-21.1-0.2l-5.1-5.3C329.6,110.2,329.6,109.5,330,109.1z"/>
	<path class="st2" d="M329.7,109.8l1.9-2.2c5.9-5.8,15.3-5.7,21.1,0.2l5.1,5.3l0,0c0,0.1-6.9-2.2-14-3.1S329.7,110,329.7,109.8
		L329.7,109.8z"/>
</g>
<g id="Layer_27">
	<g id="Layer_13">
		<path class="st3" d="M96.2,216.4L96.2,216.4c1-1.8,3.3-2.4,5.1-1.4l142.4,82.2c1.8,1,2.4,3.3,1.4,5.1l0,0c-1,1.8-3.3,2.4-5.1,1.4
			L97.6,221.5C95.8,220.5,95.2,218.2,96.2,216.4z"/>
	</g>
	<g id="Layer_10">
		<path class="st4" d="M284,48.6L284,48.6c2,0.4,3.3,2.4,2.9,4.5l-6.5,30.8c-0.4,2-2.4,3.3-4.5,2.9l0,0c-2-0.4-3.3-2.4-2.9-4.5
			l6.5-30.8C280,49.4,281.9,48.1,284,48.6z"/>
		<path class="st4" d="M325.2,132.1l0.3,0.2c1.6,1.3,2,3.6,0.7,5.3l-30.7,39.9c-1.3,1.6-3.6,2-5.3,0.7l-0.3-0.2
			c-1.6-1.3-2-3.6-0.7-5.3l30.7-39.9C321.2,131.2,323.5,130.9,325.2,132.1z"/>
		<path class="st4" d="M193.9,65.2L193.9,65.2c1.9-0.8,4.1,0,5,2l24.6,56.7c0.8,1.9,0,4.1-2,5l0,0c-1.9,0.8-4.1,0-5-2l-24.6-56.7
			C191.1,68.3,192,66.1,193.9,65.2z"/>
		<path class="st4" d="M340.6,101.6L340.6,101.6c0.7,1.9-0.2,4-2.1,4.8l-79.4,30.8c-1.9,0.7-4-0.2-4.8-2.1l0,0
			c-0.7-1.9,0.2-4,2.1-4.8l79.4-30.8C337.7,98.8,339.8,99.7,340.6,101.6z"/>
		<path class="st4" d="M95.5,143L95.5,143c0.7-2,2.8-3,4.8-2.3l155.6,53.1c2,0.7,3,2.8,2.3,4.8l0,0c-0.7,2-2.8,3-4.8,2.3L97.9,147.7
			C95.9,147.1,94.9,144.9,95.5,143z"/>
		<path class="st4" d="M247.9,272L247.9,272c-0.8-1.9,0-4.1,1.9-5l181.5-79.8c1.9-0.8,4.1,0,5,1.9l0,0c0.8,1.9,0,4.1-1.9,5
			l-181.5,79.8C251,274.8,248.8,273.9,247.9,272z"/>
		<path class="st4" d="M70.5,222.2L70.5,222.2c2,0.4,3.3,2.4,2.9,4.5l-6.5,30.8c-0.4,2-2.4,3.3-4.5,2.9l0,0c-2-0.4-3.3-2.4-2.9-4.5
			l6.5-30.8C66.4,223.1,68.4,221.8,70.5,222.2z"/>
		<path class="st4" d="M138.6,228.1L138.6,228.1c2,0.4,3.3,2.4,2.9,4.5l-13.9,66.2c-0.4,2-2.4,3.3-4.5,2.9l0,0
			c-2-0.4-3.3-2.4-2.9-4.5l13.9-66.2C134.6,228.9,136.6,227.6,138.6,228.1z"/>
	</g>
	<g id="Layer_5">
		<polygon class="st5" points="243,102.9 243.8,90.5 323.2,59.7 327.2,70.1 		"/>
		
			<rect x="182.2" y="60.4" transform="matrix(0.2714 -0.9625 0.9625 0.2714 22.6994 270.9505)" class="st5" width="16.3" height="120.2"/>
		
			<rect x="240.9" y="161.6" transform="matrix(0.9562 -0.2927 0.2927 0.9562 -35.5271 102.2409)" class="st5" width="166" height="16.5"/>
		
			<rect x="300.8" y="253.5" transform="matrix(0.8048 -0.5936 0.5936 0.8048 -80.4496 278.9173)" class="st5" width="166" height="16.5"/>
		
			<rect x="179.5" y="263.9" transform="matrix(0.8048 -0.5936 0.5936 0.8048 -143.1062 170.5982)" class="st5" width="16.6" height="77.9"/>
		
			<rect x="44.2" y="207.7" transform="matrix(0.9321 -0.3621 0.3621 0.9321 -85.7602 35.7268)" class="st5" width="16.5" height="77.9"/>
	</g>
	<g id="Layer_21">
		<path class="st6" d="M322.3,170.3L322.3,170.3c0.1,0.4-0.1,0.8-0.5,1L250,192.9c-0.4,0.1-0.8-0.1-1-0.5l0,0
			c-0.1-0.4,0.1-0.8,0.5-1l71.8-21.7C321.8,169.6,322.2,169.9,322.3,170.3z"/>
		<path class="st6" d="M413,245.2L413,245.2c0.3,0.4,0.2,0.8-0.2,1.1l-60.2,44.4c-0.3,0.3-0.8,0.2-1.1-0.2l0,0
			c-0.3-0.3-0.2-0.8,0.2-1.1l60.2-44.4C412.2,244.8,412.7,244.9,413,245.2z"/>
		<path class="st6" d="M440,217.7L440,217.7c0.3,0.4,0.2,0.8-0.2,1.1l-60.2,44.4c-0.3,0.3-0.8,0.2-1.1-0.2l0,0
			c-0.3-0.3-0.2-0.8,0.2-1.1l60.2-44.4C439.3,217.3,439.8,217.4,440,217.7z"/>
		<path class="st6" d="M372,150.8L372,150.8c0.1,0.4-0.1,0.8-0.5,1l-71.6,21.9c-0.4,0.1-0.8-0.1-1-0.5l0,0c-0.1-0.4,0.1-0.8,0.5-1
			l71.6-21.9C371.4,150.1,371.9,150.4,372,150.8z"/>
		<path class="st6" d="M321.1,63.8L321.1,63.8c0.2,0.4,0,0.9-0.4,1L251.4,93c-0.4,0.2-0.8,0-1-0.4l0,0c-0.2-0.4,0-0.8,0.4-1
			l69.3-28.2C320.5,63.2,320.9,63.4,321.1,63.8z"/>
		<path class="st6" d="M236.7,139.6L236.7,139.6c-0.1,0.4-0.5,0.7-1,0.5l-72-20.3c-0.4-0.1-0.6-0.5-0.5-1l0,0c0.1-0.4,0.5-0.6,1-0.5
			l72,20.3C236.5,138.8,236.8,139.2,236.7,139.6z"/>
		<path class="st6" d="M209.5,123.3L209.5,123.3c-0.1,0.4-0.5,0.7-1,0.5l-72-20.3c-0.4-0.1-0.6-0.5-0.5-1l0,0c0.1-0.4,0.5-0.6,1-0.5
			l72,20.3C209.4,122.4,209.6,122.9,209.5,123.3z"/>
		<path class="st6" d="M176.7,296.1L176.7,296.1c0.2-0.2,0.6-0.1,0.7,0.1l16.6,22.5c0.2,0.2,0.1,0.6-0.1,0.7l0,0
			c-0.2,0.2-0.6,0.1-0.7-0.1l-16.6-22.5C176.4,296.6,176.4,296.2,176.7,296.1z"/>
		<path class="st6" d="M167.3,273.9L167.3,273.9c0.2-0.2,0.6-0.1,0.7,0.1l16.6,22.5c0.2,0.2,0.1,0.6-0.1,0.7l0,0
			c-0.2,0.2-0.6,0.1-0.7-0.1l-16.6-22.5C167,274.4,167.1,274.1,167.3,273.9z"/>
		<path class="st6" d="M185.1,290.8L185.1,290.8c0.2-0.2,0.6-0.1,0.7,0.1l16.6,22.5c0.2,0.2,0.1,0.6-0.1,0.7l0,0
			c-0.2,0.2-0.6,0.1-0.7-0.1L185,291.6C184.9,291.3,184.9,291,185.1,290.8z"/>
	</g>
	<g id="Layer_17">
		<path class="st7" d="M267.8,178c0.3,1.3,0.9,4.9,1.9,8.4s2.6,6.5,3.1,8l-2.5,1l-5.8-16.1L267.8,178z"/>
		<path class="st7" d="M328.2,159.1c0.3,1.3,0.9,4.9,1.9,8.4s2.6,6.6,3.1,8l-2.5,1l-5.8-16.1L328.2,159.1z"/>
		<path class="st7" d="M382.6,142.8c0.3,1.3,0.9,4.9,1.9,8.4c1,3.3,2.6,6.5,3.1,8l-2.5,1l-5.7-16.1L382.6,142.8z"/>
		<path class="st7" d="M228.3,140c0.5-1.2,2.2-4.4,3.5-7.9s1.8-6.8,2.3-8.3l2.6,0.8l-5.1,16.3L228.3,140z"/>
		<path class="st7" d="M176.9,125.9c0.5-1.2,2.2-4.4,3.4-7.9s1.8-6.8,2.3-8.3l2.6,0.8l-5.1,16.3L176.9,125.9z"/>
		<path class="st7" d="M143.5,116c0.5-1.2,2.2-4.4,3.5-7.9s1.8-6.8,2.3-8.3l2.6,0.8l-5.1,16.3L143.5,116z"/>
		<path class="st7" d="M265.2,81.3c0.5,1.9,1.2,3.9,2,5.7c0.9,1.8,2,3.5,3.1,5.2l-2.4,1.3l-5.7-10.6L265.2,81.3z"/>
		<path class="st7" d="M302.3,67.3c0.5,1.9,1.2,3.9,2,5.7c0.9,1.8,2,3.5,3.1,5.2l-2.4,1.2l-5.7-10.6L302.3,67.3z"/>
		<path class="st7" d="M183.8,312.4c1.1-0.7,4.3-2.4,7.2-4.5s5.3-4.6,6.5-5.5l1.7,2.1L186,315L183.8,312.4z"/>
		<path class="st7" d="M157.5,275.9c1.1-0.7,4.3-2.4,7.2-4.5s5.3-4.6,6.5-5.5l1.7,2.1l-13.3,10.6L157.5,275.9z"/>
		<path class="st7" d="M43.5,246.8c1.3-0.3,4.8-0.9,8.3-2s6.5-2.7,7.9-3.2l1,2.5l-16,5.9L43.5,246.8z"/>
		<path class="st7" d="M372.7,280.9c-0.8-1.1-2.8-4.1-5.2-6.9s-5.1-5-6.2-6l1.9-1.9l12,12.5L372.7,280.9z"/>
		<path class="st7" d="M429.7,238.7c-0.8-1-2.8-4.1-5.2-6.9s-5.1-5-6.2-6.1l1.9-1.9l12,12.4L429.7,238.7z"/>
	</g>
	<g id="Layer_4">
		<polygon class="st8" points="262.2,321.4 239.4,321.4 242.6,50.8 259.8,50.8 		"/>
		<polygon class="st8" points="272,344.5 261.1,323.3 491.7,236 498.7,254 		"/>
		<polygon class="st8" points="239.5,332.6 233.8,349.4 2.9,267.4 7.6,253.6 		"/>
	</g>
	<g id="Layer_20">
		<path class="st9" d="M399.7,277.3L399.7,277.3c0.1,0.4-0.1,0.9-0.5,1l-117.5,42.6c-0.4,0.1-0.8-0.1-1-0.5l0,0
			c-0.1-0.4,0.1-0.8,0.5-1l117.5-42.6C399.1,276.6,399.5,276.9,399.7,277.3z"/>
		<path class="st9" d="M396.9,290.1v0.1c0.2,0.4,0,0.8-0.4,1l-109.2,43.5c-0.4,0.2-0.8,0-1-0.4v-0.1c-0.2-0.4,0-0.8,0.4-1
			l109.2-43.5C396.3,289.6,396.7,289.8,396.9,290.1z"/>
		<path class="st9" d="M212.7,332.6v0.1c-0.1,0.4-0.6,0.6-1,0.5l-111.3-37.9c-0.4-0.1-0.6-0.6-0.5-1v-0.1c0.1-0.4,0.6-0.6,1-0.5
			l111.3,37.9C212.6,331.8,212.8,332.2,212.7,332.6z"/>
		<path class="st9" d="M124.7,297.8v0.1c-0.1,0.4-0.6,0.6-1,0.5l-111.3-38c-0.4-0.1-0.6-0.6-0.5-1v-0.1c0.1-0.4,0.6-0.6,1-0.5
			l111.3,37.9C124.6,297,124.8,297.4,124.7,297.8z"/>
		<path class="st9" d="M26.3,273L26.3,273c0-0.5,0.2-0.8,0.5-0.7L88,293.5c0.3,0.2,0.5,0.5,0.5,0.9v0.1c0,0.4-0.2,0.7-0.4,0.6
			L27,273.9C26.5,273.7,26.3,273.4,26.3,273z"/>
		<path class="st9" d="M491.3,247.1L491.3,247.1c0.2,0.4,0,0.9-0.4,1l-116.7,44.8c-0.4,0.2-0.8,0-1-0.4l0,0c-0.2-0.4,0-0.8,0.4-1
			l116.7-44.8C490.7,246.5,491.2,246.7,491.3,247.1z"/>
		<path class="st9" d="M247.7,181.8L247.7,181.8c0.4,0,0.8,0.3,0.8,0.8v105.9c0,0.4-0.3,0.8-0.8,0.8l0,0c-0.4,0-0.8-0.3-0.8-0.8
			V182.6C247,182.2,247.3,181.8,247.7,181.8z"/>
		<path class="st9" d="M255.5,96.5L255.5,96.5c0.4,0,0.8,0.3,0.8,0.8v105.9c0,0.4-0.3,0.8-0.8,0.8l0,0c-0.4,0-0.8-0.3-0.8-0.8v-106
			C254.7,96.8,255.1,96.5,255.5,96.5z"/>
		<path class="st9" d="M250.4,53.8L250.4,53.8c0.4,0,0.8,0.3,0.8,0.8v105.9c0,0.4-0.3,0.8-0.8,0.8l0,0c-0.4,0-0.8-0.3-0.8-0.8V54.6
			C249.7,54.1,250,53.8,250.4,53.8z"/>
	</g>
	<g id="Layer_24">
		<polygon class="st10" points="213.3,356.7 218.2,356.7 220.4,346.4 215.5,346.4 		"/>
		<polygon class="st10" points="222.8,356.7 227.7,356.7 229.9,346.4 225,346.4 		"/>
		<polygon class="st10" points="232.9,356.7 237.8,356.7 240,346.4 235.1,346.4 		"/>
		<polygon class="st10" points="242.9,356.7 247.8,356.7 250,346.4 245.1,346.4 		"/>
		<polygon class="st10" points="253.9,356.7 258.8,356.7 261,346.4 256.1,346.4 		"/>
		<polygon class="st10" points="263.9,356.7 268.8,356.7 271,346.4 266.1,346.4 		"/>
		<polygon class="st10" points="274.2,356.7 279.1,356.7 281.3,346.4 276.4,346.4 		"/>
		<path class="st10" d="M284.1,356.8l2.5,0.1c3.2-1.3,4.6-4.8,3.6-7.4c-0.8-1.9-1.9-3-4.2-3.1C285.2,349.9,284.8,353.3,284.1,356.8z
			"/>
		<polygon class="st10" points="213.5,367.1 218.4,367.1 220.6,356.8 215.7,356.8 		"/>
		<polygon class="st10" points="223,367.1 227.9,367.1 230.1,356.8 225.2,356.8 		"/>
		<polygon class="st10" points="233.1,367.1 238.1,367.1 240.2,356.8 235.3,356.8 		"/>
		<polygon class="st10" points="243.1,367.1 248,367.1 250.2,356.8 245.3,356.8 		"/>
		<polygon class="st10" points="254.1,367.1 259,367.1 261.2,356.8 256.3,356.8 		"/>
		<polygon class="st10" points="264.1,367.1 269,367.1 271.2,356.8 266.3,356.8 		"/>
		<polygon class="st10" points="274.4,367.1 279.3,367.1 281.5,356.8 276.6,356.8 		"/>
		<path class="st10" d="M284.3,367.2l2.5,0.1c3.2-1.3,4.6-4.8,3.6-7.4c-0.8-1.9-1.9-3-4.2-3.1C285.4,360.3,285,363.8,284.3,367.2z"
			/>
		<polygon class="st10" points="214.1,377.8 219,377.8 221.1,367.4 216.2,367.4 		"/>
		<polygon class="st10" points="223.6,377.8 228.5,377.8 230.7,367.4 225.7,367.4 		"/>
		<polygon class="st10" points="233.7,377.8 238.6,377.8 240.8,367.4 235.9,367.4 		"/>
		<polygon class="st10" points="243.7,377.8 248.6,377.8 250.8,367.4 245.8,367.4 		"/>
		<polygon class="st10" points="254.6,377.8 259.6,377.8 261.7,367.4 256.8,367.4 		"/>
		<polygon class="st10" points="264.6,377.8 269.6,377.8 271.7,367.4 266.8,367.4 		"/>
		<polygon class="st10" points="274.9,377.8 279.9,377.8 282,367.4 277.1,367.4 		"/>
		<path class="st10" d="M284.8,377.9l2.5,0.1c3.2-1.3,4.6-4.8,3.6-7.4c-0.8-1.9-1.9-3-4.2-3.1C286,371,285.5,374.4,284.8,377.9z"/>
		<polygon class="st10" points="214,579.1 219,579.1 221.1,568.7 216.2,568.7 		"/>
		<polygon class="st10" points="223.6,579.1 228.5,579.1 230.6,568.7 225.7,568.7 		"/>
		<polygon class="st10" points="233.7,579.1 238.6,579.1 240.8,568.7 235.8,568.7 		"/>
		<polygon class="st10" points="243.6,579.1 248.6,579.1 250.7,568.7 245.8,568.7 		"/>
		<polygon class="st10" points="254.6,579.1 259.6,579.1 261.7,568.7 256.8,568.7 		"/>
		<polygon class="st10" points="264.6,579.1 269.5,579.1 271.7,568.7 266.8,568.7 		"/>
		<polygon class="st10" points="274.9,579.1 279.9,579.1 282,568.7 277.1,568.7 		"/>
		<path class="st10" d="M284.8,579.1l2.5,0.1c3.2-1.3,4.6-4.8,3.6-7.4c-0.8-1.9-1.9-3-4.2-3.1C286,572.2,285.5,575.7,284.8,579.1z"
			/>
		<polygon class="st10" points="214,589.3 219,589.3 221.1,579 216.2,579 		"/>
		<polygon class="st10" points="223.6,589.3 228.5,589.3 230.6,579 225.7,579 		"/>
		<polygon class="st10" points="233.7,589.3 238.6,589.3 240.8,579 235.8,579 		"/>
		<polygon class="st10" points="243.6,589.3 248.6,589.3 250.7,579 245.8,579 		"/>
		<polygon class="st10" points="254.6,589.3 259.6,589.3 261.7,579 256.8,579 		"/>
		<polygon class="st10" points="264.6,589.3 269.5,589.3 271.7,579 266.8,579 		"/>
		<polygon class="st10" points="274.9,589.3 279.9,589.3 282,579 277.1,579 		"/>
		<path class="st10" d="M284.8,589.4l2.5,0.1c3.2-1.3,4.6-4.8,3.6-7.4c-0.8-1.9-1.9-3-4.2-3.1C286,582.5,285.5,585.9,284.8,589.4z"
			/>
		<polygon class="st10" points="214,599.7 218.9,599.7 221.1,589.3 216.1,589.3 		"/>
		<polygon class="st10" points="223.5,599.7 228.4,599.7 230.6,589.3 225.7,589.3 		"/>
		<polygon class="st10" points="233.6,599.7 238.5,599.7 240.7,589.3 235.8,589.3 		"/>
		<polygon class="st10" points="243.6,599.7 248.5,599.7 250.7,589.3 245.7,589.3 		"/>
		<polygon class="st10" points="254.6,599.7 259.5,599.7 261.7,589.3 256.7,589.3 		"/>
		<polygon class="st10" points="264.6,599.7 269.5,599.7 271.6,589.3 266.7,589.3 		"/>
		<polygon class="st10" points="274.9,599.7 279.8,599.7 282,589.3 277,589.3 		"/>
		<path class="st10" d="M284.7,599.7l2.5,0.1c3.2-1.3,4.6-4.8,3.6-7.4c-0.8-1.9-1.9-3-4.2-3.1C285.9,592.9,285.4,596.3,284.7,599.7z
			"/>
	</g>
	<g id="Layer_16">
		<path class="st11" d="M262.8,258.4c-1.8-0.1-6.5-0.5-11.4-0.5c-4.6,0-9.4,0.5-11.4,0.5l-0.2-2.4l22.7-0.6L262.8,258.4z"/>
		<path class="st11" d="M261.4,185.6c-1.6-0.1-5.9-0.5-10.3-0.5c-4.2,0-8.5,0.5-10.3,0.5l-0.2-2.2l20.5-0.6L261.4,185.6z"/>
		<path class="st11" d="M260.7,114.9c-1.5-0.1-5.4-0.5-9.4-0.5c-3.9,0-7.8,0.5-9.4,0.5l-0.2-2.2l18.8-0.6L260.7,114.9z"/>
		<path class="st11" d="M202.1,319.3c-0.6,1.3-2.5,4.6-4,8.1s-2.4,7-2.9,8.5l-2.2-0.8l6.3-16.9L202.1,319.3z"/>
		<path class="st11" d="M133.9,295.7c-0.6,1.3-2.5,4.6-4,8.1c-1.4,3.4-2.4,7-2.9,8.5l-2.2-0.7l6.3-16.9L133.9,295.7z"/>
		<path class="st11" d="M79.3,277.6c-0.6,1.2-2.3,4.2-3.7,7.5s-2.2,6.5-2.7,7.9l-2.2-0.8l5.8-15.6L79.3,277.6z"/>
		<path class="st11" d="M31.6,261.3c-0.6,1.2-2.3,4.2-3.7,7.5s-2.2,6.5-2.7,7.9l-2.2-0.8l5.8-15.6L31.6,261.3z"/>
		<path class="st11" d="M291.7,310.8c0.4,1.9,1.1,7,2.3,12c1.2,4.8,2.9,9.6,3.5,11.7l-2.6,0.9l-6.5-23.5L291.7,310.8z"/>
		<path class="st11" d="M355.2,286.8c0.5,1.8,1.5,6.9,3,11.8c1.5,4.8,3.5,9.4,4.2,11.5l-2.5,1L352,288L355.2,286.8z"/>
		<path class="st11" d="M416.3,263.7c0.4,1.6,1.2,6,2.6,10.4c1.3,4.2,3.1,8.2,3.8,10l-2.5,1l-7-20.2L416.3,263.7z"/>
		<path class="st11" d="M476.9,240.4c0.4,1.6,1.2,6,2.6,10.4c1.3,4.2,3.1,8.2,3.8,10l-2.5,1l-7-20.2L476.9,240.4z"/>
	</g>
	<g id="Layer_11">
		<path class="st12" d="M72.2,257.3L72.2,257.3c1.9-0.8,4.1,0,5,2l27.1,62.2c0.8,1.9,0,4.1-2,5l0,0c-1.9,0.8-4.1,0-5-2l-27.1-62.2
			C69.4,260.4,70.3,258.2,72.2,257.3z"/>
		<path class="st12" d="M403.8,186.4L403.8,186.4c2,0.4,3.3,2.4,2.9,4.5L392.8,257c-0.4,2-2.4,3.3-4.5,2.9l0,0
			c-2-0.4-3.3-2.4-2.9-4.5l13.9-66.2C399.7,187.3,401.7,186,403.8,186.4z"/>
		<path class="st12" d="M430.5,131L430.5,131c0.8,1.9,0,4.1-1.9,5l-61.9,27.2c-1.9,0.8-4.1,0-5-1.9l0,0c-0.8-1.9,0-4.1,1.9-5
			l61.9-27.2C427.4,128.2,429.7,129.1,430.5,131z"/>
		<path class="st12" d="M388.9,175.3L388.9,175.3c0.2,2.1-1.4,3.9-3.5,4L283,187.5c-2.1,0.2-3.9-1.4-4-3.5l0,0
			c-0.2-2.1,1.4-3.9,3.5-4l102.5-8.1C386.9,171.7,388.8,173.2,388.9,175.3z"/>
		<path class="st13" d="M501.3,240.1L501.3,240.1c0.8,1.9,0,4.1-1.9,5l-61.9,27.2c-1.9,0.8-4.1,0-5-1.9l0,0c-0.8-1.9,0-4.1,1.9-5
			l61.9-27.2C498.2,237.3,500.5,238.2,501.3,240.1z"/>
		<path class="st14" d="M108.3,78.9L108.3,78.9c1-1.8,3.3-2.4,5.1-1.4l58.6,33.8c1.8,1,2.4,3.3,1.4,5.1l0,0c-1,1.8-3.3,2.4-5.1,1.4
			L109.6,84C107.8,83,107.2,80.7,108.3,78.9z"/>
		<path class="st15" d="M288.1,183.3L288.1,183.3c2,0.7,3,2.8,2.3,4.8l-33.2,97.3c-0.7,2-2.8,3-4.8,2.3l0,0c-2-0.7-3-2.8-2.3-4.8
			l33.2-97.3C284,183.7,286.1,182.6,288.1,183.3z"/>
	</g>
	<g id="Layer_8">
		<path class="st5" d="M488.9,295l0.1,0.7c0.3,4.4-2.9,8.2-7.3,8.5l-150.2,12c-4.4,0.3-8.2-2.9-8.5-7.3l-0.1-0.7
			c-0.3-4.4,2.9-8.2,7.3-8.5l150.2-12C484.7,287.4,488.5,290.6,488.9,295z"/>
		<path class="st5" d="M176.3,318.1l0.1,0.7c0.3,4.4-2.9,8.2-7.3,8.5L39.7,337.8c-4.4,0.3-8.2-2.9-8.5-7.3l-0.1-0.7
			c-0.3-4.4,2.9-8.2,7.3-8.5l129.4-10.4C172.2,310.5,176,313.8,176.3,318.1z"/>
	</g>
	<g id="Layer_22">
		<path class="st6" d="M407.5,304.4L407.5,304.4c0,0.4-0.3,0.8-0.7,0.8l-74.6,5.9c-0.4,0-0.8-0.3-0.8-0.7l0,0c0-0.4,0.3-0.8,0.7-0.8
			l74.6-5.9C407.1,303.6,407.5,304,407.5,304.4z"/>
		<path class="st6" d="M436.4,295.6L436.4,295.6c0,0.4-0.3,0.8-0.7,0.8l-74.6,5.9c-0.4,0-0.8-0.3-0.8-0.7l0,0c0-0.4,0.3-0.8,0.7-0.8
			l74.6-5.9C436,294.8,436.3,295.2,436.4,295.6z"/>
		<path class="st6" d="M488,297.1L488,297.1c0,0.4-0.3,0.8-0.7,0.8l-74.6,5.9c-0.4,0-0.8-0.3-0.8-0.7l0,0c0-0.4,0.3-0.8,0.7-0.8
			l74.6-5.9C487.6,296.4,487.9,296.7,488,297.1z"/>
	</g>
	<g id="Layer_18">
		<path class="st7" d="M362.5,295.1c-2.8,5.4-2.8,11.9,0.1,17.3l-2.7,0.2c-3-5.3-3.3-11.7-0.9-17.2L362.5,295.1z"/>
		<path class="st7" d="M400.8,292.1c-2.8,5.4-2.7,11.9,0.1,17.3l-2.7,0.2c-3-5.3-3.3-11.7-0.9-17.2L400.8,292.1z"/>
		<path class="st7" d="M451.6,288.3c-2.8,5.4-2.8,11.9,0.1,17.3l-2.7,0.2c-3-5.3-3.3-11.7-0.9-17.2L451.6,288.3z"/>
		<ellipse class="st11" cx="482.5" cy="296.3" rx="6" ry="7.6"/>
		<ellipse class="st11" cx="37.4" cy="329.8" rx="6" ry="7.6"/>
		<path class="st7" d="M159.5,327.9c1.7-5.9,0.5-12.2-3.4-16.9l2.6-0.7c3.9,4.7,5.4,10.9,4,16.8L159.5,327.9z"/>
		<path class="st7" d="M110.4,331.8c1.8-5.9,0.5-12.2-3.4-16.9l2.6-0.7c3.9,4.7,5.4,10.9,4,16.8L110.4,331.8z"/>
		<path class="st7" d="M54.4,336.3c0.9-2.9,1-6,0.4-9c-0.6-2.9-1.9-5.6-3.8-7.9l2.6-0.7c3.9,4.7,5.4,10.9,4,16.8L54.4,336.3z"/>
	</g>
	<g id="Layer_12">
		<path class="st15" d="M449.8,271.4L449.8,271.4c1.2,1.7,0.7,4.1-1,5.2l-42.5,28.8c-1.7,1.2-4.1,0.7-5.2-1l0,0
			c-1.2-1.7-0.7-4.1,1-5.2l42.5-28.8C446.3,269.3,448.7,269.7,449.8,271.4z"/>
	</g>
	<g id="Layer_2_1_">
		<rect x="238" y="323.4" class="st16" width="24.7" height="256.8"/>
		<path class="st11" d="M261.7,424.1c-1.8-0.1-6.7-0.5-11.8-0.5c-4.8,0-9.7,0.5-11.8,0.5v-2.2l23.3-0.6L261.7,424.1z"/>
		<path class="st11" d="M262.2,463.4c-1.8-0.1-6.7-0.5-11.8-0.5c-4.8,0-9.7,0.5-11.8,0.5v-2.2l23.2-0.6L262.2,463.4z"/>
		<path class="st11" d="M262.6,500.8c-1.8-0.1-6.8-0.5-11.8-0.5c-4.8,0-9.7,0.5-11.8,0.5v-2.2l23.2-0.6L262.6,500.8z"/>
	</g>
	<g id="Layer_6">
		<path class="st17" d="M243.8,451.8L243.8,451.8c9.8,0,17.7,7.9,17.7,17.7l0,0v2.1c0,5.1-4.1,9.2-9.2,9.2h-8.5
			c-2.4,0-4.4-2-4.4-4.4v-20.3C239.4,453.7,241.4,451.8,243.8,451.8L243.8,451.8z"/>
		<path class="st17" d="M252.6,449.8l2.2,1.5c0.6,0.4,0.8,1.3,0.4,1.9l-2.7,3.9c-0.4,0.6-1.3,0.8-1.9,0.4l-2.2-1.5
			c-0.6-0.4-0.8-1.3-0.4-1.9l2.7-3.9C251.1,449.5,252,449.4,252.6,449.8z"/>
		<path class="st17" d="M257.8,453.2l2.2,1.5c0.6,0.4,0.8,1.3,0.3,1.9l-2.7,3.8c-0.4,0.6-1.3,0.8-1.9,0.3l-2.2-1.5
			c-0.6-0.4-0.8-1.3-0.3-1.9l2.7-3.8C256.3,453,257.2,452.8,257.8,453.2z"/>
		<path class="st18" d="M244.5,454.9h2c4.1,0,7.4,3.3,7.4,7.5l0,0l0,0c0,2.1-1.7,3.9-3.9,3.9l0,0h-5.6c-1,0-1.8-0.8-1.8-1.8v-7.7
			C242.7,455.7,243.5,454.9,244.5,454.9L244.5,454.9z"/>
	</g>
	<g id="Layer_7">
		<path class="st19" d="M249.1,405.4h1.7c0.3,0,0.6,0.3,0.6,0.6v47.8c0,0.3-0.3,0.6-0.6,0.6h-1.7c-0.3,0-0.6-0.3-0.6-0.6V406
			C248.5,405.7,248.7,405.4,249.1,405.4z"/>
		<path class="st19" d="M249.1,480.2h1.5c0.4,0,0.7,0.3,0.7,0.7v30c0,0.4-0.3,0.7-0.7,0.7h-1.5c-0.4,0-0.7-0.3-0.7-0.7v-30
			C248.4,480.6,248.7,480.2,249.1,480.2z"/>
	</g>
	<g id="Layer_3">
		<rect x="238" y="504.8" class="st20" width="24.7" height="103.6"/>
		<rect x="238.5" y="300.2" class="st20" width="24.7" height="105.2"/>
		<path class="st21" d="M245.3,529.1L245.3,529.1c0.5,0,0.9,0.4,0.9,0.9v40.5c0,0.5-0.4,0.9-0.9,0.9l0,0c-0.5,0-0.9-0.4-0.9-0.9V530
			C244.4,529.4,244.8,529.1,245.3,529.1z"/>
		<path class="st21" d="M254,506.9L254,506.9c0.5,0,0.9,0.4,0.9,0.9v40.4c0,0.5-0.4,0.9-0.9,0.9l0,0c-0.5,0-0.9-0.4-0.9-0.9v-40.4
			C253.1,507.3,253.5,506.9,254,506.9z"/>
		<path class="st21" d="M245.3,356.5L245.3,356.5c0.5,0,0.9,0.4,0.9,0.9v40.5c0,0.5-0.4,0.9-0.9,0.9l0,0c-0.5,0-0.9-0.4-0.9-0.9
			v-40.5C244.4,356.9,244.8,356.5,245.3,356.5z"/>
		<path class="st21" d="M253.1,323.4L253.1,323.4c0.5,0,0.9,0.4,0.9,0.9v40.5c0,0.5-0.4,0.9-0.9,0.9l0,0c-0.5,0-0.9-0.4-0.9-0.9
			v-40.5C252.3,323.8,252.6,323.4,253.1,323.4z"/>
	</g>
	<g id="Layer_15">
		<path class="st11" d="M263.1,385.4c-2-0.1-7.2-0.5-12.6-0.5c-5.1,0-10.4,0.5-12.6,0.5l-0.2-2.4l25.2-0.6L263.1,385.4z"/>
		<path class="st11" d="M263.5,318c-2-0.1-7.2-0.5-12.6-0.5c-5.1,0-10.4,0.5-12.6,0.5l-0.2-2.4l25.1-0.6L263.5,318z"/>
		<path class="st11" d="M264.3,516.2c-2-0.1-7.2-0.5-12.6-0.5c-5.1,0-10.4,0.5-12.6,0.5l-0.2-2.4l25.1-0.6L264.3,516.2z"/>
		<path class="st11" d="M263.1,603.9c-2-0.1-7.2-0.5-12.6-0.5c-5.1,0-10.4,0.5-12.6,0.5l-0.2-2.4l25.1-0.6L263.1,603.9z"/>
	</g>
	<g id="Layer_1_1_">
		<rect x="214.6" y="323.9" class="st8" width="24.7" height="284.5"/>
		<rect x="261.4" y="323.3" class="st8" width="24.7" height="285.1"/>
	</g>
	<g id="Layer_19">
		<path class="st9" d="M267.1,379.7L267.1,379.7c0.4,0,0.8,0.3,0.8,0.8v158.3c0,0.4-0.3,0.8-0.8,0.8l0,0c-0.4,0-0.8-0.3-0.8-0.8
			V380.5C266.3,380,266.7,379.7,267.1,379.7z"/>
		<path class="st9" d="M227.7,406.7L227.7,406.7c0.4,0,0.8,0.3,0.8,0.8v158.3c0,0.4-0.3,0.8-0.8,0.8l0,0c-0.4,0-0.8-0.3-0.8-0.8
			V407.4C227,407,227.3,406.7,227.7,406.7z"/>
		<path class="st9" d="M220.7,402.4L220.7,402.4c0.4,0,0.8,0.3,0.8,0.8V522c0,0.4-0.3,0.8-0.8,0.8l0,0c-0.4,0-0.8-0.3-0.8-0.8V403.1
			C219.9,402.7,220.2,402.4,220.7,402.4z"/>
		<path class="st9" d="M273,454.4L273,454.4c0.4,0,0.8,0.3,0.8,0.8V574c0,0.4-0.3,0.8-0.8,0.8l0,0c-0.4,0-0.8-0.3-0.8-0.8V455.2
			C272.2,454.8,272.6,454.4,273,454.4z"/>
		<path class="st9" d="M282,454.8L282,454.8c0.4,0,0.8,0.3,0.8,0.8v118.8c0,0.4-0.3,0.8-0.8,0.8l0,0c-0.4,0-0.8-0.3-0.8-0.8V455.5
			C281.2,455.1,281.6,454.8,282,454.8z"/>
		<path class="st9" d="M277.1,327.4L277.1,327.4c0.4,0,0.8,0.3,0.8,0.8v105.9c0,0.4-0.3,0.8-0.8,0.8l0,0c-0.4,0-0.8-0.3-0.8-0.8
			V328.2C276.3,327.8,276.6,327.4,277.1,327.4z"/>
		<path class="st9" d="M224.9,328.4L224.9,328.4c0.4,0,0.8,0.3,0.8,0.8v66.5c0,0.4-0.3,0.8-0.8,0.8l0,0c-0.4,0-0.8-0.3-0.8-0.8
			v-66.5C224.1,328.7,224.4,328.4,224.9,328.4z"/>
	</g>
	<g id="Layer_14">
		<path class="st11" d="M286.5,417.6c-2-0.1-7.2-0.5-12.6-0.5c-5.1,0-10.4,0.5-12.6,0.5l-0.2-2.4l25.1-0.6L286.5,417.6z"/>
		<path class="st11" d="M286.5,466.4c-2-0.1-7.2-0.5-12.6-0.5c-5.1,0-10.4,0.5-12.6,0.5l-0.2-2.4l25.1-0.6L286.5,466.4z"/>
		<path class="st11" d="M286.5,532c-2-0.1-7.2-0.5-12.6-0.5c-5.1,0-10.4,0.5-12.6,0.5l-0.2-2.3l25.1-0.6L286.5,532z"/>
		<path class="st11" d="M239.8,551.3c-2-0.1-7.2-0.5-12.6-0.5c-5.1,0-10.4,0.5-12.6,0.5l-0.2-2.4l25.1-0.6L239.8,551.3z"/>
		<path class="st11" d="M239.6,477.2c-2-0.1-7.2-0.5-12.6-0.5c-5.1,0-10.4,0.5-12.6,0.5l-0.2-2.4l25.1-0.6L239.6,477.2z"/>
		<path class="st11" d="M239.9,403.5c-2-0.1-7.2-0.5-12.6-0.5c-5.1,0-10.4,0.5-12.6,0.5l-0.2-2.4l25.1-0.6L239.9,403.5z"/>
		<path class="st11" d="M239.2,325.8c-2-0.1-7.2-0.5-12.6-0.5c-5.1,0-10.4,0.5-12.6,0.5l-0.2-2.4l25.1-0.6L239.2,325.8z"/>
		<path class="st11" d="M287.1,326.9c-2-0.1-7.2-0.5-12.6-0.5c-5.1,0-10.4,0.5-12.6,0.5l-0.2-2.4l25.1-0.6L287.1,326.9z"/>
	</g>
	<g id="Layer_9">
		<path class="st22" d="M214.2,346.5h71.5c2.9,0,5.2,2.3,5.2,5.2l0,0c0,2.9-2.3,5.2-5.2,5.2h-71.5c-2.9,0-5.2-2.3-5.2-5.2l0,0
			C209,348.8,211.3,346.5,214.2,346.5z"/>
		<path class="st22" d="M214.2,356.8h71.5c2.9,0,5.2,2.3,5.2,5.2l0,0c0,2.9-2.3,5.2-5.2,5.2h-71.5c-2.9,0-5.2-2.3-5.2-5.2l0,0
			C209,359.2,211.3,356.8,214.2,356.8z"/>
		<path class="st22" d="M214.2,367.2h71.5c2.9,0,5.2,2.3,5.2,5.2l0,0c0,2.9-2.3,5.2-5.2,5.2h-71.5c-2.9,0-5.2-2.3-5.2-5.2l0,0
			C209,369.5,211.3,367.2,214.2,367.2z"/>
		<path class="st22" d="M215.2,568.6h70.6c2.9,0,5.2,2.3,5.2,5.2l0,0c0,2.9-2.3,5.2-5.2,5.2h-70.6c-2.9,0-5.2-2.3-5.2-5.2l0,0
			C210,570.9,212.3,568.6,215.2,568.6z"/>
		<path class="st22" d="M215.2,579h70.6c2.9,0,5.2,2.3,5.2,5.2l0,0c0,2.9-2.3,5.2-5.2,5.2h-70.6c-2.9,0-5.2-2.3-5.2-5.2l0,0
			C210,581.3,212.3,579,215.2,579z"/>
		<path class="st22" d="M215.1,589.4h70.6c2.9,0,5.2,2.3,5.2,5.2l0,0c0,2.9-2.3,5.2-5.2,5.2h-70.6c-2.9,0-5.2-2.3-5.2-5.2l0,0
			C209.9,591.7,212.3,589.4,215.1,589.4z"/>
		<path class="st23" d="M213.1,356.4h74.6c0.2,0,0.4,0.2,0.4,0.4l0,0c0,0.2-0.2,0.4-0.4,0.4h-74.6c-0.2,0-0.4-0.2-0.4-0.4l0,0
			C212.7,356.6,212.9,356.4,213.1,356.4z"/>
		<path class="st23" d="M212.4,366.6H287c0.2,0,0.4,0.2,0.4,0.4l0,0c0,0.2-0.2,0.4-0.4,0.4h-74.6c-0.2,0-0.4-0.2-0.4-0.4l0,0
			C211.9,366.8,212.1,366.6,212.4,366.6z"/>
		<path class="st23" d="M213.2,588.9h73.6c0.2,0,0.4,0.2,0.4,0.4l0,0c0,0.2-0.2,0.4-0.4,0.4h-73.6c-0.2,0-0.4-0.2-0.4-0.4l0,0
			C212.8,589.1,213,588.9,213.2,588.9z"/>
		<path class="st23" d="M213.5,578.5h73.6c0.2,0,0.4,0.2,0.4,0.4l0,0c0,0.2-0.2,0.4-0.4,0.4h-73.6c-0.2,0-0.4-0.2-0.4-0.4l0,0
			C213.1,578.7,213.3,578.5,213.5,578.5z"/>
	</g>
</g>
<g id="Layer_23">
	<path class="st0" d="M234.6,43.5c5.8,4.2,10.8,9.5,14.5,15.6c0.4,0.7,1.5,0.1,1.1-0.6c-3.9-6.3-9-11.7-15-16
		C234.5,41.9,233.9,43,234.6,43.5L234.6,43.5z"/>
	<path class="st1" d="M204.3,0h4.1C224.8,0,238,13.2,238,29.5v14.7c0,1.2-1,2.2-2.2,2.2l0,0h-4.1c-16.3,0-29.6-13.2-29.6-29.5l0,0
		V2.2C202.1,1,203.1,0,204.3,0L204.3,0z"/>
	<path class="st2" d="M237.3,45.9l-5.7,0.6C215.3,46.5,202,33.3,202,17l0,0V2.2l0,0c0.3-0.2,6.6,12.7,15.7,23.8
		C226.6,37,237.6,45.6,237.3,45.9L237.3,45.9z"/>
	<path class="st0" d="M298,62c-0.5,5.4-2.1,10.7-4.6,15.5c-0.4,0.7,0.7,1.3,1.1,0.6c2.6-5,4.2-10.5,4.7-16.2
		C299.3,61.1,298,61.1,298,62L298,62z"/>
	<path class="st1" d="M296.6,64l-1.6-2.8c-6.2-10.8-2.6-24.6,8-31l9.5-5.7c0.8-0.5,1.8-0.2,2.3,0.6l0,0l1.6,2.7
		c6.2,10.8,2.6,24.6-8,31l-9.5,5.7C298.1,65,297.1,64.8,296.6,64L296.6,64z"/>
	<path class="st2" d="M297.6,64.7l-2.5-3.5c-6.2-10.8-2.6-24.6,8-31l9.5-5.7l0,0c0.2,0.1-5.7,9.3-9.5,19.6
		C299.4,54.2,297.9,64.8,297.6,64.7L297.6,64.7z"/>
	<path class="st0" d="M420.4,121.9c-0.5,5.4-2.1,10.7-4.6,15.5c-0.4,0.7,0.7,1.3,1.1,0.6c2.6-5,4.2-10.5,4.8-16.2
		C421.8,121.1,420.5,121.1,420.4,121.9z"/>
	<path class="st1" d="M419.1,123.9l-1.6-2.8c-6.2-10.8-2.6-24.6,8-31l9.5-5.7c0.8-0.5,1.8-0.2,2.3,0.6l0,0l1.6,2.8
		c6.2,10.8,2.6,24.5-8,31l-9.5,5.7C420.6,125,419.6,124.7,419.1,123.9L419.1,123.9z"/>
	<path class="st2" d="M420.1,124.6l-2.5-3.5c-6.2-10.8-2.6-24.6,8-31l9.5-5.7l0,0c0.2,0.1-5.7,9.3-9.5,19.6
		C421.8,114.1,420.4,124.7,420.1,124.6L420.1,124.6z"/>
	<path class="st0" d="M316.1,226c-0.5,5.4-2.1,10.7-4.6,15.5c-0.4,0.7,0.7,1.3,1.1,0.6c2.6-5,4.2-10.5,4.7-16.2
		C317.5,225.2,316.2,225.2,316.1,226L316.1,226z"/>
	<path class="st1" d="M315.3,228.2l-1.8-2.1c-6.9-8.2-2.9-18.7,8.9-23.6l10.6-4.3c0.9-0.4,2-0.2,2.6,0.5l0,0l1.8,2.1
		c6.9,8.2,2.9,18.7-8.9,23.6l-10.6,4.3C317,229,315.9,228.8,315.3,228.2L315.3,228.2z"/>
	<path class="st2" d="M316.4,228.8l-2.8-2.7c-6.9-8.2-2.9-18.7,8.9-23.7l10.6-4.4l0,0c0.2,0.1-6.3,7.1-10.6,15
		C318.4,220.8,316.7,228.9,316.4,228.8L316.4,228.8z"/>
	<path class="st0" d="M321.5,74.4c-3.7-0.2-7.4-1.1-10.8-2.8c-0.7-0.4-1.4,0.7-0.6,1.1c3.5,1.8,7.4,2.8,11.4,3
		C322.3,75.7,322.3,74.5,321.5,74.4L321.5,74.4z"/>
	<path class="st1" d="M320,75.6l1.9-1.9c7.6-7.7,17.9-4.6,22.8,7.1l4.5,10.5c0.4,0.9,0.2,2.1-0.3,2.7l-1.9,1.9
		c-7.6,7.7-17.8,4.6-22.8-7.1l-4.5-10.5C319.3,77.4,319.5,76.3,320,75.6z"/>
	<path class="st2" d="M319.5,77.2l2.5-3.3c7.7-8.1,18-4.8,23,7.5l4.6,11.1l0,0c-0.1,0.3-7-6.2-14.7-10.1S319.5,77.5,319.5,77.2
		L319.5,77.2z"/>
	<path class="st0" d="M438.9,225.1c-3.7-0.2-7.4-1.1-10.8-2.8c-0.7-0.4-1.4,0.7-0.6,1.1c3.5,1.8,7.4,2.8,11.4,3
		C439.7,226.3,439.7,225.1,438.9,225.1L438.9,225.1z"/>
	<path class="st1" d="M437.5,224.3l1.8-1.3c7.2-5.2,16.9-3.1,21.6,4.8l4.3,7.1c0.3,0.6,0.2,1.4-0.3,1.8L463,238
		c-7.2,5.2-16.9,3.1-21.6-4.8l-4.3-7.1C436.8,225.5,436.9,224.7,437.5,224.3z"/>
	<path class="st2" d="M437,225.1l2.3-2.1c7.2-5.2,16.9-3.1,21.6,4.8l4.3,7.1l0,0c-0.1,0.2-6.6-4-13.8-6.5S436.9,225.3,437,225.1z"/>
	<path class="st0" d="M435.1,288.3c-3.7-0.2-7.4-1.2-10.8-2.9c-0.7-0.4-1.4,0.7-0.6,1.1c3.5,1.8,7.4,2.8,11.4,3
		C435.9,289.6,435.9,288.4,435.1,288.3L435.1,288.3z"/>
	<path class="st1" d="M433.6,287.5l1.3-1.3c5.3-5.2,12.3-3.1,15.9,4.8l3.2,7c0.3,0.6,0.1,1.4-0.2,1.8l-1.3,1.3
		c1.5-1.5-9.4,9.7-15.9-4.8l-3.2-7C433,288.7,433.2,288,433.6,287.5z"/>
	<path class="st2" d="M433.2,288.5l1.7-2.2c5.3-5.4,12.4-3.2,16,5l3.2,7.3l0,0c-0.1,0.2-4.9-4.1-10.2-6.7
		C438.5,289.3,433.2,288.7,433.2,288.5L433.2,288.5z"/>
	<path class="st0" d="M270.7,263.5c-3.8-0.2-7.4-1.1-10.8-2.8c-0.7-0.4-1.4,0.7-0.6,1.1c3.5,1.8,7.4,2.8,11.4,3
		C271.5,264.8,271.5,263.6,270.7,263.5L270.7,263.5z"/>
	<path class="st1" d="M269.4,264.7l2-1.9c8-7.8,18.7-4.6,23.9,7.2l4.8,10.6c0.4,0.9,0.2,2.1-0.3,2.7l-2,1.9
		c2.3-2.2-14.2,14.6-23.9-7.2l-4.8-10.7C268.6,266.5,268.7,265.5,269.4,264.7z"/>
	<path class="st2" d="M268.8,265.9l2.5-3.1c8-7.8,18.7-4.6,23.9,7.2l4.8,10.6l0,0c-0.1,0.3-7.3-6-15.3-9.7
		C276.8,267.1,268.7,266.4,268.8,265.9z"/>
	<path class="st0" d="M314.8,323.6c-3.8-0.2-7.4-1.1-10.8-2.8c-0.7-0.4-1.4,0.7-0.6,1.1c3.5,1.8,7.4,2.8,11.4,3
		C315.6,324.9,315.6,323.6,314.8,323.6L314.8,323.6z"/>
	<path class="st1" d="M313.3,322.8l1.8-1.3c7.2-5.2,16.8-3.1,21.6,4.8l4.3,7.1c0.4,0.6,0.2,1.4-0.3,1.8l-1.8,1.3
		c2.1-1.5-12.8,9.8-21.6-4.8l-4.3-7.1C312.7,324,312.8,323.2,313.3,322.8z"/>
	<path class="st2" d="M312.8,323.6l2.3-2.1c7.2-5.2,16.8-3.1,21.6,4.8l4.3,7.1l0,0c-0.1,0.2-6.6-4-13.8-6.5S312.8,323.8,312.8,323.6
		L312.8,323.6z"/>
	<path class="st0" d="M480.4,303.1c-3.7-0.2-7.4-1.1-10.8-2.8c-0.7-0.4-1.4,0.7-0.6,1.1c3.5,1.8,7.4,2.8,11.4,3
		C481.2,304.4,481.2,303.2,480.4,303.1L480.4,303.1z"/>
	<path class="st1" d="M479,304.5l2-2c8-8,18.6-4.8,23.9,7.4l4.8,10.9c0.4,0.9,0.2,2.1-0.3,2.8l-2,2c2.3-2.3-14.2,15-23.9-7.4
		l-4.8-10.9C478.2,306.4,478.4,305.1,479,304.5z"/>
	<path class="st2" d="M478.4,306.7l2.5-3.6c7.9-9,18.4-5.3,23.7,8.3l4.7,12.2l0,0c-0.1,0.3-7.2-6.9-15.1-11.2
		C486.3,308.1,478.4,307,478.4,306.7L478.4,306.7z"/>
	<path class="st0" d="M475.2,256.6c-3.7-0.2-7.4-1.1-10.8-2.8c-0.7-0.4-1.4,0.7-0.6,1.1c3.5,1.8,7.4,2.8,11.4,3
		C476,257.9,476,256.7,475.2,256.6L475.2,256.6z"/>
	<path class="st1" d="M473.7,255.8l1.8-1.3c7.2-5.2,16.9-3.1,21.6,4.8l4.3,7.1c0.4,0.6,0.2,1.4-0.3,1.8l-1.8,1.3
		c2.1-1.5-12.8,9.8-21.6-4.8l-4.3-7.1C473,257,473.2,256.3,473.7,255.8z"/>
	<path class="st2" d="M473.2,256.6l2.3-2.1c7.2-5.2,16.9-3.1,21.6,4.8l4.3,7.1l0,0c-0.1,0.2-6.6-4-13.8-6.5S473.2,256.8,473.2,256.6
		L473.2,256.6z"/>
	<path class="st0" d="M370.9,176.2c-3.8-0.2-7.4-1.1-10.8-2.8c-0.7-0.4-1.4,0.7-0.6,1.1c3.5,1.8,7.4,2.8,11.4,3
		C371.7,177.5,371.7,176.3,370.9,176.2L370.9,176.2z"/>
	<path class="st1" d="M369.5,175.5l1.8-1.3c7.2-5.2,16.9-3.1,21.6,4.8l4.3,7.1c0.4,0.6,0.2,1.4-0.3,1.8l-1.8,1.3
		c2.1-1.5-12.8,9.8-21.6-4.8l-4.3-7.1C368.8,176.7,368.9,175.9,369.5,175.5z"/>
	<path class="st2" d="M369,176.2l2.3-2.1c7.2-5.2,16.9-3.1,21.6,4.8l4.3,7.1l0,0c-0.1,0.2-6.6-4-13.8-6.5S368.9,176.4,369,176.2
		L369,176.2z"/>
	<path class="st0" d="M288,211c-3.7-0.2-7.4-1.1-10.8-2.8c-0.7-0.4-1.4,0.7-0.6,1.1c3.5,1.8,7.4,2.8,11.4,3
		C288.8,212.3,288.8,211,288,211L288,211z"/>
	<path class="st1" d="M286.6,210.2l1.8-1.3c7.2-5.2,16.9-3.1,21.6,4.8l4.3,7.1c0.3,0.6,0.2,1.4-0.3,1.8l-1.8,1.3
		c2.1-1.5-12.8,9.8-21.6-4.8l-4.3-7.1C285.9,211.4,286,210.6,286.6,210.2z"/>
	<path class="st2" d="M286.1,211l2.3-2.1c7.2-5.2,16.9-3.1,21.6,4.8l4.3,7.1l0,0c-0.1,0.2-6.6-4-13.8-6.5S286,211.2,286.1,211z"/>
	<path class="st0" d="M340.7,237.8c-3.8-0.2-7.4-1.1-10.8-2.8c-0.7-0.4-1.4,0.7-0.6,1.1c3.5,1.8,7.4,2.8,11.4,3
		C341.5,239.1,341.5,237.9,340.7,237.8L340.7,237.8z"/>
	<path class="st1" d="M339.2,237l1.8-1.3c7.2-5.2,16.8-3.1,21.6,4.8l4.3,7.1c0.4,0.6,0.2,1.4-0.3,1.8l-1.8,1.3
		c2.1-1.5-12.8,9.8-21.6-4.8l-4.3-7.1C338.6,238.2,338.7,237.4,339.2,237z"/>
	<path class="st2" d="M338.8,237.8l2.3-2.1c7.2-5.2,16.8-3.1,21.6,4.8l4.3,7.1l0,0c-0.1,0.2-6.6-4-13.8-6.5S338.8,238,338.8,237.8
		L338.8,237.8z"/>
	<path class="st0" d="M488.4,232.5c-0.5,5.4-2.1,10.7-4.6,15.5c-0.4,0.7,0.7,1.4,1.1,0.6c2.6-5,4.2-10.5,4.7-16.2
		C489.8,231.7,488.5,231.7,488.4,232.5z"/>
	<path class="st1" d="M487.1,234.5l-1.6-2.8c-6.2-10.8-2.6-24.5,8-31l9.5-5.7c0.8-0.5,1.8-0.2,2.3,0.6c0,0,0,0,0,0.1l1.6,2.8
		c6.2,10.8,2.6,24.6-8,31l-9.5,5.7C488.6,235.6,487.6,235.4,487.1,234.5C487.1,234.6,487.1,234.6,487.1,234.5z"/>
	<path class="st2" d="M488.1,235.3l-2.5-3.5c-6.2-10.8-2.6-24.5,8-31l9.5-5.7l0,0c0.2,0.1-5.7,9.3-9.5,19.6
		C489.8,224.8,488.3,235.4,488.1,235.3L488.1,235.3z"/>
	<path class="st0" d="M186.1,277.8c-0.5,5.4-2.1,10.7-4.6,15.5c-0.4,0.7,0.7,1.3,1.1,0.6c2.6-5,4.2-10.5,4.8-16.2
		C187.4,277,186.1,277,186.1,277.8z"/>
	<path class="st1" d="M184.7,279.8l-1.6-2.8c-6.2-10.8-2.6-24.5,8-30.9l9.6-5.7c0.8-0.5,1.8-0.2,2.3,0.6c0,0,0,0,0,0.1l1.6,2.8
		c6.2,10.8,2.6,24.6-8,31l-9.5,5.7C186.2,280.9,185.2,280.6,184.7,279.8L184.7,279.8z"/>
	<path class="st2" d="M185.7,280.5l-2.5-3.5c-6.2-10.8-2.6-24.5,8-30.9l9.6-5.7l0,0c0.2,0.1-5.7,9.3-9.5,19.6
		C187.4,270,186,280.6,185.7,280.5L185.7,280.5z"/>
	<path class="st0" d="M49.8,216.3c-0.5,5.4-2.1,10.7-4.6,15.5c-0.4,0.7,0.7,1.4,1.1,0.6c2.6-5,4.2-10.5,4.8-16.2
		C51.1,215.5,49.9,215.5,49.8,216.3z"/>
	<path class="st1" d="M48.5,218.3l-1.6-2.8c-6.2-10.8-2.6-24.5,8-31l9.6-5.7c0.8-0.5,1.8-0.2,2.3,0.6c0,0,0,0,0,0.1l1.6,2.8
		c6.2,10.8,2.6,24.6-8,31l-9.5,5.6C50,219.4,49,219.2,48.5,218.3C48.5,218.4,48.5,218.3,48.5,218.3z"/>
	<path class="st2" d="M49.5,219.1l-2.5-3.5c-6.2-10.8-2.6-24.5,8-31l9.6-5.7l0,0c0.2,0.1-5.7,9.3-9.5,19.6
		C51.2,208.6,49.8,219.2,49.5,219.1L49.5,219.1z"/>
	<path class="st0" d="M57.9,309.7c-0.5,5.4-2.1,10.7-4.6,15.5c-0.4,0.7,0.7,1.3,1.1,0.6c2.6-5,4.2-10.5,4.8-16.2
		C59.2,308.9,58,308.9,57.9,309.7z"/>
	<path class="st1" d="M56.6,311.7L55,309c-6.2-10.8-2.7-24.6,8-31l9.5-5.7c0.8-0.5,1.8-0.2,2.3,0.6l0,0l1.6,2.8
		c6.2,10.8,2.6,24.6-8,31l-9.5,5.7C58.1,312.8,57.1,312.5,56.6,311.7L56.6,311.7z"/>
	<path class="st2" d="M57.6,312.5L55,309c-6.2-10.8-2.7-24.6,8-31l9.5-5.7l0,0c0.2,0.1-5.7,9.3-9.5,19.6
		C59.3,301.9,57.8,312.5,57.6,312.5L57.6,312.5z"/>
	<path class="st0" d="M139.6,147.6c-0.4,3.7-1.6,7.3-3.4,10.5c-0.2,0.3,0,0.7,0.3,0.8s0.6,0,0.8-0.2c1.9-3.4,3.2-7.3,3.6-11.2
		C140.9,146.8,139.6,146.8,139.6,147.6L139.6,147.6z"/>
	<path class="st1" d="M138.7,149l-1.2-1.9c-4.6-7.4-1.9-16.9,6-21.2l7.2-3.9c0.6-0.3,1.3-0.1,1.7,0.4l1.2,1.9
		c4.6,7.4,1.9,16.9-6,21.2l-7.2,3.9C139.8,149.8,139.1,149.6,138.7,149z"/>
	<path class="st2" d="M139.4,149.5l-1.9-2.4c-4.6-7.4-1.9-16.9,6-21.2l7.2-3.9l0,0c0.1,0.1-4.3,6.4-7.1,13.4
		S139.6,149.6,139.4,149.5L139.4,149.5z"/>
	<path class="st0" d="M311.8,102.8c-0.3,3-1.3,6-2.8,8.6c-0.4,0.7,0.7,1.3,1.1,0.6c1.6-2.9,2.6-6,2.9-9.3
		C313.1,102,311.9,102,311.8,102.8L311.8,102.8z"/>
	<path class="st1" d="M311.2,103.9l-1-1.6c-3.6-5.8-1.7-13.5,4.1-17c0.3-0.2,0.5-0.3,0.8-0.4l5.8-3.2c0.5-0.3,1.1-0.1,1.4,0.4l1,1.5
		c3.6,5.8,1.7,13.5-4.1,17.1c-0.2,0.2-0.5,0.3-0.8,0.4l-5.8,3.2C312.1,104.6,311.5,104.4,311.2,103.9z"/>
	<path class="st2" d="M311.8,104.4l-1.5-2c-3.6-5.8-1.7-13.5,4.1-17c0.3-0.2,0.5-0.3,0.8-0.4l5.8-3.2l0,0c0.1,0.1-3.5,5.2-5.8,11
		S312,104.4,311.8,104.4L311.8,104.4z"/>
	<path class="st0" d="M126.5,79.3c-0.3,3-1.3,6-2.8,8.6c-0.4,0.7,0.7,1.3,1.1,0.6c1.6-2.9,2.6-6,2.9-9.3
		C127.9,78.5,126.6,78.5,126.5,79.3L126.5,79.3z"/>
	<path class="st1" d="M126,80.4l-1-1.5c-3.6-5.8-1.7-13.5,4.1-17c0.3-0.2,0.5-0.3,0.8-0.4l5.8-3.2c0.5-0.3,1.1-0.1,1.4,0.4l1,1.5
		c3.6,5.9,1.7,13.5-4.2,17c-0.2,0.1-0.5,0.3-0.7,0.4l-5.8,3.2C126.9,81,126.3,80.8,126,80.4z"/>
	<path class="st2" d="M126.6,80.8l-1.6-2c-3.6-5.8-1.7-13.5,4.1-17c0.3-0.2,0.5-0.3,0.8-0.4l5.8-3.2l0,0c0.1,0.1-3.5,5.3-5.8,11
		S126.7,80.9,126.6,80.8L126.6,80.8z"/>
	<path class="st0" d="M13.3,253.3c2.4,2.9,4.1,6.2,5.1,9.8c0.1,0.3,0.5,0.5,0.8,0.4s0.4-0.4,0.4-0.7c-1.1-3.8-2.9-7.3-5.4-10.4
		C13.7,251.9,12.8,252.8,13.3,253.3L13.3,253.3z"/>
	<path class="st1" d="M13.7,254.9l-2.2-0.5C3,252.5-1.8,243.9,0.7,235.3l2.3-7.8c0.2-0.6,0.8-1,1.5-0.9l2.2,0.5
		c8.5,1.9,13.4,10.5,10.9,19.2l-2.3,7.8C15,254.6,14.4,255,13.7,254.9z"/>
	<path class="st2" d="M14.6,254.8l-3.1-0.3c-8.5-2-13.4-10.6-10.9-19.2l2.3-7.8l0,0c0.2,0,1.5,7.5,4.5,14.5S14.8,254.7,14.6,254.8
		L14.6,254.8z"/>
	<path class="st0" d="M262.7,232.8c2.4,2.9,4.1,6.2,5.1,9.8c0.1,0.3,0.4,0.5,0.8,0.4c0.3-0.1,0.5-0.4,0.4-0.8
		c-1.1-3.8-2.9-7.3-5.4-10.4C263.1,231.3,262.2,232.2,262.7,232.8z"/>
	<path class="st1" d="M263.1,234.4l-2.2-0.5c-8.5-1.9-13.4-10.5-10.9-19.2l2.3-7.8c0.2-0.7,0.8-1.1,1.5-0.9l2.2,0.5
		c8.5,1.9,13.4,10.5,10.9,19.2l-2.3,7.9C264.4,234.1,263.8,234.5,263.1,234.4z"/>
	<path class="st2" d="M264,234.3l-3-0.3c-8.5-1.9-13.4-10.5-10.9-19.2l2.3-7.8l0,0c0.2-0.1,1.5,7.5,4.5,14.5
		C259.9,228.4,264.2,234.1,264,234.3L264,234.3z"/>
	<path class="st0" d="M147,93c2.4,2.9,4.1,6.2,5.1,9.8c0.1,0.3,0.5,0.5,0.8,0.4s0.4-0.4,0.4-0.7c-1.1-3.8-2.9-7.3-5.4-10.4
		C147.4,91.5,146.5,92.4,147,93z"/>
	<path class="st1" d="M147.4,94.5l-2.2-0.5c-8.5-1.9-13.4-10.5-10.9-19.2l2.3-7.8c0.2-0.7,0.8-1.1,1.5-0.9l2.2,0.5
		c8.5,1.9,13.4,10.5,10.9,19.2l-2.3,7.8C148.7,94.2,148,94.6,147.4,94.5z"/>
	<path class="st2" d="M148.3,94.4l-3.1-0.3c-8.5-1.9-13.4-10.5-10.9-19.2l2.3-7.8l0,0c0.2-0.1,1.5,7.5,4.5,14.5
		S148.5,94.3,148.3,94.4L148.3,94.4z"/>
	<path class="st0" d="M275.3,56.3c2.4,2.9,4.1,6.2,5.1,9.9c0.1,0.3,0.4,0.5,0.8,0.4c0.3-0.1,0.5-0.4,0.4-0.8l0,0
		c-1.1-3.8-2.9-7.3-5.4-10.4C275.7,54.8,274.8,55.6,275.3,56.3z"/>
	<path class="st1" d="M275.7,57.8l-2.2-0.5c-8.5-1.9-13.4-10.5-10.9-19.2l2.3-7.8c0.2-0.7,0.8-1.1,1.5-0.9l2.2,0.5
		c8.5,1.9,13.4,10.5,10.9,19.2l-2.3,7.8C277,57.5,276.4,57.9,275.7,57.8z"/>
	<path class="st2" d="M276.6,57.7l-3-0.3c-8.5-1.9-13.4-10.5-10.9-19.2l2.3-7.8l0,0c0.2-0.1,1.5,7.5,4.5,14.5S276.8,57.6,276.6,57.7
		L276.6,57.7z"/>
	<path class="st0" d="M383.8,138.9c2.4,2.9,4.1,6.2,5.1,9.8c0.1,0.3,0.4,0.5,0.8,0.4c0.3-0.1,0.5-0.4,0.4-0.8l0,0
		c-1.1-3.8-2.9-7.3-5.4-10.4C384.2,137.4,383.3,138.3,383.8,138.9z"/>
	<path class="st1" d="M384.2,140.5L382,140c-8.5-1.9-13.4-10.5-10.9-19.2l2.3-7.8c0.2-0.7,0.8-1.1,1.5-0.9l2.2,0.5
		c8.5,1.9,13.4,10.5,10.9,19.2l-2.3,7.8C385.5,140.2,384.8,140.6,384.2,140.5z"/>
	<path class="st2" d="M385.1,140.3l-3-0.3c-8.5-1.9-13.4-10.5-10.9-19.2l2.3-7.8l0,0c0.2-0.1,1.5,7.5,4.5,14.5
		C380.9,134.5,385.2,140.2,385.1,140.3L385.1,140.3z"/>
	<path class="st0" d="M387.9,219.7c2.4,2.9,4.1,6.2,5.1,9.8c0.1,0.3,0.4,0.5,0.8,0.4c0.3-0.1,0.5-0.4,0.4-0.8l0,0
		c-1.1-3.8-2.9-7.3-5.4-10.4C388.3,218.2,387.4,219.1,387.9,219.7L387.9,219.7z"/>
	<path class="st1" d="M388.3,221.2l-2.2-0.5c-8.5-1.9-13.4-10.5-10.9-19.2l2.3-7.8c0.2-0.7,0.8-1.1,1.5-0.9l2.2,0.5
		c8.5,1.9,13.4,10.5,10.9,19.2l-2.2,7.8C389.6,221,388.9,221.4,388.3,221.2z"/>
	<path class="st2" d="M389.2,221.1l-3-0.3c-8.5-1.9-13.4-10.5-10.9-19.2l2.3-7.8l0,0c0.2,0,1.5,7.5,4.5,14.5S389.3,221,389.2,221.1z
		"/>
	<path class="st0" d="M300,152.1c2.2,2,3.9,4.6,4.9,7.4c0.3,0.8,1.5,0.4,1.2-0.3c-1.1-3-2.9-5.8-5.2-8
		C300.3,150.7,299.4,151.6,300,152.1L300,152.1z"/>
	<path class="st1" d="M300.4,153.2l-2.1-0.4c-8.2-1.5-12.9-8-10.5-14.6l2.2-6c0.3-0.5,0.9-0.8,1.5-0.7l2.1,0.4
		c8.2,1.4,12.9,8,10.5,14.6l-2.2,5.9C301.5,153,301,153.3,300.4,153.2z"/>
	<path class="st2" d="M301.2,153.1l-3-0.3c-8.2-1.5-12.9-8-10.5-14.6l2.2-6l0,0c0.2,0,1.5,5.7,4.4,11S301.4,153,301.2,153.1
		L301.2,153.1z"/>
	<path class="st0" d="M208,171.7c2.4,2.9,4.1,6.2,5.1,9.8c0.1,0.3,0.4,0.5,0.8,0.4c0.3-0.1,0.5-0.4,0.4-0.8
		c-1.1-3.8-2.9-7.3-5.4-10.4C208.3,170.2,207.5,171.1,208,171.7L208,171.7z"/>
	<path class="st1" d="M208.4,173.3l-2.2-0.5c-8.5-1.9-13.4-10.5-10.9-19.2l2.3-7.8c0.2-0.7,0.8-1.1,1.5-0.9l2.2,0.5
		c8.5,1.9,13.4,10.5,10.9,19.2l-2.3,7.8C209.7,173,209,173.4,208.4,173.3z"/>
	<path class="st2" d="M209.2,173.1l-3.1-0.3c-8.5-1.9-13.4-10.5-10.9-19.2l2.3-7.8l0,0c0.2-0.1,1.5,7.5,4.5,14.5
		S209.4,173,209.2,173.1L209.2,173.1z"/>
	<path class="st0" d="M230.7,224.5c4.8,1.1,9.3,3,13.4,5.7c0.7,0.4,1.3-0.6,0.6-1.1c-4.2-2.8-8.8-4.8-13.7-5.8
		C230.3,223.1,229.9,224.3,230.7,224.5L230.7,224.5z"/>
	<path class="st1" d="M232.7,225.8l-2.2,1.2c-8.6,4.7-20.4,0.1-26.4-10.2l-5.4-9.3c-0.5-0.6-0.3-1.5,0.4-2l2.2-1.2
		c8.6-4.7,20.4-0.1,26.4,10.2l5.4,9.3C233.5,224.5,233.3,225.4,232.7,225.8z"/>
	<path class="st2" d="M233.3,225l-2.8,2c-8.6,4.7-20.4,0.1-26.4-10.2l-5.4-9.3l0,0c0.1-0.2,8.2,6.1,17,10.6S233.3,224.8,233.3,225
		L233.3,225z"/>
	<path class="st0" d="M110,217.4c2.4,2.9,4.1,6.2,5.1,9.8c0.1,0.3,0.5,0.5,0.8,0.4s0.4-0.4,0.4-0.7c-1.1-3.8-2.9-7.3-5.4-10.4
		C110.4,215.9,109.5,216.8,110,217.4L110,217.4z"/>
	<path class="st1" d="M110.4,218.9l-2.2-0.5c-8.5-1.9-13.4-10.5-10.9-19.2l2.3-7.8c0.2-0.7,0.8-1.1,1.5-0.9l2.2,0.5
		c8.5,1.9,13.4,10.5,10.9,19.2l-2.3,7.8C111.7,218.6,111.1,219,110.4,218.9z"/>
	<path class="st2" d="M111.3,218.8l-3.1-0.3c-8.5-1.9-13.4-10.5-10.9-19.2l2.3-7.8l0,0c0.2-0.1,1.5,7.5,4.5,14.5
		S111.5,218.7,111.3,218.8L111.3,218.8z"/>
	<path class="st0" d="M126.9,223.5c0.7,3.7,0.9,7.5,0.5,11.2c-0.1,0.8,1.2,0.8,1.2,0c0.3-3.9,0.2-7.7-0.6-11.5
		C128,222.4,126.8,222.8,126.9,223.5z"/>
	<path class="st1" d="M126.9,225.2l-1.1-1.3c-4.7-5.1-5.4-14.9-1.6-21.9l3.5-6.3c0.3-0.5,0.8-0.6,1.2-0.2l1.2,1.3
		c4.7,5.1,5.4,14.9,1.6,21.9l-3.5,6.3C127.8,225.5,127.3,225.6,126.9,225.2z"/>
	<path class="st2" d="M127.5,225.4l-1.7-1.5c-4.7-5.1-5.4-14.9-1.6-21.9l3.5-6.3l0,0c0.1,0-1.1,7.5-1.1,15.1
		S127.7,225.4,127.5,225.4L127.5,225.4z"/>
	<path class="st0" d="M99.9,137.5c2.4,2.9,4.1,6.2,5.1,9.9c0.1,0.3,0.4,0.5,0.8,0.4c0.3-0.1,0.5-0.4,0.4-0.8
		c-1.1-3.8-2.9-7.3-5.4-10.4C100.3,136,99.4,136.9,99.9,137.5L99.9,137.5z"/>
	<path class="st1" d="M100.2,139.1l-2.2-0.5c-8.5-1.9-13.4-10.5-10.9-19.2l2.3-7.8c0.2-0.7,0.8-1.1,1.5-0.9l2.2,0.5
		c8.5,1.9,13.4,10.5,10.9,19.2l-2.2,7.8C101.6,138.8,100.9,139.2,100.2,139.1z"/>
	<path class="st2" d="M101.1,138.9l-3.1-0.3c-8.5-1.9-13.4-10.5-10.9-19.2l2.3-7.8l0,0c0.2,0,1.5,7.5,4.5,14.5
		C97,133.1,101.3,138.8,101.1,138.9L101.1,138.9z"/>
	<path class="st0" d="M121.4,311.4c2.4,2.9,4.1,6.2,5.1,9.8c0.1,0.3,0.4,0.5,0.8,0.4c0.3-0.1,0.5-0.4,0.4-0.8l0,0
		c-1.1-3.8-2.9-7.3-5.4-10.4C121.7,309.9,120.9,310.8,121.4,311.4L121.4,311.4z"/>
	<path class="st1" d="M121.8,313l-2.2-0.5c-8.5-1.9-13.4-10.5-10.9-19.2l2.3-7.8c0.2-0.6,0.8-1,1.5-0.9l2.2,0.5
		c8.5,1.9,13.4,10.5,10.9,19.2l-2.3,7.8C123.1,312.7,122.5,313.1,121.8,313z"/>
	<path class="st2" d="M122.6,312.8l-3.1-0.3c-8.5-1.9-13.4-10.5-10.9-19.2l2.3-7.8l0,0c0.2,0,1.5,7.5,4.5,14.5
		S122.8,312.7,122.6,312.8L122.6,312.8z"/>
	<path class="st0" d="M196,86.7c3.7,0.8,7.3,2.2,10.5,4.3c0.7,0.4,1.3-0.6,0.6-1.1c-3.3-2.1-7-3.6-10.8-4.4
		C195.6,85.3,195.2,86.5,196,86.7L196,86.7z"/>
	<path class="st1" d="M197.6,87.6l-1.7,0.9c-6.8,3.5-16.1,0.1-20.8-7.7l-4.2-7c-0.4-0.5-0.3-1.2,0.2-1.5c0,0,0,0,0.1,0l1.7-0.9
		c6.8-3.5,16.1-0.1,20.8,7.7l4.2,7C198.2,86.5,198.1,87.2,197.6,87.6L197.6,87.6z"/>
	<path class="st2" d="M198,87l-2.2,1.5c-6.8,3.5-16.1,0.1-20.8-7.7l-4.2-7l0,0c0.1-0.1,6.4,4.6,13.4,8S198.1,86.8,198,87L198,87z"/>
	<path class="st0" d="M240.1,96.8c3.3,2,6.1,4.6,8.5,7.6c0.2,0.2,0.6,0.2,0.9,0c0.2-0.2,0.2-0.6,0-0.9c-2.4-3.1-5.4-5.7-8.7-7.8
		c-0.3-0.1-0.7,0-0.8,0.3C239.8,96.3,239.9,96.6,240.1,96.8L240.1,96.8z"/>
	<path class="st1" d="M241,98.1l-2.7,0.4c-10.7,1.4-21.4-6.8-24-18.2L212,69.9c-0.3-0.8,0.3-1.5,1-1.7c0,0,0,0,0.1,0l2.7-0.4
		c10.7-1.4,21.4,6.8,24,18.2l2.3,10.3C242.2,97.1,241.8,97.8,241,98.1L241,98.1z"/>
	<path class="st2" d="M241.9,97.4l-3.7,0.9c-10.7,1.5-21.5-7-24-18.8L212,68.9l0,0c0.1-0.1,6.4,8.6,14,15.9
		C233.6,92,242,97.3,241.9,97.4L241.9,97.4z"/>
	<path class="st0" d="M123.2,264.2c3.3,2,6.1,4.6,8.5,7.6c0.2,0.2,0.6,0.2,0.9,0l0,0c0.2-0.2,0.2-0.6,0-0.9
		c-2.4-3.1-5.4-5.7-8.7-7.8c-0.3-0.2-0.7,0-0.8,0.3C122.9,263.7,123,264,123.2,264.2L123.2,264.2z"/>
	<path class="st1" d="M124.4,265.6l-1.9,0.3c-7.6,1.1-15.2-5.3-17-14.2l-1.7-8c-0.2-0.6,0.2-1.2,0.7-1.3c0,0,0,0,0.1,0l1.9-0.3
		c7.6-1.1,15.2,5.3,17,14.2l1.6,8.1C125.3,264.8,125,265.4,124.4,265.6L124.4,265.6z"/>
	<path class="st2" d="M125,265.1l-2.6,0.7c-7.6,1.1-15.2-5.3-17-14.2l-1.7-8.1l0,0c0.1-0.1,4.5,6.5,9.9,12
		C119.1,261,125.1,265,125,265.1L125,265.1z"/>
	<path class="st0" d="M31.5,217.3c3.3,2,6.1,4.6,8.5,7.6c0.3,0.2,0.6,0.2,0.9,0c0.2-0.3,0.2-0.6,0-0.9c-2.4-3.1-5.4-5.7-8.7-7.8
		c-0.3-0.1-0.7,0-0.8,0.3C31.2,216.9,31.3,217.2,31.5,217.3L31.5,217.3z"/>
	<path class="st1" d="M32.7,218.7l-1.9,0.3c-7.6,1.1-15.2-5.3-17-14.2l-1.7-8.1c-0.2-0.6,0.1-1.2,0.7-1.3h0.1l1.9-0.3
		c7.6-1.1,15.2,5.3,17,14.2l1.6,8.1C33.6,217.9,33.3,218.5,32.7,218.7L32.7,218.7z"/>
	<path class="st2" d="M33.3,218.3l-2.6,0.7c-7.6,1.1-15.2-5.3-17-14.2l-1.7-8.1l0,0c0.1-0.1,4.5,6.5,9.9,12S33.4,218.1,33.3,218.3
		L33.3,218.3z"/>
	<path class="st0" d="M240.8,175.4c3.3,2,6.1,4.6,8.5,7.6c0.3,0.2,0.7,0.2,0.9,0s0.2-0.6,0-0.8c-2.4-3.1-5.4-5.7-8.7-7.8
		c-0.3-0.1-0.7,0-0.8,0.3C240.5,174.9,240.6,175.3,240.8,175.4L240.8,175.4z"/>
	<path class="st1" d="M241.9,176.8l-1.9,0.3c-7.6,1.1-15.2-5.3-17-14.2l-1.6-8.1c-0.2-0.6,0.2-1.2,0.7-1.3c0,0,0,0,0.1,0l1.9-0.3
		c7.6-1.1,15.2,5.3,17,14.2l1.6,8.1C242.9,176,242.6,176.6,241.9,176.8C242,176.8,242,176.8,241.9,176.8z"/>
	<path class="st2" d="M242.6,176.3L240,177c-7.6,1.1-15.2-5.3-17-14.2l-1.6-8.1l0,0c0.1-0.1,4.5,6.5,9.9,12S242.7,176.2,242.6,176.3
		L242.6,176.3z"/>
	<path class="st0" d="M237.5,140.9c3.7,0.8,7.3,2.2,10.5,4.3c0.7,0.4,1.3-0.6,0.6-1.1c-3.3-2.1-7-3.6-10.9-4.4
		C237,139.6,236.7,140.7,237.5,140.9L237.5,140.9z"/>
	<path class="st1" d="M239.1,141.8l-1.7,0.9c-6.8,3.5-16.1,0.1-20.8-7.7l-4.2-7c-0.4-0.5-0.3-1.1,0.2-1.5c0,0,0,0,0.1,0l1.7-0.9
		c6.8-3.5,16.1-0.1,20.8,7.7l4.2,7C239.7,140.7,239.6,141.4,239.1,141.8L239.1,141.8z"/>
	<path class="st2" d="M239.5,141.2l-2.2,1.5c-6.8,3.5-16.1,0.1-20.8-7.7l-4.2-7l0,0c0.1-0.1,6.4,4.6,13.4,8S239.6,141.1,239.5,141.2
		L239.5,141.2z"/>
	<path class="st0" d="M190.8,187.5c0.9-3.7,2.5-7.2,4.8-10.2c0.5-0.6-0.6-1.3-1.1-0.6c-2.4,3.1-4,6.7-4.9,10.5
		C189.4,188,190.6,188.3,190.8,187.5L190.8,187.5z"/>
	<path class="st1" d="M191.9,186.2l0.9,2c3.6,7.9-0.3,17-8.7,20.2l-7.6,2.9c-0.6,0.2-1.3,0-1.6-0.6l-0.9-2c-3.6-7.9,0.3-17,8.7-20.2
		l7.6-2.9C190.9,185.3,191.6,185.6,191.9,186.2z"/>
	<path class="st2" d="M191.2,185.6l1.6,2.6c3.6,7.9-0.3,17-8.7,20.2l-7.6,2.9l0,0c-0.1-0.1,5.1-5.8,8.8-12.4S191,185.5,191.2,185.6
		L191.2,185.6z"/>
	<path class="st0" d="M77.7,335.1c0.9-3.7,2.5-7.1,4.8-10.2c0.5-0.6-0.6-1.3-1.1-0.6c-2.4,3.1-4.1,6.7-5,10.5
		C76.3,335.5,77.4,335.9,77.7,335.1L77.7,335.1z"/>
	<path class="st1" d="M78.7,333.8l0.9,2c3.6,8-0.3,17-8.7,20.2l-7.6,2.9c-0.6,0.2-1.3,0-1.7-0.6l-0.9-2c-3.6-8,0.3-17,8.7-20.2
		l7.6-2.9C77.7,332.9,78.4,333.1,78.7,333.8z"/>
	<path class="st2" d="M78.1,333.1l1.6,2.6c3.6,8-0.3,17-8.7,20.2l-7.6,2.9l0,0c-0.1-0.1,5.1-5.8,8.8-12.3S77.9,333.1,78.1,333.1
		L78.1,333.1z"/>
	<path class="st0" d="M134,339.5c3.2-4.5,5.7-9.4,7.6-14.6c0.3-0.8-0.9-1.1-1.2-0.3c-1.8,5.1-4.3,9.9-7.5,14.3
		C132.5,339.5,133.6,340.1,134,339.5L134,339.5z"/>
	<path class="st1" d="M134.2,338.1l1.3,2.3c5.1,9.3-0.4,19.7-12.3,23.4l-10.7,3.4c-0.8,0.2-1.8,0-2.3-0.7l-1.3-2.3
		c-5.1-9.3,0.4-19.7,12.3-23.4l10.7-3.4C132.8,337.1,133.8,337.4,134.2,338.1z"/>
	<path class="st2" d="M133.3,337.3l2.3,3c5.1,9.3-0.4,19.8-12.3,23.5l-10.8,3.4l0,0c-0.1-0.1,7.2-6.8,12.6-14.3
		C130.4,345.3,133,337.3,133.3,337.3L133.3,337.3z"/>
	<path class="st0" d="M111.3,156.8c2.5-2.9,5.5-5.2,8.9-6.9c0.7-0.4,0.1-1.4-0.6-1.1c-3.5,1.7-6.6,4.1-9.2,7.1
		C109.9,156.6,110.8,157.4,111.3,156.8L111.3,156.8z"/>
	<path class="st1" d="M112.8,156.1l-0.1,2.2c-0.4,8.7-8,15-17,14.1l-8.1-0.9c-0.7-0.1-1.2-0.6-1.2-1.3l0.1-2.2c0.4-8.7,8-15,17-14.1
		l8.1,0.9C112.3,154.8,112.8,155.4,112.8,156.1z"/>
	<path class="st2" d="M112.5,155.2l0.2,3.1c-0.4,8.7-8,15-17,14.1l-8.1-0.9l0,0c-0.1-0.1,7.2-2.8,13.5-7S112.4,155.1,112.5,155.2
		L112.5,155.2z"/>
	<path class="st0" d="M144.9,178.4c3.9-4.5,8.7-8.2,14-10.8c0.7-0.4,0.1-1.4-0.6-1.1c-5.4,2.7-10.3,6.4-14.3,11
		C143.5,178.1,144.4,179,144.9,178.4L144.9,178.4z"/>
	<path class="st1" d="M146.3,179l-0.1,3.6c-0.5,14.2-9.5,24.5-20.2,23.1l-9.6-1.5c-0.8-0.2-1.4-1-1.4-2.1l0.1-3.6
		c0.5-14.2,9.5-24.5,20.2-23.1l9.6,1.5C145.7,176.8,146.3,177.8,146.3,179z"/>
	<path class="st2" d="M146.1,176.6l0.2,5.2c-0.5,14.7-9.6,25.3-20.3,23.8l-9.7-1.5l0,0c-0.1-0.2,8.6-4.7,16.1-11.8
		C140,185.2,145.8,176.4,146.1,176.6L146.1,176.6z"/>
	<path class="st0" d="M319.1,172.1c-1.1,2.8-2.8,5.3-5,7.3c-0.6,0.5,0.3,1.4,0.9,0.9c2.4-2.2,4.2-4.9,5.4-7.9
		c0.1-0.3-0.1-0.7-0.4-0.8C319.6,171.6,319.3,171.8,319.1,172.1L319.1,172.1z"/>
	<path class="st1" d="M318.9,172l-0.7-3.6c-3.1-13.9,4.3-25.4,16.2-25.8l10.7-0.3c1,0,1.9,0.8,2,1.9l0.7,3.6
		c3.1,13.9-4.3,25.4-16.2,25.8l-10.7,0.3C319.9,173.7,319,173.1,318.9,172z"/>
	<path class="st2" d="M319.6,173.6l-1.5-4.8c-3.1-14.1,4.3-25.8,16.3-26.1l10.8-0.3l0,0c0.2,0.2-8.2,6-14.7,14.1
		C323.9,164.5,320,173.8,319.6,173.6L319.6,173.6z"/>
	<path class="st0" d="M403.8,205.6c-1.1,2.8-2.8,5.3-5,7.3c-0.6,0.5,0.3,1.4,0.9,0.9c2.4-2.2,4.2-4.9,5.4-7.9
		c0.1-0.3-0.1-0.7-0.4-0.8C404.3,205.1,403.9,205.3,403.8,205.6L403.8,205.6z"/>
	<path class="st1" d="M403.4,205.6l-0.7-3.4c-3-13.4,4.1-24.5,15.7-24.8l10.4-0.3c1,0,1.8,0.8,2,1.8l0.7,3.4
		c3,13.4-4.1,24.5-15.7,24.8l-10.4,0.3C404.4,207.2,403.8,206.6,403.4,205.6z"/>
	<path class="st2" d="M403.5,207l-1-3c-2-8.9,2.8-16.3,10.5-16.5l6.9-0.2l0,0c0.1,0.1-5.3,3.8-9.5,8.9S403.6,207.2,403.5,207
		L403.5,207z"/>
	<path class="st0" d="M352.3,213.1c-0.2,4.4-1.1,8.7-2.7,12.7c-0.3,0.7,0.9,1.1,1.2,0.3c1.6-4.2,2.5-8.6,2.7-13.1
		C353.6,212.3,352.4,212.3,352.3,213.1L352.3,213.1z"/>
	<path class="st1" d="M351.7,214.5l-1-2.7c-4.1-10.6-2.1-22,4.5-25.4l6-3.1c0.5-0.3,1.2,0.2,1.5,1l1,2.7c4.1,10.6,2.1,22-4.5,25.4
		l-6,3.1C352.7,215.7,352,215.3,351.7,214.5z"/>
	<path class="st2" d="M352.4,215.3l-1.7-3.6c-4.1-10.6-2.1-22,4.5-25.4l6-3.1l0,0c0.1,0.1-3.5,7-5.7,15.2
		C353.3,206.5,352.6,215.5,352.4,215.3L352.4,215.3z"/>
	<path class="st0" d="M111.4,235.4c3.4-1.5,7.1-2.6,10.8-3.1c0.8-0.1,0.5-1.3-0.3-1.2c-3.8,0.5-7.6,1.6-11.1,3.2
		C110.1,234.6,110.7,235.7,111.4,235.4L111.4,235.4z"/>
	<path class="st1" d="M113,235l-1,1.5c-3.9,5.8-13.3,8.7-21,6.5l-6.9-2c-0.6-0.2-0.8-0.6-0.5-1.1l1-1.5c3.9-5.8,13.3-8.7,21-6.5
		l6.9,2C113.1,234.1,113.3,234.5,113,235z"/>
	<path class="st2" d="M113.1,234.3l-1.1,2.1c-3.9,5.8-13.3,8.7-21,6.5l-6.9-2l0,0c0-0.1,7.6-0.7,14.9-2.4S113.1,234.2,113.1,234.3
		L113.1,234.3z"/>
</g>
<g id="Layer_25">
	<path class="st0" d="M387.4,318.9c-6.5-2.6-12.3-6.8-16.8-12.2c-0.5-0.6-1.4,0.3-0.9,0.9c4.7,5.6,10.6,9.9,17.4,12.5
		C387.8,320.4,388.2,319.2,387.4,318.9z"/>
	<path class="st1" d="M386.3,317.7l2.1-0.7c8.4-2.9,17,2,19.2,10.9l2,8.1c0.2,0.7-0.2,1.4-0.8,1.6l-2.1,0.7
		c2.5-0.8-15.1,5.7-19.2-10.9l-2-8.1C385.3,318.7,385.6,318,386.3,317.7z"/>
	<path class="st2" d="M385.6,318.3l2.8-1.3c8.4-2.9,17,2,19.2,10.9l2,8.1l0,0c-0.1,0.1-5.2-5.8-11.3-10.2S385.5,318.5,385.6,318.3
		L385.6,318.3z"/>
	<path class="st0" d="M297.9,119.6c-3.1-0.1-6.1-0.8-8.9-2.1c-0.7-0.3-1.4,0.7-0.6,1.1c3,1.4,6.3,2.2,9.6,2.3
		C298.7,120.9,298.7,119.6,297.9,119.6z"/>
	<path class="st1" d="M296.6,119.1l1.5-1c5.9-4,13.9-2.4,17.9,3.5c0,0.1,0.1,0.1,0.1,0.2l3.6,5.5c0.3,0.5,0.2,1.1-0.3,1.4l-1.5,1
		c1.8-1.2-10.7,7.6-18-3.7l-3.6-5.5C296.1,120,296.2,119.4,296.6,119.1z"/>
	<path class="st2" d="M296.2,119.7l1.9-1.6c5.9-4,13.9-2.4,17.9,3.5c0,0.1,0.1,0.1,0.1,0.2l3.6,5.5l0,0c-0.1,0.1-5.5-3.1-11.5-5
		S296.2,119.9,296.2,119.7L296.2,119.7z"/>
</g>
<text transform="matrix(0.6428 -0.766 0.766 0.6428 406.806 201.1957)"><tspan x="0" y="0" class="st24 st25 st26">Jaap &amp;</tspan><tspan x="0" y="10.8" class="st24 st25 st26">Thea</tspan></text>
<text transform="matrix(0.7071 -0.7071 0.7071 0.7071 118.6319 197.5673)"><tspan x="0" y="0" class="st24 st25 st26">Eelco &amp;</tspan><tspan x="0" y="10.8" class="st24 st25 st26">Cootje</tspan></text>
<text transform="matrix(0.9721 -0.2344 0.2344 0.9721 89.827 237.6996)"><tspan x="0" y="0" class="st24 st25 st27">Gertjan</tspan><tspan x="0" y="6" class="st24 st25 st27">Schoon</tspan></text>
<text transform="matrix(0.716 -0.6981 0.6981 0.716 111.5794 359.3477)"><tspan x="0" y="0" class="st24 st25 st28">Hessel</tspan><tspan x="0" y="9.6" class="st24 st25 st28">&amp; Hylkje</tspan></text>
<text transform="matrix(0.702 0.7122 -0.7122 0.702 487.3784 302.1221)"><tspan x="0" y="0" class="st24 st25 st26">Rogier</tspan><tspan x="0" y="10.8" class="st24 st25 st26">&amp; Elske</tspan></text>
<text transform="matrix(0.7989 0.6015 -0.6015 0.7989 325.2647 74.0012)"><tspan x="0" y="0" class="st24 st25 st28">Nadine</tspan><tspan x="0" y="9.6" class="st24 st25 st28">&amp; Lotus</tspan></text>
<text transform="matrix(0.7566 0.6539 -0.6539 0.7566 215.5144 73.7984)" class="st24 st25 st26">Mariska</text>
<text transform="matrix(0.7554 0.6552 -0.6552 0.7554 275.9594 263.3825)"><tspan x="0" y="0" class="st24 st25 st26">Familie</tspan><tspan x="0" y="10.8" class="st24 st25 st26">Crevels</tspan></text>
<text transform="matrix(0.8236 -0.5671 0.5671 0.8236 311.0302 219.2919)"><tspan x="0" y="0" class="st24 st25 st28">Marleen</tspan><tspan x="0" y="9.6" class="st24 st25 st28">&amp; Xander</tspan></text>
<text transform="matrix(0.8248 0.5654 -0.5654 0.8248 436.4194 286.515)"><tspan x="0" y="0" class="st24 st25 st27">Bernadette</tspan><tspan x="0" y="6" class="st24 st25 st27">Franke</tspan></text>
<text transform="matrix(1 0 0 1 320.8251 161.2755)" class="st24 st25 st29">Peet</text>
</svg>
