<?xml version="1.0" encoding="utf-8"?>
<!-- Generator: Adobe Illustrator 23.0.3, SVG Export Plug-In . SVG Version: 6.00 Build 0)  -->
<svg version="1.1" id="Layer_1" xmlns="http://www.w3.org/2000/svg" xmlns:xlink="http://www.w3.org/1999/xlink" x="0px" y="0px"
	 viewBox="0 0 1024 768" style="enable-background:new 0 0 1024 768;" xml:space="preserve">
<style type="text/css">
	.st0{fill:#004380;}
	.st1{fill:#E61D48;}
</style>
<path class="st0" d="M15.8,30.4c-1,0.4-2,0.6-3,0.6c-3.8,0-4.4-3.1-2.7-7.2c2.1-4.9,5.9-7.6,9.2-7.6c1.3,0,2.1,0.3,2.4,0.6l-1.6,2.5
	c-0.5-0.4-1.2-0.6-1.8-0.5c-1.9,0-4.1,1.5-5.5,4.7c-1.2,2.8-0.7,4.7,1.5,4.7c0.8,0,1.6-0.2,2.3-0.5L15.8,30.4z"/>
<path class="st1" d="M48.8,3.2c-2.3,2.3-5.3,3.8-7.7,6C33,2.1,20.4,8.8,14.2,14.8c-4.7,4.5-9.8,10.7-9.3,19.1
	c0.7,11.4,16.6,10.9,23.6,4.8c1.4,2.1,2.6,4.5,3.7,7C20.5,53.4-1.3,54,0.3,34.3C1,25,7.3,17,12.9,11.9C19.1,6.1,27,0.9,36.1,0.1
	C41.7-0.4,45.5,1,48.8,3.2"/>
<path class="st0" d="M47.2,59.9h-1.6V66h3.5v-1.3h-1.9V59.9z M44.5,61.3v-1.4h-3.4V66h3.5v-1.3h-1.9v-1.1h1.8v-1.3h-1.8v-1H44.5z
	 M36.9,61.3c0.9,0,1.7,0.7,1.7,1.6c0,0.9-0.7,1.8-1.6,1.8s-1.8-0.7-1.8-1.6c0-0.1,0-0.1,0-0.2C35.2,62,36,61.2,36.9,61.3 M36.9,59.7
	c-1.8,0-3.4,1.3-3.4,3.1c0,1.9,1.5,3.4,3.4,3.4s3.4-1.5,3.4-3.4l0,0C40.2,61,38.6,59.7,36.9,59.7 M29.2,61.3h0.4
	c0.9-0.1,1.7,0.6,1.7,1.5c0,0.1,0,0.2,0,0.2c0,1.2-0.8,1.7-1.8,1.7h-0.4L29.2,61.3z M27.6,66h2.2c1.7,0.1,3.1-1.3,3.1-2.9
	C33,61.4,31.6,60,30,60c-0.1,0-0.1,0-0.2,0h-2.2V66z M20.5,61.3h0.4c0.9-0.1,1.7,0.6,1.7,1.5c0,0.1,0,0.2,0,0.2
	c0,1.2-0.8,1.7-1.8,1.7h-0.4L20.5,61.3z M19,66h2.2c1.7,0.1,3.1-1.3,3.1-2.9c0-1.6-1.3-3.1-2.9-3.1c-0.1,0-0.1,0-0.2,0H19V66z
	 M17.9,61.3v-1.4h-3.5V66h3.5v-1.3H16v-1.1h1.8v-1.3H16v-1H17.9z M10.2,61.3c0.9,0,1.7,0.7,1.7,1.6c0,0.9-0.7,1.8-1.6,1.8
	S8.5,64,8.5,63.1c0-0.1,0-0.1,0-0.2C8.5,61.9,9.3,61.2,10.2,61.3 M10.2,59.7c-1.8,0-3.4,1.3-3.4,3.1c-0.1,1.8,1.3,3.3,3.1,3.4
	c0.1,0,0.2,0,0.3,0c1.8,0.1,3.3-1.3,3.4-3.1c0-0.1,0-0.2,0-0.3C13.6,61,11.9,59.7,10.2,59.7 M3.1,62.6v1.2h1.3
	c0,0.6-0.6,1.1-1.2,1.1l0,0c-1,0-1.6-1-1.6-1.9s0.5-1.9,1.6-1.9c0.6,0,1.1,0.4,1.3,1L6,61.5c-0.5-1.1-1.6-1.8-2.7-1.7
	c-2,0-3.3,1.3-3.3,3.3c0,1.9,1.3,3.2,3.2,3.2c1,0,1.9-0.4,2.5-1.2c0.5-0.8,0.6-1.5,0.6-2.4L3.1,62.6z"/>
<path class="st0" d="M20.8,28.6c0.3,0.1,0.6,0.1,1,0.1c1.4,0,2.6-0.9,3.1-2.2c0.7-1.5-0.1-2.1-1.4-2.1h-0.9L20.8,28.6z M23.6,22h0.8
	c1.2,0,2.4-0.7,2.8-1.8c0.5-1.1,0.1-1.7-1.1-1.7c-0.4,0-0.8,0-1.2,0.1L23.6,22z M23.4,16.4c1.1-0.2,2.3-0.3,3.4-0.3
	c1.6,0,2.4,0.2,3,0.8c0.6,0.5,0.7,1.6,0.1,2.9c-0.6,1.4-1.8,2.5-3.2,3.1l0,0c1.1,0.4,1.5,1.7,0.7,3.6c-0.5,1.3-1.4,2.3-2.5,3.1
	c-1.2,0.9-2.8,1.3-5,1.3c-0.9,0-1.8-0.1-2.7-0.2L23.4,16.4z"/>
<polygon class="st0" points="33.7,16.1 40.7,16.1 39.5,18.9 35.1,18.9 33.7,22.3 37.8,22.3 36.6,25.1 32.5,25.1 29.9,31.1 
	27.4,31.1 "/>
<path class="st0" d="M35.7,37.9l0.6,0.7l1.2-1l0.8,0.9l-1.2,1l0.6,0.7l1.2-1.1l0.8,0.9l-2.3,2l-3.6-4.1l2.3-2l0.8,0.9L35.7,37.9z"/>
<path class="st0" d="M44,35.5l-1.2,1.3l-2.4-0.4l0,0l1.5,1.4l-0.9,1l-4-3.7l1.4-1.5c0.7-0.8,1.6-1,2.5-0.2c0.6,0.5,0.7,1.3,0.4,1.9
	L44,35.5z M39.7,35.7l0.1-0.1c0.3-0.3,0.6-0.8,0.1-1.2c-0.4-0.4-0.8-0.1-1.2,0.3l-0.1,0.1L39.7,35.7z"/>
<path class="st0" d="M42,28.8l1-1.4l0.9,3.2l3.7-0.3l-1,1.5l-3,0.2l0,0l1.9,1.3l-0.8,1.2l-4.5-3.1l0.8-1.2l1.8,1.3l0,0L42,28.8z"/>
<path class="st0" d="M45,26l0.8,0.4l0.7-1.4l1.1,0.5l-0.7,1.4l0.8,0.4l0.7-1.5l1.1,0.5L48.2,29l-4.9-2.4l1.3-2.7l1.1,0.5L45,26z"/>
<path class="st0" d="M45.1,23.1l0.4-1.3l3.9-1.5l0,0l-3.2-0.9l0.4-1.3l5.2,1.5l-0.4,1.3l-3.9,1.5l0,0l3.2,0.9l-0.4,1.3L45.1,23.1z"
	/>
<path class="st0" d="M46.7,17.1l0.1-2c0.1-1.5,1.4-2.6,2.9-2.6c1.5,0.1,2.6,1.3,2.6,2.7l-0.1,2L46.7,17.1z M51,15.9v-0.3
	c0.2-0.8-0.4-1.6-1.2-1.8C49,13.6,48.2,14.2,48,15c0,0.2,0,0.3,0,0.5v0.3L51,15.9z"/>
<g id="Wd3rs5.tif">
	
		<image style="overflow:visible;enable-background:new    ;" width="812" height="648" id="Layer_0" xlink:href="90C27EC63D21EE1.png"  transform="matrix(0.1018 0 0 0.1018 67.9657 0.2611)">
	</image>
</g>
</svg>
