<svg xmlns="http://www.w3.org/2000/svg" xmlns:xlink="http://www.w3.org/1999/xlink" xml:space="preserve" id="Layer_1" x="0" y="0" viewBox="0 0 1024 768"><style>.st0{fill:#004380}</style><path d="M15.8 30.4q-1.5.6-3 .6c-3.8 0-4.4-3.1-2.7-7.2 2.1-4.9 5.9-7.6 9.2-7.6 1.3 0 2.1.3 2.4.6l-1.6 2.5c-.5-.4-1.2-.6-1.8-.5-1.9 0-4.1 1.5-5.5 4.7-1.2 2.8-.7 4.7 1.5 4.7.8 0 1.6-.2 2.3-.5z" class="st0"/><path d="M48.8 3.2c-2.3 2.3-5.3 3.8-7.7 6-8.1-7.1-20.7-.4-26.9 5.6-4.7 4.5-9.8 10.7-9.3 19.1.7 11.4 16.6 10.9 23.6 4.8 1.4 2.1 2.6 4.5 3.7 7C20.5 53.4-1.3 54 .3 34.3 1 25 7.3 17 12.9 11.9 19.1 6.1 27 .9 36.1.1c5.6-.5 9.4.9 12.7 3.1" style="fill:#e61d48"/><path d="M47.2 59.9h-1.6V66h3.5v-1.3h-1.9zm-2.7 1.4v-1.4h-3.4V66h3.5v-1.3h-1.9v-1.1h1.8v-1.3h-1.8v-1zm-7.6 0c.9 0 1.7.7 1.7 1.6s-.7 1.8-1.6 1.8-1.8-.7-1.8-1.6v-.2c0-.9.8-1.7 1.7-1.6m0-1.6c-1.8 0-3.4 1.3-3.4 3.1 0 1.9 1.5 3.4 3.4 3.4s3.4-1.5 3.4-3.4c-.1-1.8-1.7-3.1-3.4-3.1m-7.7 1.6h.4c.9-.1 1.7.6 1.7 1.5v.2c0 1.2-.8 1.7-1.8 1.7h-.4zM27.6 66h2.2c1.7.1 3.1-1.3 3.1-2.9.1-1.7-1.3-3.1-2.9-3.1h-2.4zm-7.1-4.7h.4c.9-.1 1.7.6 1.7 1.5v.2c0 1.2-.8 1.7-1.8 1.7h-.4zM19 66h2.2c1.7.1 3.1-1.3 3.1-2.9S23 60 21.4 60H19zm-1.1-4.7v-1.4h-3.5V66h3.5v-1.3H16v-1.1h1.8v-1.3H16v-1zm-7.7 0c.9 0 1.7.7 1.7 1.6s-.7 1.8-1.6 1.8-1.8-.7-1.8-1.6v-.2c0-1 .8-1.7 1.7-1.6m0-1.6c-1.8 0-3.4 1.3-3.4 3.1-.1 1.8 1.3 3.3 3.1 3.4h.3c1.8.1 3.3-1.3 3.4-3.1v-.3c0-1.8-1.7-3.1-3.4-3.1m-7.1 2.9v1.2h1.3c0 .6-.6 1.1-1.2 1.1-1 0-1.6-1-1.6-1.9s.5-1.9 1.6-1.9c.6 0 1.1.4 1.3 1l1.5-.6c-.5-1.1-1.6-1.8-2.7-1.7-2 0-3.3 1.3-3.3 3.3 0 1.9 1.3 3.2 3.2 3.2 1 0 1.9-.4 2.5-1.2.5-.8.6-1.5.6-2.4zm17.7-34c.3.1.6.1 1 .1 1.4 0 2.6-.9 3.1-2.2.7-1.5-.1-2.1-1.4-2.1h-.9zm2.8-6.6h.8c1.2 0 2.4-.7 2.8-1.8.5-1.1.1-1.7-1.1-1.7-.4 0-.8 0-1.2.1zm-.2-5.6c1.1-.2 2.3-.3 3.4-.3 1.6 0 2.4.2 3 .8.6.5.7 1.6.1 2.9-.6 1.4-1.8 2.5-3.2 3.1 1.1.4 1.5 1.7.7 3.6-.5 1.3-1.4 2.3-2.5 3.1-1.2.9-2.8 1.3-5 1.3-.9 0-1.8-.1-2.7-.2zm10.3-.3h7l-1.2 2.8h-4.4l-1.4 3.4h4.1l-1.2 2.8h-4.1l-2.6 6h-2.5zm2 21.8.6.7 1.2-1 .8.9-1.2 1 .6.7 1.2-1.1.8.9-2.3 2-3.6-4.1 2.3-2 .8.9zm8.3-2.4-1.2 1.3-2.4-.4 1.5 1.4-.9 1-4-3.7 1.4-1.5c.7-.8 1.6-1 2.5-.2.6.5.7 1.3.4 1.9zm-4.3.2.1-.1c.3-.3.6-.8.1-1.2-.4-.4-.8-.1-1.2.3l-.1.1zm2.3-6.9 1-1.4.9 3.2 3.7-.3-1 1.5-3 .2 1.9 1.3-.8 1.2-4.5-3.1.8-1.2 1.8 1.3zm3-2.8.8.4.7-1.4 1.1.5-.7 1.4.8.4.7-1.5 1.1.5-1.3 2.7-4.9-2.4 1.3-2.7 1.1.5zm.1-2.9.4-1.3 3.9-1.5-3.2-.9.4-1.3 5.2 1.5-.4 1.3-3.9 1.5 3.2.9-.4 1.3zm1.6-6 .1-2c.1-1.5 1.4-2.6 2.9-2.6 1.5.1 2.6 1.3 2.6 2.7l-.1 2zm4.3-1.2v-.3c.2-.8-.4-1.6-1.2-1.8s-1.6.4-1.8 1.2v.8z" class="st0"/><g id="Wd3rs5.tif"><image xlink:href="90C27EC63D21EE1.png" id="Layer_0" width="812" height="648" style="overflow:visible" transform="translate(67.966 .261)scale(.1018)"/></g></svg>