<svg xmlns="http://www.w3.org/2000/svg" width="288.094" height="68.996" aria-label="501(c)(3) approved tax-exempt organization" viewBox="0 0 411.563 98.566"><g font-family="Arial, Helvetica, sans-serif"><text x="116" y="54" fill="#111" font-size="48" font-weight="800" lengthAdjust="spacingAndGlyphs" textLength="214" transform="translate(-55.866 -4.434)">501(c)(3)</text><text x="118" y="88" fill="#16a34a" font-size="22" font-weight="700" lengthAdjust="spacingAndGlyphs" textLength="208" transform="translate(-55.866 -4.434)">APPROVED</text></g><path stroke-linecap="round" stroke-linejoin="round" d="m251.382 36.574 6.608 6.609 11.014-15.42M260.193 7.1a35.12 35.12 0 0 1-24.676 9.651 35.2 35.2 0 0 0-1.757 11.01c0 16.424 11.231 30.222 26.433 34.137 15.201-3.912 26.432-17.71 26.432-34.133 0-3.848-.617-7.551-1.756-11.017h-.446a35.1 35.1 0 0 1-24.23-9.648" style="fill:#fff;fill-opacity:1;stroke:#16a34a;stroke-width:2.93695;stroke-opacity:1" transform="translate(61.734 14.785)"/></svg>