<svg xmlns="http://www.w3.org/2000/svg" xml:space="preserve" viewBox="0 0 1080 1080"><path fill="#fff" d="M354 516.3H253.9q3.9 4.65 8.1 9l63 63.9h100.8zm369.7 0-71.8 72.9h100.8l63-63.9c2.9-2.9 5.5-5.9 8.1-9z"/><path fill="#414b99" d="M651.9 589.2 591 651.1l-.6.6c-1.1 1.2-2.5 2.4-4.2 3.9l-47.7 48.3-112.7-114.7H324.9l213.6 217 95.2-96.7c2.6-2.3 5-4.5 7-6.6l112-113.8H651.9z"/><path fill="#dc141e" d="m354 516.3-41.6-42.2c-13.8-14-21.4-32.6-21.4-52.4s7.6-38.4 21.5-52.5l.3-.3c14.2-14.5 32.9-21.7 51.6-21.7s37.4 7.2 51.6 21.7l122.8 124.7 122.8-124.7c28.5-28.9 74.8-28.9 103.2 0l.4.4c13.8 14 21.4 32.6 21.4 52.4s-7.6 38.4-21.4 52.4l-41.6 42.2h100.1c48-57.5 45.3-144-8.1-198.3l-.4-.4c-27.3-27.7-63.5-42.9-102-42.9s-74.8 15.2-102 42.9l-72.4 73.5-72.4-73.5c-56.3-57.1-147.8-57.1-204.2.1l-.2.3c-27.3 27.7-42.3 64.5-42.3 103.6 0 35.1 12.1 68.2 34.2 94.7z"/></svg>