<?xml version="1.0" encoding="utf-8"?>
<!-- Generator: Adobe Illustrator 24.1.2, SVG Export Plug-In . SVG Version: 6.00 Build 0)  -->
<svg version="1.1" id="Laag_1" xmlns="http://www.w3.org/2000/svg" xmlns:xlink="http://www.w3.org/1999/xlink" x="0px" y="0px"
	 viewBox="0 0 1080 1080" enable-background="new 0 0 1080 1080" xml:space="preserve">
<g>
	<g>
		<path fill="#FFFFFF" d="M354,516.3H253.9c2.6,3.1,5.3,6.1,8.1,9l63,63.9h100.8L354,516.3z"/>
		<path fill="#FFFFFF" d="M723.7,516.3l-71.8,72.9h100.8l63-63.9c2.9-2.9,5.5-5.9,8.1-9H723.7z"/>
	</g>
	<path fill="#414B99" d="M651.9,589.2l-60.9,61.9l-0.6,0.6c-1.1,1.2-2.5,2.4-4.2,3.9l-47.7,48.3L425.8,589.2H324.9l213.6,217
		l95.2-96.7c2.6-2.3,5-4.5,7-6.6l112-113.8H651.9z"/>
	<path fill="#DC141E" d="M354,516.3l-41.6-42.2c-13.8-14-21.4-32.6-21.4-52.4c0-19.8,7.6-38.4,21.5-52.5l0.3-0.3
		c14.2-14.5,32.9-21.7,51.6-21.7c18.7,0,37.4,7.2,51.6,21.7l122.8,124.7l122.8-124.7c28.5-28.9,74.8-28.9,103.2,0l0.4,0.4
		c13.8,14,21.4,32.6,21.4,52.4c0,19.8-7.6,38.4-21.4,52.4l-41.6,42.2h100.1c48-57.5,45.3-144-8.1-198.3l-0.4-0.4
		c-27.3-27.7-63.5-42.9-102-42.9s-74.8,15.2-102,42.9l-72.4,73.5l-72.4-73.5c-56.3-57.1-147.8-57.1-204.2,0.1L262,318
		c-27.3,27.7-42.3,64.5-42.3,103.6c0,35.1,12.1,68.2,34.2,94.7H354z"/>
</g>
</svg>
