<svg xmlns="http://www.w3.org/2000/svg" xml:space="preserve" viewBox="0 0 48.2 59.3"><path d="M32.4 43.5C38.3 47.6 43.2 52.9 47 59c.4.7 1.5.1 1.1-.6-3.9-6.3-9-11.7-15-16-.7-.5-1.3.6-.7 1.1" style="fill:#c6c6c6"/><path d="M2.2 0h4.1c16.3 0 29.5 13.2 29.5 29.5v14.7c0 1.2-1 2.2-2.2 2.2h-4.1C13.2 46.5 0 33.3 0 17V2.2C0 1 1 0 2.2 0" style="fill:#039639"/><path d="m35.2 45.9-5.7.6C13.3 46.5 0 33.3 0 16.9V2.2C.3 2 6.7 14.9 15.7 26c8.9 10.9 19.8 19.6 19.5 19.9" style="fill:#068838"/><text style="fill:#fff;font-family:&quot;MyriadPro-Regular&quot;;font-size:12px" transform="rotate(48 -17.189 17.047)">6 cm</text></svg>