<?xml version="1.0" encoding="UTF-8"?>
<!-- Generator: Adobe Illustrator 25.0.1, SVG Export Plug-In . SVG Version: 6.00 Build 0)  -->
<svg xmlns="http://www.w3.org/2000/svg" xmlns:xlink="http://www.w3.org/1999/xlink" version="1.1" id="Layer_1" x="0px" y="0px" viewBox="0 0 2552.2 446.2" style="enable-background:new 0 0 2552.2 446.2;" xml:space="preserve">
<style type="text/css">
	.st0{fill:#5A98FF;}
	.st1{fill:#E84E1B;}
	.st2{fill:#372650;}
	.st3{display:none;fill:none;}
</style>
<g>
	<path class="st0" d="M63,49.1c-4.2,3.5-6.3,8.1-6.3,13.8c0,5.7,2.6,10.3,7.8,13.7c5.2,3.4,17.1,7.4,35.8,12   c18.7,4.6,33.2,11.5,43.6,20.7c10.3,9.2,15.5,22.7,15.5,40.4c0,17.7-6.6,32-19.9,43c-13.3,11-30.7,16.5-52.3,16.5   c-31.2,0-59.4-11.6-84.4-34.7L29,142.3c21.3,18.6,40.9,27.9,59,27.9c8.1,0,14.4-1.7,19-5.2c4.6-3.5,6.9-8.2,6.9-14.1   c0-5.9-2.4-10.6-7.3-14.1c-4.9-3.5-14.6-7-29.1-10.6c-22.9-5.5-39.7-12.5-50.4-21.3c-10.6-8.7-15.9-22.5-15.9-41.2   S18,30.6,31.4,20.4S61.7,5.2,81.8,5.2c13.2,0,26.3,2.2,39.5,6.8s24.7,10.9,34.4,19.2l-22.3,32.2c-17.1-13-34.8-19.5-53.1-19.5   C73.1,43.8,67.3,45.6,63,49.1z"></path>
	<path class="st0" d="M292.8,47.8l0,159.1l-44,0l0-159.1l-55.9,0l0-38.1l155.8,0l0,38.1L292.8,47.8z"></path>
	<path class="st0" d="M521.1,206.9l-18.3-42.6l-82.7,0l-18.3,42.6l-46.8,0L440.1,9.7l42.6,0L568,206.9L521.1,206.9z M461.6,68.4   l-24.8,57.3l49.4,0L461.6,68.4z"></path>
	<path class="st0" d="M674.1,47.8l0,159.1l-44,0l0-159.1l-55.9,0V9.7l155.8,0v38.1L674.1,47.8z"></path>
	<path class="st0" d="M776.2,9.7l44,0l0,197.2l-44,0L776.2,9.7z"></path>
	<path class="st0" d="M1209.6,106.5l44.3,0l0,70c-19.6,21.8-46.7,32.7-81.3,32.7c-29,0-53.3-9.6-72.9-28.8   c-19.7-19.2-29.5-43.4-29.5-72.7s10-53.7,30-73.2c20-19.6,44.2-29.3,72.5-29.3c28.3,0,52.9,9.3,73.8,27.9l-22.9,33   c-8.8-7.7-17-13-24.4-15.9c-7.4-2.9-15.5-4.4-24.1-4.4c-16.7,0-30.8,5.7-42.3,17.1c-11.5,11.4-17.2,26.4-17.2,45   c0,18.6,5.5,33.5,16.5,44.7c11,11.2,24.1,16.8,39.4,16.8c15.2,0,27.9-2.9,38.1-8.7V106.5z"></path>
	<path class="st0" d="M1505.8,206.9V9.7l44,0l0,158l84.1,0v39.2L1505.8,206.9z"></path>
	<path class="st0" d="M1830.9,35.5c18.8,17.2,28.2,41.1,28.2,71.8s-9.2,54.9-27.5,72.8c-18.4,17.9-46.3,26.8-84,26.8l-67.4,0V9.7   l69.7,0C1785.1,9.7,1812.1,18.3,1830.9,35.5z M1798.6,152.8c10.8-10.2,16.2-24.9,16.2-44.3c0-19.4-5.4-34.3-16.2-44.7   c-10.8-10.5-27.4-15.7-49.8-15.7l-24.5,0l0,119.9l27.9,0C1772.3,168,1787.8,162.9,1798.6,152.8z"></path>
	<path class="st1" d="M772.9,243.3l44,0l0,197.2l-44,0l-94-123.6l0,123.6h-44l0-197.2l41.2,0l96.8,127V243.3z"></path>
	<path class="st1" d="M1228.9,269.1c18.8,17.2,28.2,41.1,28.2,71.8c0,30.7-9.2,54.9-27.5,72.8c-18.4,17.9-46.3,26.8-84,26.8h-67.4   l0-197.2l69.7,0C1183.1,243.3,1210.1,251.9,1228.9,269.1z M1196.6,386.3c10.8-10.2,16.2-24.9,16.2-44.3c0-19.4-5.4-34.3-16.2-44.7   c-10.8-10.5-27.4-15.7-49.8-15.7h-24.5v119.9h27.9C1170.3,401.6,1185.8,396.5,1196.6,386.3z"></path>
	<path class="st1" d="M1667.9,308.8c0,31.6-12.5,52-37.5,61.2l49.9,70.5l-54.2,0l-43.7-62.9H1552v62.9l-44,0V243.3l74.8,0   c30.7,0,52.5,5.2,65.6,15.5C1661.4,269.1,1667.9,285.8,1667.9,308.8z M1614.9,332.2c5.5-4.9,8.2-12.7,8.2-23.3   c0-10.6-2.8-17.9-8.5-21.9c-5.6-3.9-15.5-5.9-29.6-5.9h-33v58.4l32.2,0C1599.2,339.5,1609.4,337.1,1614.9,332.2z"></path>
	<path class="st1" d="M1727.2,440.5l0-197.2l44,0v158l84.1,0v39.2L1727.2,440.5z"></path>
	<path class="st1" d="M2042.1,440.5l-18.3-42.6l-82.7,0l-18.3,42.6l-46.8,0l85.2-197.2l42.6,0l85.2,197.2H2042.1z M1982.5,302   l-24.8,57.3l49.4,0L1982.5,302z"></path>
	<path class="st1" d="M2263.8,243.3l44,0l0,197.2l-44,0l-94-123.6v123.6h-44V243.3l41.2,0l96.8,127V243.3z"></path>
	<path class="st1" d="M2521.2,269.1c18.8,17.2,28.2,41.1,28.2,71.8s-9.2,54.9-27.5,72.8c-18.4,17.9-46.3,26.8-84,26.8l-67.4,0V243.3   l69.7,0C2475.4,243.3,2502.4,251.9,2521.2,269.1z M2488.9,386.4c10.8-10.2,16.2-24.9,16.2-44.3c0-19.4-5.4-34.3-16.2-44.7   c-10.8-10.5-27.4-15.7-49.8-15.7l-24.5,0v119.9h27.9C2462.6,401.6,2478.1,396.5,2488.9,386.4z"></path>
	<path class="st2" d="M979.4,48.1h46.7V9.7h-46.7c-51.9,0-94.1,41.7-94.1,93.6V168h-19.6v38.9h19.6v36.4h-19.6v38.4h19.6V345   c0,51.9,42.2,95.5,94.1,95.5h46.7v-38.9h-46.7c-30.2,0-54.7-26.4-54.7-56.5v-63.4h91.6v-38.4h-91.6v-36.4h91.6V168h-91.6v-64.7   C924.7,73.1,949.2,48.1,979.4,48.1z"></path>
	<path class="st2" d="M1356.5,401.4c-1.8,0-3.3-1.5-3.3-3.3V281.7h90.8v-38.4h-90.8v-36.4h90.8V168h-90.7   c0.2-10.5,0.7-19.4,1.7-27.5c3.3-27.5,21.8-54.1,69.3-54.1V9.7H1385v42.7c-36.8,11.9-64.2,44.3-68.9,83.5   c-1.4,11.8-2.1,24.6-2.1,40.5v221.8c0,23.4,19,42.4,42.4,42.4h87.5v-39.1H1356.5z"></path>
</g>
<path class="st3" d="M1380.7,678.2c-1.4,0-2.5-1.1-2.5-2.5v-87.2h68v-28.7h-68v-27.2h68v-29.2h-67.9c0.1-7.8,0.6-14.5,1.3-20.6  c2.5-20.6,16.3-40.5,51.9-40.5v-57.5h-29.4v31.9c-27.6,8.9-48.1,33.2-51.6,62.5c-1.1,8.8-1.6,18.4-1.6,30.3v166.1  c0,17.5,14.2,31.7,31.7,31.7h65.5v-29.3H1380.7z"></path>
<path class="st3" d="M1437.9-231.1c1.4,0,2.5,1.1,2.5,2.5v87.2h-68v28.7h68v27.2h-68v29.2h67.9c-0.1,7.8-0.6,14.5-1.3,20.6  c-2.5,20.6-16.3,40.5-51.9,40.5v57.5h29.4V30.3c27.6-8.9,48.1-33.2,51.6-62.5c1.1-8.8,1.6-18.4,1.6-30.3v-166.1  c0-17.5-14.2-31.7-31.7-31.7h-65.5v29.3H1437.9z"></path>
<path class="st3" d="M2522.9,287.9c0,1.4-1.1,2.5-2.5,2.5h-87.2v-68h-28.7v68h-27.2v-68h-29.2v67.9c-7.8-0.1-14.5-0.6-20.6-1.3  c-20.6-2.5-40.5-16.3-40.5-51.9h-57.5v29.4h31.9c8.9,27.6,33.2,48.1,62.5,51.6c8.8,1.1,18.4,1.6,30.3,1.6h166.1  c17.5,0,31.7-14.2,31.7-31.7v-65.5h-29.3V287.9z"></path>
<path class="st3" d="M29.3,134.8c0-1.4,1.1-2.5,2.5-2.5H119v68h28.7v-68h27.2v68h29.2v-67.9c7.8,0.1,14.5,0.6,20.6,1.3  c20.6,2.5,40.5,16.3,40.5,51.9h57.5v-29.4h-31.9c-8.9-27.6-33.2-48.1-62.5-51.6c-8.8-1.1-18.4-1.6-30.3-1.6H31.7  C14.2,103.1,0,117.3,0,134.8l0,65.5h29.3V134.8z"></path>
</svg>
