<svg xmlns="http://www.w3.org/2000/svg" xml:space="preserve" viewBox="0 0 714.24 596.02"><path fill="#020202" d="M642.601 489.035v-10.379l-1.5.436c-.825.24-8.55 3.86-17.168 8.044-19.19 9.318-23.723 10.952-31.683 11.422-7.325.432-8.08-.056-6.807-4.4l.823-2.81 56.001-23.702.211-31.951c.384-58.03-.655-235.261-1.372-233.981-.364.651-1.949 4.823-3.521 9.27-4.235 11.98-5.435 14.811-7.921 18.698-3.603 5.632-5.294 6.339-17.773 7.432-18.093 1.585-26.538-.676-34.834-9.325-7.53-7.853-12.459-24.569-12.459-42.265v-4.596l-4.833-.374c-2.659-.205-5.658-.691-6.667-1.08-1.74-.67-1.837-.937-1.9-5.223-.036-2.484-.26-6.101-.5-8.038l-.434-3.522-5.259-2.282c-6.275-2.723-7.987-4.205-9.557-8.275-1.075-2.784-1.183-5.988-1.176-34.734.007-27.067.174-32.587 1.157-38 2.883-15.882 4.592-17.25 22.267-17.83l10.098-.33.393-7.754c.215-4.265.581-14.129.813-21.92l.42-14.168 16.423-.001c9.033-.001 25.649-.2 36.923-.441l20.501-.44V.014l12.334.383.667 187.342 5.579 7.667c9.302 12.782 13.445 20.666 14.38 27.36.676 4.856-.228 6.785-3.801 8.112l-3.083 1.145-1.572-3.475c-.865-1.911-3.807-8.531-6.537-14.712l-4.965-11.237-.169 131.873c-.092 72.53.058 132.094.334 132.364.276.272 6.501 2.722 13.835 5.447 23.966 8.903 35.866 14.426 41.117 19.085l2.857 2.536-1.32 2.495c-.725 1.372-1.685 2.64-2.132 2.819-1.42.565-10.317-1.233-16.188-3.272-3.116-1.083-11.37-4.775-18.34-8.206-13.185-6.488-18.677-8.993-19.716-8.993-.345 0-.611 4.512-.611 10.333v10.334h-13.333zm-24.34-262.86c1.704-.456 2.208-1.454 6.088-12.074 4.84-13.243 7.53-17.832 14.27-24.339l4.648-4.487v-33.438c0-18.392-.2-53.464-.443-77.94l-.442-44.5h-61.116v31.786l4.618.825c8.046 1.438 12.812 5.53 14.05 12.063 2.606 13.74 2.565 66.16-.06 77.472-.848 3.651-4.295 7.198-8.925 9.182-3.211 1.377-3.131 1.12-4.058 13.117l-.42 5.442-4.102.426c-2.256.235-4.966.593-6.022.797l-1.92.37.45 6.429c1.402 20.011 5.474 30.803 13.59 36.01 5.258 3.373 9.215 4.14 19.203 3.722 4.805-.201 9.571-.59 10.593-.863zm-40.996-60.11v-4h-16.667v8h16.667zm9.88-18.175c.872-.723.938-5.266.533-36.438-.422-32.508-.562-35.688-1.604-36.479-.867-.658-5.279-.872-18.342-.889l-17.201-.02-.937 2.241c-1.522 3.641-2.294 9.896-3.082 24.957-.936 17.887.094 44.032 1.84 46.697l1.082 1.65 18.356-.446c13.038-.317 18.647-.685 19.355-1.272zm-31.213-20.515c-1.65-.27 1.2-.334 6.333-.145s9.459.455 9.612.59c.492.432-12.842.06-15.945-.445m0-14.001c-1.65-.27 1.2-.334 6.333-.145 5.134.19 9.459.455 9.612.59.492.432-12.842.06-15.945-.445m0-12.667c-1.65-.27 1.2-.334 6.333-.145 5.134.19 9.459.455 9.612.59.492.432-12.842.06-15.945-.445m2.132-11.974c-2.312-.261-4.546-.819-4.967-1.24-.576-.575 1.905-.764 10.014-.764 9.308 0 10.727.136 10.396 1-.29.753-1.503 1-4.925 1-2.498 0-4.941.107-5.43.239-.487.132-2.778.026-5.088-.235"/><text xml:space="preserve" x="139.524" y="593.31" fill="#ee172c" font-family="sans-serif" font-size="8" letter-spacing="0" style="line-height:1.25" word-spacing="0"><tspan x="139.524" y="593.31" font-family="Effra" font-size="117.33" font-weight="300" style="font-feature-settings:normal;font-variant-caps:normal;font-variant-ligatures:normal;font-variant-numeric:normal">e c u a d o r</tspan></text><g fill="#ee172c" stroke-width=".75" font-family="sans-serif" font-size="6" letter-spacing="0" word-spacing="0"><text xml:space="preserve" x="-640.765" y="-138.624" style="line-height:1.25" transform="translate(951.18 682.91)scale(1.3333)"><tspan x="-640.765" y="-138.624" font-family="Effra" font-size="165" font-weight="300" style="font-feature-settings:normal;font-variant-caps:normal;font-variant-ligatures:normal;font-variant-numeric:normal">Care</tspan></text><text xml:space="preserve" x="-722.863" y="-265.632" style="line-height:1.25" transform="translate(951.18 682.91)scale(1.3333)"><tspan x="-722.863" y="-265.632" font-family="Effra" font-size="165" font-weight="300" style="font-feature-settings:normal;font-variant-caps:normal;font-variant-ligatures:normal;font-variant-numeric:normal">Quina</tspan></text></g></svg>