<svg xmlns="http://www.w3.org/2000/svg" viewBox="0 0 128 128">
<path d="m6.56 17.7c8.92-12.7 28.3-16.1 44.4-7.84 12 6.18 14.2 6.18 26.2 0 8.31-4.3 17.7-5.76 25.6-4.02 27.5 6.05 33.3 38.8 12.7 71.3-11 17.4-42.8 45.7-51.4 45.7-12.5 0-86.5-63.9-57.5-105z" fill="#f2a9b8"/>
<path d="m22.5 30.4c6.47-9.24 20.6-11.7 32.2-5.68 8.68 4.49 10.3 4.49 19 0 6.02-3.12 12.8-4.19 18.5-2.93 20 4.4 24.2 28.2 9.21 51.8-7.99 12.6-31.1 33.2-37.2 33.2-9.1 0-62.8-46.4-41.7-76.3z" fill="#e8576c"/>
<path d="m34.6 40.2c4.59-6.55 14.6-8.31 22.9-4.02 6.15 3.17 7.31 3.17 13.5 0 4.27-2.21 9.06-2.96 13.1-2.08 14.2 3.11 17.1 20 6.52 36.7-5.65 8.92-22.1 23.5-26.4 23.5-6.44 0-44.4-32.8-29.6-54.1z" fill="#dc2d43"/>
</svg>
