<svg xmlns="http://www.w3.org/2000/svg" xml:space="preserve" id="Layer_1" x="0" y="0" viewBox="0 0 509.9 607.4"><style>.st0{fill:#c6c6c6}.st1{fill:#039639}.st2{fill:#068838}.st5{fill:#99ac19}.st6{fill:#afb21d}.st7{fill:#8a9324}.st8{fill:#008d36}.st9{fill:#009439}.st10{fill:#bfbb74}.st11{fill:#444f2d}.st15{fill:#c4bc95}.st17{fill:#973535}.st22{fill:#c9c779}.st25{fill:#fff}.st26{font-family:&quot;Effra-Regular&quot;}.st27{font-size:9px}.st28{font-size:4.9994px}.st29{font-size:8px}.st32{font-size:7.9991px}.st34{font-size:8.9994px}.st35{font-family:&quot;ArialMT&quot;}.st36{font-size:8.999px}.st37{font-size:6px}.st38{font-size:9.001px}.st39{font-size:6.0004px}.st40{font-size:8.0006px}</style><g id="Layer_26"><path d="M310.6 250.2c-4.4-.3-8.7-1.2-12.8-2.9-.7-.3-1.1.9-.3 1.2 4.2 1.7 8.6 2.7 13.1 2.9.8.1.8-1.1 0-1.2" class="st0"/><path d="m308.9 249.6 2.2-1.1c8.7-4.3 20-2.1 25.3 4.9l4.7 6.3c.3.4.2 1.1-.2 1.4-.1.1-.2.1-.3.1l-2.2 1.1c-8.7 4.3-20 2.1-25.3-4.9l-4.7-6.3c-.3-.4-.2-1.1.2-1.4.1 0 .2-.1.3-.1" class="st1"/><path d="m308.3 250.3 2.8-1.8c8.7-4.3 20-2.1 25.3 4.9l4.7 6.3c-.1.1-7.6-3.7-16-6.1-8.3-2.4-16.8-3.2-16.8-3.3" class="st2"/><path d="M371.1 225c-3.5-.3-7-1.2-10.2-2.8-.7-.4-1.4.7-.6 1.1 3.4 1.7 7.1 2.7 10.8 3 .8.1.8-1.2 0-1.3" class="st0"/><path d="m369.8 224.4 1.8-1.1c7-4.3 16.2-2.1 20.5 4.9l3.8 6.3c.3.5.1 1.2-.4 1.5l-1.8 1.1c-7 4.3-16.2 2.1-20.5-4.9l-3.8-6.3c-.3-.5-.1-1.2.4-1.5" class="st1"/><path d="m369.3 225 2.3-1.7c7-4.3 16.2-2.1 20.5 4.9l3.8 6.3c-.1.1-6.2-3.7-13-6.1s-13.7-3.2-13.6-3.4" class="st2"/><path d="M432 195.5c-3.5.5-7.1.4-10.6-.5-.8-.2-1.1 1-.3 1.2 3.7.9 7.5 1.1 11.2.5.8-.1.5-1.3-.3-1.2" class="st0"/><path d="m430.5 195.1 1.5-1.5c5.9-5.8 15.3-5.6 21.1.2l5.2 5.3c.4.4.4 1.1 0 1.6l-1.5 1.5c-5.9 5.8-15.3 5.7-21.1-.2l-5.2-5.3c-.4-.5-.4-1.2 0-1.6" class="st1"/><path d="m430.2 195.8 1.9-2.2c5.9-5.8 15.3-5.6 21.1.2l5.2 5.3c0 .1-6.9-2.2-14-3s-14.2-.1-14.2-.3" class="st2"/><path d="M415.8 141.9c-3.5.5-7.1.4-10.6-.5-.8-.2-1.1 1-.3 1.2 3.7.9 7.5 1.1 11.2.5.8-.1.5-1.3-.3-1.2" class="st0"/><path d="m414.4 141.6 1.5-1.5c5.9-5.8 15.3-5.6 21.1.2l5.1 5.3c.4.4.4 1.1 0 1.6l-1.5 1.5c-5.9 5.8-15.3 5.7-21.1-.2l-5.1-5.3c-.5-.4-.5-1.2 0-1.6-.1 0 0 0 0 0" class="st1"/><path d="m414 142.3 1.9-2.2c5.9-5.8 15.3-5.6 21.1.2l5.1 5.3c0 .1-6.9-2.2-14-3.1s-14 0-14.1-.2" class="st2"/><path d="M331.4 109.5c-3.5.5-7.1.4-10.6-.5-.8-.2-1.1 1-.3 1.2 3.7.9 7.5 1.1 11.2.5.9-.1.5-1.3-.3-1.2" class="st0"/><path d="m330 109.1 1.5-1.5c5.9-5.8 15.3-5.7 21.1.2l5.1 5.3c.4.4.4 1.1 0 1.6l-1.5 1.5c-5.9 5.8-15.3 5.6-21.1-.2l-5.1-5.3c-.4-.5-.4-1.2 0-1.6" class="st1"/><path d="m329.7 109.8 1.9-2.2c5.9-5.8 15.3-5.7 21.1.2l5.1 5.3c0 .1-6.9-2.2-14-3.1s-14.1 0-14.1-.2" class="st2"/></g><g id="Layer_27"><path id="Layer_13" d="M96.2 216.4c1-1.8 3.3-2.4 5.1-1.4l142.4 82.2c1.8 1 2.4 3.3 1.4 5.1s-3.3 2.4-5.1 1.4L97.6 221.5c-1.8-1-2.4-3.3-1.4-5.1" style="fill:#a6947d"/><path id="Layer_10" d="M284 48.6c2 .4 3.3 2.4 2.9 4.5l-6.5 30.8c-.4 2-2.4 3.3-4.5 2.9-2-.4-3.3-2.4-2.9-4.5l6.5-30.8c.5-2.1 2.4-3.4 4.5-2.9m41.2 83.5.3.2c1.6 1.3 2 3.6.7 5.3l-30.7 39.9c-1.3 1.6-3.6 2-5.3.7l-.3-.2c-1.6-1.3-2-3.6-.7-5.3l30.7-39.9c1.3-1.6 3.6-1.9 5.3-.7M193.9 65.2c1.9-.8 4.1 0 5 2l24.6 56.7c.8 1.9 0 4.1-2 5-1.9.8-4.1 0-5-2l-24.6-56.7c-.8-1.9.1-4.1 2-5m146.7 36.4c.7 1.9-.2 4-2.1 4.8l-79.4 30.8c-1.9.7-4-.2-4.8-2.1-.7-1.9.2-4 2.1-4.8l79.4-30.8c1.9-.7 4 .2 4.8 2.1M95.5 143c.7-2 2.8-3 4.8-2.3l155.6 53.1c2 .7 3 2.8 2.3 4.8s-2.8 3-4.8 2.3L97.9 147.7c-2-.6-3-2.8-2.4-4.7m152.4 129c-.8-1.9 0-4.1 1.9-5l181.5-79.8c1.9-.8 4.1 0 5 1.9.8 1.9 0 4.1-1.9 5l-181.5 79.8c-1.9.9-4.1 0-5-1.9M70.5 222.2c2 .4 3.3 2.4 2.9 4.5l-6.5 30.8c-.4 2-2.4 3.3-4.5 2.9-2-.4-3.3-2.4-2.9-4.5l6.5-30.8c.4-2 2.4-3.3 4.5-2.9m68.1 5.9c2 .4 3.3 2.4 2.9 4.5l-13.9 66.2c-.4 2-2.4 3.3-4.5 2.9-2-.4-3.3-2.4-2.9-4.5l13.9-66.2c.5-2.1 2.5-3.4 4.5-2.9" style="fill:#7f725e"/><path id="Layer_5" d="m243 102.9.8-12.4 79.4-30.8 4 10.4zm-112.703 8.965 4.424-15.689 115.692 32.622-4.424 15.689zm111.823 74.39 158.728-48.589 4.83 15.778-158.73 48.588zm69.997 118.135 133.596-98.538 9.795 13.28-133.597 98.537zm-154.113-27.95 13.36-9.853 46.242 62.694-13.36 9.854zm-127.35-63.117 15.38-5.974 28.208 72.61-15.38 5.975z" class="st5"/><path id="Layer_21" d="M322.3 170.3c.1.4-.1.8-.5 1L250 192.9c-.4.1-.8-.1-1-.5-.1-.4.1-.8.5-1l71.8-21.7c.5-.1.9.2 1 .6m90.7 74.9c.3.4.2.8-.2 1.1l-60.2 44.4c-.3.3-.8.2-1.1-.2-.3-.3-.2-.8.2-1.1l60.2-44.4c.3-.2.8-.1 1.1.2m27-27.5c.3.4.2.8-.2 1.1l-60.2 44.4c-.3.3-.8.2-1.1-.2-.3-.3-.2-.8.2-1.1l60.2-44.4c.4-.2.9-.1 1.1.2m-68-66.9c.1.4-.1.8-.5 1l-71.6 21.9c-.4.1-.8-.1-1-.5-.1-.4.1-.8.5-1l71.6-21.9c.4-.2.9.1 1 .5m-50.9-87c.2.4 0 .9-.4 1L251.4 93c-.4.2-.8 0-1-.4s0-.8.4-1l69.3-28.2c.4-.2.8 0 1 .4m-84.4 75.8c-.1.4-.5.7-1 .5l-72-20.3c-.4-.1-.6-.5-.5-1 .1-.4.5-.6 1-.5l72 20.3c.3.2.6.6.5 1m-27.2-16.3c-.1.4-.5.7-1 .5l-72-20.3c-.4-.1-.6-.5-.5-1 .1-.4.5-.6 1-.5l72 20.3c.4.1.6.6.5 1m-32.8 172.8c.2-.2.6-.1.7.1l16.6 22.5c.2.2.1.6-.1.7-.2.2-.6.1-.7-.1l-16.6-22.5c-.2-.2-.2-.6.1-.7m-9.4-22.2c.2-.2.6-.1.7.1l16.6 22.5c.2.2.1.6-.1.7-.2.2-.6.1-.7-.1l-16.6-22.5c-.2-.2-.1-.5.1-.7m17.8 16.9c.2-.2.6-.1.7.1l16.6 22.5c.2.2.1.6-.1.7-.2.2-.6.1-.7-.1L185 291.6c-.1-.3-.1-.6.1-.8" class="st6"/><path id="Layer_17" d="M267.8 178c.3 1.3.9 4.9 1.9 8.4s2.6 6.5 3.1 8l-2.5 1-5.8-16.1zm60.4-18.9c.3 1.3.9 4.9 1.9 8.4s2.6 6.6 3.1 8l-2.5 1-5.8-16.1zm54.4-16.3c.3 1.3.9 4.9 1.9 8.4 1 3.3 2.6 6.5 3.1 8l-2.5 1-5.7-16.1zM228.3 140c.5-1.2 2.2-4.4 3.5-7.9s1.8-6.8 2.3-8.3l2.6.8-5.1 16.3zm-51.4-14.1c.5-1.2 2.2-4.4 3.4-7.9s1.8-6.8 2.3-8.3l2.6.8-5.1 16.3zm-33.4-9.9c.5-1.2 2.2-4.4 3.5-7.9s1.8-6.8 2.3-8.3l2.6.8-5.1 16.3zm121.7-34.7c.5 1.9 1.2 3.9 2 5.7.9 1.8 2 3.5 3.1 5.2l-2.4 1.3-5.7-10.6zm37.1-14c.5 1.9 1.2 3.9 2 5.7.9 1.8 2 3.5 3.1 5.2l-2.4 1.2-5.7-10.6zM183.8 312.4c1.1-.7 4.3-2.4 7.2-4.5s5.3-4.6 6.5-5.5l1.7 2.1L186 315zm-26.3-36.5c1.1-.7 4.3-2.4 7.2-4.5s5.3-4.6 6.5-5.5l1.7 2.1-13.3 10.6zm-114-29.1c1.3-.3 4.8-.9 8.3-2s6.5-2.7 7.9-3.2l1 2.5-16 5.9zm329.2 34.1c-.8-1.1-2.8-4.1-5.2-6.9s-5.1-5-6.2-6l1.9-1.9 12 12.5zm57-42.2c-.8-1-2.8-4.1-5.2-6.9s-5.1-5-6.2-6.1l1.9-1.9 12 12.4z" class="st7"/><path id="Layer_4" d="M262.2 321.4h-22.8l3.2-270.6h17.2zm9.8 23.1-10.9-21.2L491.7 236l7 18zm-32.5-11.9-5.7 16.8-230.9-82 4.7-13.8z" class="st8"/><path id="Layer_20" d="M399.7 277.3c.1.4-.1.9-.5 1l-117.5 42.6c-.4.1-.8-.1-1-.5-.1-.4.1-.8.5-1l117.5-42.6c.4-.2.8.1 1 .5m-2.8 12.8v.1c.2.4 0 .8-.4 1l-109.2 43.5c-.4.2-.8 0-1-.4v-.1c-.2-.4 0-.8.4-1l109.2-43.5c.4-.1.8.1 1 .4m-184.2 42.5v.1c-.1.4-.6.6-1 .5l-111.3-37.9c-.4-.1-.6-.6-.5-1v-.1c.1-.4.6-.6 1-.5l111.3 37.9c.4.2.6.6.5 1m-88-34.8v.1c-.1.4-.6.6-1 .5l-111.3-38c-.4-.1-.6-.6-.5-1v-.1c.1-.4.6-.6 1-.5l111.3 37.9c.4.3.6.7.5 1.1M26.3 273c0-.5.2-.8.5-.7L88 293.5c.3.2.5.5.5.9v.1c0 .4-.2.7-.4.6L27 273.9c-.5-.2-.7-.5-.7-.9m465-25.9c.2.4 0 .9-.4 1l-116.7 44.8c-.4.2-.8 0-1-.4s0-.8.4-1l116.7-44.8c.4-.2.9 0 1 .4m-243.6-65.3c.4 0 .8.3.8.8v105.9c0 .4-.3.8-.8.8-.4 0-.8-.3-.8-.8V182.6c.1-.4.4-.8.8-.8m7.8-85.3c.4 0 .8.3.8.8v105.9c0 .4-.3.8-.8.8-.4 0-.8-.3-.8-.8v-106c0-.4.4-.7.8-.7m-5.1-42.7c.4 0 .8.3.8.8v105.9c0 .4-.3.8-.8.8-.4 0-.8-.3-.8-.8V54.6c.1-.5.4-.8.8-.8" class="st9"/><g id="Layer_24"><path d="M213.3 356.7h4.9l2.2-10.3h-4.9zm9.5 0h4.9l2.2-10.3H225zm10.1 0h4.9l2.2-10.3h-4.9zm10 0h4.9l2.2-10.3h-4.9zm11 0h4.9l2.2-10.3h-4.9zm10 0h4.9l2.2-10.3h-4.9zm10.3 0h4.9l2.2-10.3h-4.9zm9.9.1 2.5.1c3.2-1.3 4.6-4.8 3.6-7.4-.8-1.9-1.9-3-4.2-3.1-.8 3.5-1.2 6.9-1.9 10.4m-70.6 10.3h4.9l2.2-10.3h-4.9zm9.5 0h4.9l2.2-10.3h-4.9zm10.1 0h5l2.1-10.3h-4.9zm10 0h4.9l2.2-10.3h-4.9zm11 0h4.9l2.2-10.3h-4.9zm10 0h4.9l2.2-10.3h-4.9zm10.3 0h4.9l2.2-10.3h-4.9z" class="st10"/><path d="m284.3 367.2 2.5.1c3.2-1.3 4.6-4.8 3.6-7.4-.8-1.9-1.9-3-4.2-3.1-.8 3.5-1.2 7-1.9 10.4m-70.2 10.6h4.9l2.1-10.4h-4.9zm9.5 0h4.9l2.2-10.4h-5zm10.1 0h4.9l2.2-10.4h-4.9zm10 0h4.9l2.2-10.4h-5zm10.9 0h5l2.1-10.4h-4.9zm10 0h5l2.1-10.4h-4.9zm10.3 0h5l2.1-10.4h-4.9zm9.9.1 2.5.1c3.2-1.3 4.6-4.8 3.6-7.4-.8-1.9-1.9-3-4.2-3.1-.7 3.5-1.2 6.9-1.9 10.4M214 579.1h5l2.1-10.4h-4.9zm9.6 0h4.9l2.1-10.4h-4.9zm10.1 0h4.9l2.2-10.4h-5zm9.9 0h5l2.1-10.4h-4.9zm11 0h5l2.1-10.4h-4.9zm10 0h4.9l2.2-10.4h-4.9zm10.3 0h5l2.1-10.4h-4.9zm9.9 0 2.5.1c3.2-1.3 4.6-4.8 3.6-7.4-.8-1.9-1.9-3-4.2-3.1-.7 3.5-1.2 7-1.9 10.4" class="st10"/><path d="M214 589.3h5l2.1-10.3h-4.9zm9.6 0h4.9l2.1-10.3h-4.9zm10.1 0h4.9l2.2-10.3h-5zm9.9 0h5l2.1-10.3h-4.9zm11 0h5l2.1-10.3h-4.9zm10 0h4.9l2.2-10.3h-4.9zm10.3 0h5L282 579h-4.9zm9.9.1 2.5.1c3.2-1.3 4.6-4.8 3.6-7.4-.8-1.9-1.9-3-4.2-3.1-.7 3.5-1.2 6.9-1.9 10.4M214 599.7h4.9l2.2-10.4h-5zm9.5 0h4.9l2.2-10.4h-4.9zm10.1 0h4.9l2.2-10.4h-4.9zm10 0h4.9l2.2-10.4h-5zm11 0h4.9l2.2-10.4h-5zm10 0h4.9l2.1-10.4h-4.9zm10.3 0h4.9l2.2-10.4h-5z" class="st10"/><path d="m284.7 599.7 2.5.1c3.2-1.3 4.6-4.8 3.6-7.4-.8-1.9-1.9-3-4.2-3.1-.7 3.6-1.2 7-1.9 10.4" class="st10"/></g><path id="Layer_16" d="M262.8 258.4c-1.8-.1-6.5-.5-11.4-.5-4.6 0-9.4.5-11.4.5l-.2-2.4 22.7-.6zm-1.4-72.8c-1.6-.1-5.9-.5-10.3-.5-4.2 0-8.5.5-10.3.5l-.2-2.2 20.5-.6zm-.7-70.7c-1.5-.1-5.4-.5-9.4-.5-3.9 0-7.8.5-9.4.5l-.2-2.2 18.8-.6zm-58.6 204.4c-.6 1.3-2.5 4.6-4 8.1s-2.4 7-2.9 8.5l-2.2-.8 6.3-16.9zm-68.2-23.6c-.6 1.3-2.5 4.6-4 8.1-1.4 3.4-2.4 7-2.9 8.5l-2.2-.7 6.3-16.9zm-54.6-18.1c-.6 1.2-2.3 4.2-3.7 7.5s-2.2 6.5-2.7 7.9l-2.2-.8 5.8-15.6zm-47.7-16.3c-.6 1.2-2.3 4.2-3.7 7.5s-2.2 6.5-2.7 7.9l-2.2-.8 5.8-15.6zm260.1 49.5c.4 1.9 1.1 7 2.3 12 1.2 4.8 2.9 9.6 3.5 11.7l-2.6.9-6.5-23.5zm63.5-24c.5 1.8 1.5 6.9 3 11.8 1.5 4.8 3.5 9.4 4.2 11.5l-2.5 1L352 288zm61.1-23.1c.4 1.6 1.2 6 2.6 10.4 1.3 4.2 3.1 8.2 3.8 10l-2.5 1-7-20.2zm60.6-23.3c.4 1.6 1.2 6 2.6 10.4 1.3 4.2 3.1 8.2 3.8 10l-2.5 1-7-20.2z" class="st11"/><g id="Layer_11"><path d="M72.2 257.3c1.9-.8 4.1 0 5 2l27.1 62.2c.8 1.9 0 4.1-2 5-1.9.8-4.1 0-5-2l-27.1-62.2c-.8-1.9.1-4.1 2-5m331.6-70.9c2 .4 3.3 2.4 2.9 4.5L392.8 257c-.4 2-2.4 3.3-4.5 2.9-2-.4-3.3-2.4-2.9-4.5l13.9-66.2c.4-1.9 2.4-3.2 4.5-2.8m26.7-55.4c.8 1.9 0 4.1-1.9 5l-61.9 27.2c-1.9.8-4.1 0-5-1.9-.8-1.9 0-4.1 1.9-5l61.9-27.2c1.9-.9 4.2 0 5 1.9m-41.6 44.3c.2 2.1-1.4 3.9-3.5 4L283 187.5c-2.1.2-3.9-1.4-4-3.5-.2-2.1 1.4-3.9 3.5-4l102.5-8.1c1.9-.2 3.8 1.3 3.9 3.4" style="fill:#8e7d69"/><path d="M501.3 240.1c.8 1.9 0 4.1-1.9 5l-61.9 27.2c-1.9.8-4.1 0-5-1.9-.8-1.9 0-4.1 1.9-5l61.9-27.2c1.9-.9 4.2 0 5 1.9" style="fill:#a69a7e"/><path d="M108.3 78.9c1-1.8 3.3-2.4 5.1-1.4l58.6 33.8c1.8 1 2.4 3.3 1.4 5.1s-3.3 2.4-5.1 1.4L109.6 84c-1.8-1-2.4-3.3-1.3-5.1" style="fill:#8c8369"/><path d="M288.1 183.3c2 .7 3 2.8 2.3 4.8l-33.2 97.3c-.7 2-2.8 3-4.8 2.3s-3-2.8-2.3-4.8l33.2-97.3c.7-1.9 2.8-3 4.8-2.3" class="st15"/></g><path id="Layer_8" d="m488.9 295 .1.7c.3 4.4-2.9 8.2-7.3 8.5l-150.2 12c-4.4.3-8.2-2.9-8.5-7.3l-.1-.7c-.3-4.4 2.9-8.2 7.3-8.5l150.2-12c4.3-.3 8.1 2.9 8.5 7.3m-312.6 23.1.1.7c.3 4.4-2.9 8.2-7.3 8.5L39.7 337.8c-4.4.3-8.2-2.9-8.5-7.3l-.1-.7c-.3-4.4 2.9-8.2 7.3-8.5l129.4-10.4c4.4-.4 8.2 2.9 8.5 7.2" class="st5"/><path id="Layer_22" d="M407.5 304.4c0 .4-.3.8-.7.8l-74.6 5.9c-.4 0-.8-.3-.8-.7s.3-.8.7-.8l74.6-5.9c.4-.1.8.3.8.7m28.9-8.8c0 .4-.3.8-.7.8l-74.6 5.9c-.4 0-.8-.3-.8-.7s.3-.8.7-.8l74.6-5.9c.4-.1.7.3.8.7m51.6 1.5c0 .4-.3.8-.7.8l-74.6 5.9c-.4 0-.8-.3-.8-.7s.3-.8.7-.8l74.6-5.9c.4 0 .7.3.8.7" class="st6"/><g id="Layer_18"><path d="M362.5 295.1c-2.8 5.4-2.8 11.9.1 17.3l-2.7.2c-3-5.3-3.3-11.7-.9-17.2zm38.3-3c-2.8 5.4-2.7 11.9.1 17.3l-2.7.2c-3-5.3-3.3-11.7-.9-17.2zm50.8-3.8c-2.8 5.4-2.8 11.9.1 17.3l-2.7.2c-3-5.3-3.3-11.7-.9-17.2z" class="st7"/><ellipse cx="482.5" cy="296.3" class="st11" rx="6" ry="7.6"/><ellipse cx="37.4" cy="329.8" class="st11" rx="6" ry="7.6"/><path d="M159.5 327.9c1.7-5.9.5-12.2-3.4-16.9l2.6-.7c3.9 4.7 5.4 10.9 4 16.8zm-49.1 3.9c1.8-5.9.5-12.2-3.4-16.9l2.6-.7c3.9 4.7 5.4 10.9 4 16.8zm-56 4.5c.9-2.9 1-6 .4-9-.6-2.9-1.9-5.6-3.8-7.9l2.6-.7c3.9 4.7 5.4 10.9 4 16.8z" class="st7"/></g><path id="Layer_12" d="M449.8 271.4c1.2 1.7.7 4.1-1 5.2l-42.5 28.8c-1.7 1.2-4.1.7-5.2-1-1.2-1.7-.7-4.1 1-5.2l42.5-28.8c1.7-1.1 4.1-.7 5.2 1" class="st15"/><g id="Layer_2_1_"><path d="M238 323.4h24.7v256.8H238z" style="fill:#58693a"/><path d="M261.7 424.1c-1.8-.1-6.7-.5-11.8-.5-4.8 0-9.7.5-11.8.5v-2.2l23.3-.6zm.5 39.3c-1.8-.1-6.7-.5-11.8-.5-4.8 0-9.7.5-11.8.5v-2.2l23.2-.6zm.4 37.4c-1.8-.1-6.8-.5-11.8-.5-4.8 0-9.7.5-11.8.5v-2.2l23.2-.6z" class="st11"/></g><g id="Layer_6"><path d="M243.8 451.8c9.8 0 17.7 7.9 17.7 17.7v2.1c0 5.1-4.1 9.2-9.2 9.2h-8.5c-2.4 0-4.4-2-4.4-4.4v-20.3c0-2.4 2-4.3 4.4-4.3" class="st17"/><path d="m252.6 449.8 2.2 1.5c.6.4.8 1.3.4 1.9l-2.7 3.9c-.4.6-1.3.8-1.9.4l-2.2-1.5c-.6-.4-.8-1.3-.4-1.9l2.7-3.9c.4-.7 1.3-.8 1.9-.4m5.2 3.4 2.2 1.5c.6.4.8 1.3.3 1.9l-2.7 3.8c-.4.6-1.3.8-1.9.3l-2.2-1.5c-.6-.4-.8-1.3-.3-1.9l2.7-3.8c.4-.5 1.3-.7 1.9-.3" class="st17"/><path d="M244.5 454.9h2c4.1 0 7.4 3.3 7.4 7.5 0 2.1-1.7 3.9-3.9 3.9h-5.6c-1 0-1.8-.8-1.8-1.8v-7.7c.1-1.1.9-1.9 1.9-1.9" style="fill:#a14546"/></g><path id="Layer_7" d="M249.1 405.4h1.7c.3 0 .6.3.6.6v47.8c0 .3-.3.6-.6.6h-1.7c-.3 0-.6-.3-.6-.6V406c0-.3.2-.6.6-.6m0 74.8h1.5c.4 0 .7.3.7.7v30c0 .4-.3.7-.7.7h-1.5c-.4 0-.7-.3-.7-.7v-30c0-.3.3-.7.7-.7" style="fill:#fcddd4"/><g id="Layer_3"><path d="M238 504.8h24.7v103.6H238zm.5-204.6h24.7v105.2h-24.7z" style="fill:#018337"/><path d="M245.3 529.1c.5 0 .9.4.9.9v40.5c0 .5-.4.9-.9.9s-.9-.4-.9-.9V530c0-.6.4-.9.9-.9m8.7-22.2c.5 0 .9.4.9.9v40.4c0 .5-.4.9-.9.9s-.9-.4-.9-.9v-40.4c0-.5.4-.9.9-.9m-8.7-150.4c.5 0 .9.4.9.9v40.5c0 .5-.4.9-.9.9s-.9-.4-.9-.9v-40.5c0-.5.4-.9.9-.9m7.8-33.1c.5 0 .9.4.9.9v40.5c0 .5-.4.9-.9.9s-.9-.4-.9-.9v-40.5c.1-.5.4-.9.9-.9" style="fill:#078938"/></g><path id="Layer_15" d="M263.1 385.4c-2-.1-7.2-.5-12.6-.5-5.1 0-10.4.5-12.6.5l-.2-2.4 25.2-.6zm.4-67.4c-2-.1-7.2-.5-12.6-.5-5.1 0-10.4.5-12.6.5l-.2-2.4 25.1-.6zm.8 198.2c-2-.1-7.2-.5-12.6-.5-5.1 0-10.4.5-12.6.5l-.2-2.4 25.1-.6zm-1.2 87.7c-2-.1-7.2-.5-12.6-.5-5.1 0-10.4.5-12.6.5l-.2-2.4 25.1-.6z" class="st11"/><path id="Layer_1_1_" d="M214.6 323.9h24.7v284.5h-24.7zm46.8-.6h24.7v285.1h-24.7z" class="st8"/><path id="Layer_19" d="M267.1 379.7c.4 0 .8.3.8.8v158.3c0 .4-.3.8-.8.8-.4 0-.8-.3-.8-.8V380.5c0-.5.4-.8.8-.8m-39.4 27c.4 0 .8.3.8.8v158.3c0 .4-.3.8-.8.8-.4 0-.8-.3-.8-.8V407.4c.1-.4.4-.7.8-.7m-7-4.3c.4 0 .8.3.8.8V522c0 .4-.3.8-.8.8-.4 0-.8-.3-.8-.8V403.1c0-.4.3-.7.8-.7m52.3 52c.4 0 .8.3.8.8V574c0 .4-.3.8-.8.8-.4 0-.8-.3-.8-.8V455.2c0-.4.4-.8.8-.8m9 .4c.4 0 .8.3.8.8v118.8c0 .4-.3.8-.8.8-.4 0-.8-.3-.8-.8V455.5c0-.4.4-.7.8-.7m-4.9-127.4c.4 0 .8.3.8.8v105.9c0 .4-.3.8-.8.8-.4 0-.8-.3-.8-.8V328.2c0-.4.3-.8.8-.8m-52.2 1c.4 0 .8.3.8.8v66.5c0 .4-.3.8-.8.8-.4 0-.8-.3-.8-.8v-66.5c0-.5.3-.8.8-.8" class="st9"/><path id="Layer_14" d="M286.5 417.6c-2-.1-7.2-.5-12.6-.5-5.1 0-10.4.5-12.6.5l-.2-2.4 25.1-.6zm0 48.8c-2-.1-7.2-.5-12.6-.5-5.1 0-10.4.5-12.6.5l-.2-2.4 25.1-.6zm0 65.6c-2-.1-7.2-.5-12.6-.5-5.1 0-10.4.5-12.6.5l-.2-2.3 25.1-.6zm-46.7 19.3c-2-.1-7.2-.5-12.6-.5-5.1 0-10.4.5-12.6.5l-.2-2.4 25.1-.6zm-.2-74.1c-2-.1-7.2-.5-12.6-.5-5.1 0-10.4.5-12.6.5l-.2-2.4 25.1-.6zm.3-73.7c-2-.1-7.2-.5-12.6-.5-5.1 0-10.4.5-12.6.5l-.2-2.4 25.1-.6zm-.7-77.7c-2-.1-7.2-.5-12.6-.5-5.1 0-10.4.5-12.6.5l-.2-2.4 25.1-.6zm47.9 1.1c-2-.1-7.2-.5-12.6-.5-5.1 0-10.4.5-12.6.5l-.2-2.4 25.1-.6z" class="st11"/><g id="Layer_9"><path d="M214.2 346.5h71.5c2.9 0 5.2 2.3 5.2 5.2s-2.3 5.2-5.2 5.2h-71.5c-2.9 0-5.2-2.3-5.2-5.2s2.3-5.2 5.2-5.2" class="st22"/><path d="M214.2 356.8h71.5c2.9 0 5.2 2.3 5.2 5.2s-2.3 5.2-5.2 5.2h-71.5c-2.9 0-5.2-2.3-5.2-5.2 0-2.8 2.3-5.2 5.2-5.2m0 10.4h71.5c2.9 0 5.2 2.3 5.2 5.2s-2.3 5.2-5.2 5.2h-71.5c-2.9 0-5.2-2.3-5.2-5.2s2.3-5.2 5.2-5.2m1 201.4h70.6c2.9 0 5.2 2.3 5.2 5.2s-2.3 5.2-5.2 5.2h-70.6c-2.9 0-5.2-2.3-5.2-5.2s2.3-5.2 5.2-5.2" class="st22"/><path d="M215.2 579h70.6c2.9 0 5.2 2.3 5.2 5.2s-2.3 5.2-5.2 5.2h-70.6c-2.9 0-5.2-2.3-5.2-5.2s2.3-5.2 5.2-5.2" class="st22"/><path d="M215.1 589.4h70.6c2.9 0 5.2 2.3 5.2 5.2s-2.3 5.2-5.2 5.2h-70.6c-2.9 0-5.2-2.3-5.2-5.2s2.4-5.2 5.2-5.2" class="st22"/><path d="M213.1 356.4h74.6c.2 0 .4.2.4.4s-.2.4-.4.4h-74.6c-.2 0-.4-.2-.4-.4s.2-.4.4-.4m-.7 10.2H287c.2 0 .4.2.4.4s-.2.4-.4.4h-74.6c-.2 0-.4-.2-.4-.4-.1-.2.1-.4.4-.4m.8 222.3h73.6c.2 0 .4.2.4.4s-.2.4-.4.4h-73.6c-.2 0-.4-.2-.4-.4s.2-.4.4-.4m.3-10.4h73.6c.2 0 .4.2.4.4s-.2.4-.4.4h-73.6c-.2 0-.4-.2-.4-.4s.2-.4.4-.4" style="fill:#bcb872"/></g></g><g id="Layer_23"><path d="M234.6 43.5c5.8 4.2 10.8 9.5 14.5 15.6.4.7 1.5.1 1.1-.6-3.9-6.3-9-11.7-15-16-.7-.6-1.3.5-.6 1" class="st0"/><path d="M204.3 0h4.1C224.8 0 238 13.2 238 29.5v14.7c0 1.2-1 2.2-2.2 2.2h-4.1c-16.3 0-29.6-13.2-29.6-29.5V2.2c0-1.2 1-2.2 2.2-2.2" class="st1"/><path d="m237.3 45.9-5.7.6C215.3 46.5 202 33.3 202 17V2.2c.3-.2 6.6 12.7 15.7 23.8 8.9 11 19.9 19.6 19.6 19.9" class="st2"/><path d="M298 62c-.5 5.4-2.1 10.7-4.6 15.5-.4.7.7 1.3 1.1.6 2.6-5 4.2-10.5 4.7-16.2.1-.8-1.2-.8-1.2.1" class="st0"/><path d="m296.6 64-1.6-2.8c-6.2-10.8-2.6-24.6 8-31l9.5-5.7c.8-.5 1.8-.2 2.3.6l1.6 2.7c6.2 10.8 2.6 24.6-8 31l-9.5 5.7c-.8.5-1.8.3-2.3-.5" class="st1"/><path d="m297.6 64.7-2.5-3.5c-6.2-10.8-2.6-24.6 8-31l9.5-5.7c.2.1-5.7 9.3-9.5 19.6-3.7 10.1-5.2 20.7-5.5 20.6" class="st2"/><path d="M420.4 121.9c-.5 5.4-2.1 10.7-4.6 15.5-.4.7.7 1.3 1.1.6 2.6-5 4.2-10.5 4.8-16.2.1-.7-1.2-.7-1.3.1" class="st0"/><path d="m419.1 123.9-1.6-2.8c-6.2-10.8-2.6-24.6 8-31l9.5-5.7c.8-.5 1.8-.2 2.3.6l1.6 2.8c6.2 10.8 2.6 24.5-8 31l-9.5 5.7c-.8.5-1.8.2-2.3-.6" class="st1"/><path d="m420.1 124.6-2.5-3.5c-6.2-10.8-2.6-24.6 8-31l9.5-5.7c.2.1-5.7 9.3-9.5 19.6-3.8 10.1-5.2 20.7-5.5 20.6" class="st2"/><path d="M316.1 226c-.5 5.4-2.1 10.7-4.6 15.5-.4.7.7 1.3 1.1.6 2.6-5 4.2-10.5 4.7-16.2.2-.7-1.1-.7-1.2.1" class="st0"/><path d="m315.3 228.2-1.8-2.1c-6.9-8.2-2.9-18.7 8.9-23.6l10.6-4.3c.9-.4 2-.2 2.6.5l1.8 2.1c6.9 8.2 2.9 18.7-8.9 23.6l-10.6 4.3c-.9.3-2 .1-2.6-.5" class="st1"/><path d="m316.4 228.8-2.8-2.7c-6.9-8.2-2.9-18.7 8.9-23.7l10.6-4.4c.2.1-6.3 7.1-10.6 15-4.1 7.8-5.8 15.9-6.1 15.8" class="st2"/><path d="M321.5 74.4c-3.7-.2-7.4-1.1-10.8-2.8-.7-.4-1.4.7-.6 1.1 3.5 1.8 7.4 2.8 11.4 3 .8 0 .8-1.2 0-1.3" class="st0"/><path d="m320 75.6 1.9-1.9c7.6-7.7 17.9-4.6 22.8 7.1l4.5 10.5c.4.9.2 2.1-.3 2.7l-1.9 1.9c-7.6 7.7-17.8 4.6-22.8-7.1l-4.5-10.5c-.4-.9-.2-2 .3-2.7" class="st1"/><path d="m319.5 77.2 2.5-3.3c7.7-8.1 18-4.8 23 7.5l4.6 11.1c-.1.3-7-6.2-14.7-10.1s-15.4-4.9-15.4-5.2" class="st2"/><path d="M438.9 225.1c-3.7-.2-7.4-1.1-10.8-2.8-.7-.4-1.4.7-.6 1.1 3.5 1.8 7.4 2.8 11.4 3 .8-.1.8-1.3 0-1.3" class="st0"/><path d="m437.5 224.3 1.8-1.3c7.2-5.2 16.9-3.1 21.6 4.8l4.3 7.1c.3.6.2 1.4-.3 1.8L463 238c-7.2 5.2-16.9 3.1-21.6-4.8l-4.3-7.1c-.3-.6-.2-1.4.4-1.8" class="st1"/><path d="m437 225.1 2.3-2.1c7.2-5.2 16.9-3.1 21.6 4.8l4.3 7.1c-.1.2-6.6-4-13.8-6.5s-14.5-3.1-14.4-3.3" class="st2"/><path d="M435.1 288.3c-3.7-.2-7.4-1.2-10.8-2.9-.7-.4-1.4.7-.6 1.1 3.5 1.8 7.4 2.8 11.4 3 .8.1.8-1.1 0-1.2" class="st0"/><path d="m433.6 287.5 1.3-1.3c5.3-5.2 12.3-3.1 15.9 4.8l3.2 7c.3.6.1 1.4-.2 1.8l-1.3 1.3c1.5-1.5-9.4 9.7-15.9-4.8l-3.2-7c-.4-.6-.2-1.3.2-1.8" class="st1"/><path d="m433.2 288.5 1.7-2.2c5.3-5.4 12.4-3.2 16 5l3.2 7.3c-.1.2-4.9-4.1-10.2-6.7-5.4-2.6-10.7-3.2-10.7-3.4" class="st2"/><path d="M270.7 263.5c-3.8-.2-7.4-1.1-10.8-2.8-.7-.4-1.4.7-.6 1.1 3.5 1.8 7.4 2.8 11.4 3 .8 0 .8-1.2 0-1.3" class="st0"/><path d="m269.4 264.7 2-1.9c8-7.8 18.7-4.6 23.9 7.2l4.8 10.6c.4.9.2 2.1-.3 2.7l-2 1.9c2.3-2.2-14.2 14.6-23.9-7.2l-4.8-10.7c-.5-.8-.4-1.8.3-2.6" class="st1"/><path d="m268.8 265.9 2.5-3.1c8-7.8 18.7-4.6 23.9 7.2l4.8 10.6c-.1.3-7.3-6-15.3-9.7-7.9-3.8-16-4.5-15.9-5" class="st2"/><path d="M314.8 323.6c-3.8-.2-7.4-1.1-10.8-2.8-.7-.4-1.4.7-.6 1.1 3.5 1.8 7.4 2.8 11.4 3 .8 0 .8-1.3 0-1.3" class="st0"/><path d="m313.3 322.8 1.8-1.3c7.2-5.2 16.8-3.1 21.6 4.8l4.3 7.1c.4.6.2 1.4-.3 1.8l-1.8 1.3c2.1-1.5-12.8 9.8-21.6-4.8l-4.3-7.1c-.3-.6-.2-1.4.3-1.8" class="st1"/><path d="m312.8 323.6 2.3-2.1c7.2-5.2 16.8-3.1 21.6 4.8l4.3 7.1c-.1.2-6.6-4-13.8-6.5s-14.4-3.1-14.4-3.3" class="st2"/><path d="M480.4 303.1c-3.7-.2-7.4-1.1-10.8-2.8-.7-.4-1.4.7-.6 1.1 3.5 1.8 7.4 2.8 11.4 3 .8 0 .8-1.2 0-1.3" class="st0"/><path d="m479 304.5 2-2c8-8 18.6-4.8 23.9 7.4l4.8 10.9c.4.9.2 2.1-.3 2.8l-2 2c2.3-2.3-14.2 15-23.9-7.4l-4.8-10.9c-.5-.9-.3-2.2.3-2.8" class="st1"/><path d="m478.4 306.7 2.5-3.6c7.9-9 18.4-5.3 23.7 8.3l4.7 12.2c-.1.3-7.2-6.9-15.1-11.2s-15.8-5.4-15.8-5.7" class="st2"/><path d="M475.2 256.6c-3.7-.2-7.4-1.1-10.8-2.8-.7-.4-1.4.7-.6 1.1 3.5 1.8 7.4 2.8 11.4 3 .8 0 .8-1.2 0-1.3" class="st0"/><path d="m473.7 255.8 1.8-1.3c7.2-5.2 16.9-3.1 21.6 4.8l4.3 7.1c.4.6.2 1.4-.3 1.8l-1.8 1.3c2.1-1.5-12.8 9.8-21.6-4.8l-4.3-7.1c-.4-.6-.2-1.3.3-1.8" class="st1"/><path d="m473.2 256.6 2.3-2.1c7.2-5.2 16.9-3.1 21.6 4.8l4.3 7.1c-.1.2-6.6-4-13.8-6.5s-14.4-3.1-14.4-3.3" class="st2"/><path d="M370.9 176.2c-3.8-.2-7.4-1.1-10.8-2.8-.7-.4-1.4.7-.6 1.1 3.5 1.8 7.4 2.8 11.4 3 .8 0 .8-1.2 0-1.3" class="st0"/><path d="m369.5 175.5 1.8-1.3c7.2-5.2 16.9-3.1 21.6 4.8l4.3 7.1c.4.6.2 1.4-.3 1.8l-1.8 1.3c2.1-1.5-12.8 9.8-21.6-4.8l-4.3-7.1c-.4-.6-.3-1.4.3-1.8" class="st1"/><path d="M288 211c-3.7-.2-7.4-1.1-10.8-2.8-.7-.4-1.4.7-.6 1.1 3.5 1.8 7.4 2.8 11.4 3 .8 0 .8-1.3 0-1.3" class="st0"/><path d="m286.6 210.2 1.8-1.3c7.2-5.2 16.9-3.1 21.6 4.8l4.3 7.1c.3.6.2 1.4-.3 1.8l-1.8 1.3c2.1-1.5-12.8 9.8-21.6-4.8l-4.3-7.1c-.4-.6-.3-1.4.3-1.8" class="st1"/><path d="m286.1 211 2.3-2.1c7.2-5.2 16.9-3.1 21.6 4.8l4.3 7.1c-.1.2-6.6-4-13.8-6.5s-14.5-3.1-14.4-3.3" class="st2"/><path d="M340.7 237.8c-3.8-.2-7.4-1.1-10.8-2.8-.7-.4-1.4.7-.6 1.1 3.5 1.8 7.4 2.8 11.4 3 .8 0 .8-1.2 0-1.3" class="st0"/><path d="m339.2 237 1.8-1.3c7.2-5.2 16.8-3.1 21.6 4.8l4.3 7.1c.4.6.2 1.4-.3 1.8l-1.8 1.3c2.1-1.5-12.8 9.8-21.6-4.8l-4.3-7.1c-.3-.6-.2-1.4.3-1.8" class="st1"/><path d="m338.8 237.8 2.3-2.1c7.2-5.2 16.8-3.1 21.6 4.8l4.3 7.1c-.1.2-6.6-4-13.8-6.5s-14.4-3.1-14.4-3.3" class="st2"/><path d="M488.4 232.5c-.5 5.4-2.1 10.7-4.6 15.5-.4.7.7 1.4 1.1.6 2.6-5 4.2-10.5 4.7-16.2.2-.7-1.1-.7-1.2.1" class="st0"/><path d="m487.1 234.5-1.6-2.8c-6.2-10.8-2.6-24.5 8-31l9.5-5.7c.8-.5 1.8-.2 2.3.6v.1l1.6 2.8c6.2 10.8 2.6 24.6-8 31l-9.5 5.7c-.8.4-1.8.2-2.3-.7q0 .15 0 0" class="st1"/><path d="m488.1 235.3-2.5-3.5c-6.2-10.8-2.6-24.5 8-31l9.5-5.7c.2.1-5.7 9.3-9.5 19.6-3.8 10.1-5.3 20.7-5.5 20.6" class="st2"/><path d="M186.1 277.8c-.5 5.4-2.1 10.7-4.6 15.5-.4.7.7 1.3 1.1.6 2.6-5 4.2-10.5 4.8-16.2 0-.7-1.3-.7-1.3.1" class="st0"/><path d="m184.7 279.8-1.6-2.8c-6.2-10.8-2.6-24.5 8-30.9l9.6-5.7c.8-.5 1.8-.2 2.3.6v.1l1.6 2.8c6.2 10.8 2.6 24.6-8 31l-9.5 5.7c-.9.3-1.9 0-2.4-.8" class="st1"/><path d="m185.7 280.5-2.5-3.5c-6.2-10.8-2.6-24.5 8-30.9l9.6-5.7c.2.1-5.7 9.3-9.5 19.6-3.9 10-5.3 20.6-5.6 20.5" class="st2"/><path d="M49.8 216.3c-.5 5.4-2.1 10.7-4.6 15.5-.4.7.7 1.4 1.1.6 2.6-5 4.2-10.5 4.8-16.2 0-.7-1.2-.7-1.3.1" class="st0"/><path d="m48.5 218.3-1.6-2.8c-6.2-10.8-2.6-24.5 8-31l9.6-5.7c.8-.5 1.8-.2 2.3.6v.1l1.6 2.8c6.2 10.8 2.6 24.6-8 31l-9.5 5.6c-.9.5-1.9.3-2.4-.6 0 .1 0 0 0 0" class="st1"/><path d="m49.5 219.1-2.5-3.5c-6.2-10.8-2.6-24.5 8-31l9.6-5.7c.2.1-5.7 9.3-9.5 19.6-3.9 10.1-5.3 20.7-5.6 20.6" style="fill:none"/><path d="M57.9 309.7c-.5 5.4-2.1 10.7-4.6 15.5-.4.7.7 1.3 1.1.6 2.6-5 4.2-10.5 4.8-16.2 0-.7-1.2-.7-1.3.1" class="st0"/><path d="M56.6 311.7 55 309c-6.2-10.8-2.7-24.6 8-31l9.5-5.7c.8-.5 1.8-.2 2.3.6l1.6 2.8c6.2 10.8 2.6 24.6-8 31l-9.5 5.7c-.8.4-1.8.1-2.3-.7" class="st1"/><path d="M57.6 312.5 55 309c-6.2-10.8-2.7-24.6 8-31l9.5-5.7c.2.1-5.7 9.3-9.5 19.6-3.7 10-5.2 20.6-5.4 20.6" class="st2"/><path d="M139.6 147.6c-.4 3.7-1.6 7.3-3.4 10.5-.2.3 0 .7.3.8s.6 0 .8-.2c1.9-3.4 3.2-7.3 3.6-11.2 0-.7-1.3-.7-1.3.1" class="st0"/><path d="m138.7 149-1.2-1.9c-4.6-7.4-1.9-16.9 6-21.2l7.2-3.9c.6-.3 1.3-.1 1.7.4l1.2 1.9c4.6 7.4 1.9 16.9-6 21.2l-7.2 3.9c-.6.4-1.3.2-1.7-.4" class="st1"/><path d="m139.4 149.5-1.9-2.4c-4.6-7.4-1.9-16.9 6-21.2l7.2-3.9c.1.1-4.3 6.4-7.1 13.4s-4 14.2-4.2 14.1" class="st2"/><path d="M311.8 102.8c-.3 3-1.3 6-2.8 8.6-.4.7.7 1.3 1.1.6 1.6-2.9 2.6-6 2.9-9.3.1-.7-1.1-.7-1.2.1" class="st0"/><path d="m311.2 103.9-1-1.6c-3.6-5.8-1.7-13.5 4.1-17 .3-.2.5-.3.8-.4l5.8-3.2c.5-.3 1.1-.1 1.4.4l1 1.5c3.6 5.8 1.7 13.5-4.1 17.1-.2.2-.5.3-.8.4l-5.8 3.2c-.5.3-1.1.1-1.4-.4" class="st1"/><path d="m311.8 104.4-1.5-2c-3.6-5.8-1.7-13.5 4.1-17 .3-.2.5-.3.8-.4l5.8-3.2c.1.1-3.5 5.2-5.8 11s-3.2 11.6-3.4 11.6" class="st2"/><path d="M126.5 79.3c-.3 3-1.3 6-2.8 8.6-.4.7.7 1.3 1.1.6 1.6-2.9 2.6-6 2.9-9.3.2-.7-1.1-.7-1.2.1" class="st0"/><path d="m126.6 80.2-1.2-2.3c-4.4-8.8-2.1-20.4 5-25.7.4-.3.6-.5 1-.6l7-4.8c.6-.5 1.3-.2 1.7.6l1.2 2.3c4.4 8.9 2.1 20.4-5.1 25.7-.2.2-.6.5-.8.6l-7 4.8c-.7.3-1.4 0-1.8-.6" class="st1"/><path d="m127.3 80.8-1.9-3c-4.4-8.7-2.1-20.4 5-25.6.4-.3.6-.5 1-.6l7-4.8c.1.2-4.2 8-7 16.6s-3.9 17.6-4.1 17.4" class="st2"/><path d="M13.3 253.3c2.4 2.9 4.1 6.2 5.1 9.8.1.3.5.5.8.4s.4-.4.4-.7c-1.1-3.8-2.9-7.3-5.4-10.4-.5-.5-1.4.4-.9.9" class="st0"/><path d="m13.7 254.9-2.2-.5C3 252.5-1.8 243.9.7 235.3l2.3-7.8c.2-.6.8-1 1.5-.9l2.2.5c8.5 1.9 13.4 10.5 10.9 19.2l-2.3 7.8c-.3.5-.9.9-1.6.8" class="st1"/><path d="m14.6 254.8-3.1-.3C3 252.5-1.9 243.9.6 235.3l2.3-7.8c.2 0 1.5 7.5 4.5 14.5s7.4 12.7 7.2 12.8" class="st2"/><path d="M262.7 232.8c2.4 2.9 4.1 6.2 5.1 9.8.1.3.4.5.8.4.3-.1.5-.4.4-.8-1.1-3.8-2.9-7.3-5.4-10.4-.5-.5-1.4.4-.9 1" class="st0"/><path d="m263.1 234.4-2.2-.5c-8.5-1.9-13.4-10.5-10.9-19.2l2.3-7.8c.2-.7.8-1.1 1.5-.9l2.2.5c8.5 1.9 13.4 10.5 10.9 19.2l-2.3 7.9c-.2.5-.8.9-1.5.8" class="st1"/><path d="m264 234.3-3-.3c-8.5-1.9-13.4-10.5-10.9-19.2l2.3-7.8c.2-.1 1.5 7.5 4.5 14.5 3 6.9 7.3 12.6 7.1 12.8" class="st2"/><path d="M147 93c2.4 2.9 4.1 6.2 5.1 9.8.1.3.5.5.8.4s.4-.4.4-.7c-1.1-3.8-2.9-7.3-5.4-10.4-.5-.6-1.4.3-.9.9" class="st0"/><path d="m147.4 94.5-2.2-.5c-8.5-1.9-13.4-10.5-10.9-19.2l2.3-7.8c.2-.7.8-1.1 1.5-.9l2.2.5c8.5 1.9 13.4 10.5 10.9 19.2l-2.3 7.8c-.2.6-.9 1-1.5.9" class="st1"/><path d="m148.3 94.4-3.1-.3c-8.5-1.9-13.4-10.5-10.9-19.2l2.3-7.8c.2-.1 1.5 7.5 4.5 14.5s7.4 12.7 7.2 12.8" class="st2"/><path d="M275.3 56.3q3.6 4.35 5.1 9.9c.1.3.4.5.8.4.3-.1.5-.4.4-.8-1.1-3.8-2.9-7.3-5.4-10.4-.5-.6-1.4.2-.9.9" class="st0"/><path d="m275.7 57.8-2.2-.5c-8.5-1.9-13.4-10.5-10.9-19.2l2.3-7.8c.2-.7.8-1.1 1.5-.9l2.2.5c8.5 1.9 13.4 10.5 10.9 19.2l-2.3 7.8c-.2.6-.8 1-1.5.9" class="st1"/><path d="m276.6 57.7-3-.3c-8.5-1.9-13.4-10.5-10.9-19.2l2.3-7.8c.2-.1 1.5 7.5 4.5 14.5s7.3 12.7 7.1 12.8" class="st2"/><path d="M383.8 138.9c2.4 2.9 4.1 6.2 5.1 9.8.1.3.4.5.8.4.3-.1.5-.4.4-.8-1.1-3.8-2.9-7.3-5.4-10.4-.5-.5-1.4.4-.9 1" class="st0"/><path d="m384.2 140.5-2.2-.5c-8.5-1.9-13.4-10.5-10.9-19.2l2.3-7.8c.2-.7.8-1.1 1.5-.9l2.2.5c8.5 1.9 13.4 10.5 10.9 19.2l-2.3 7.8c-.2.6-.9 1-1.5.9" class="st1"/><path d="m385.1 140.3-3-.3c-8.5-1.9-13.4-10.5-10.9-19.2l2.3-7.8c.2-.1 1.5 7.5 4.5 14.5 2.9 7 7.2 12.7 7.1 12.8" class="st2"/><path d="M387.9 219.7c2.4 2.9 4.1 6.2 5.1 9.8.1.3.4.5.8.4.3-.1.5-.4.4-.8-1.1-3.8-2.9-7.3-5.4-10.4-.5-.5-1.4.4-.9 1" class="st0"/><path d="m388.3 221.2-2.2-.5c-8.5-1.9-13.4-10.5-10.9-19.2l2.3-7.8c.2-.7.8-1.1 1.5-.9l2.2.5c8.5 1.9 13.4 10.5 10.9 19.2l-2.2 7.8c-.3.7-1 1.1-1.6.9" class="st1"/><path d="m389.2 221.1-3-.3c-8.5-1.9-13.4-10.5-10.9-19.2l2.3-7.8c.2 0 1.5 7.5 4.5 14.5s7.2 12.7 7.1 12.8" class="st2"/><path d="M300 152.1c2.2 2 3.9 4.6 4.9 7.4.3.8 1.5.4 1.2-.3-1.1-3-2.9-5.8-5.2-8-.6-.5-1.5.4-.9.9" class="st0"/><path d="m300.4 153.2-2.1-.4c-8.2-1.5-12.9-8-10.5-14.6l2.2-6c.3-.5.9-.8 1.5-.7l2.1.4c8.2 1.4 12.9 8 10.5 14.6l-2.2 5.9c-.4.6-.9.9-1.5.8" class="st1"/><path d="m301.2 153.1-3-.3c-8.2-1.5-12.9-8-10.5-14.6l2.2-6c.2 0 1.5 5.7 4.4 11s7.1 9.8 6.9 9.9" class="st2"/><path d="M208 171.7c2.4 2.9 4.1 6.2 5.1 9.8.1.3.4.5.8.4.3-.1.5-.4.4-.8-1.1-3.8-2.9-7.3-5.4-10.4-.6-.5-1.4.4-.9 1" class="st0"/><path d="m208.4 173.3-2.2-.5c-8.5-1.9-13.4-10.5-10.9-19.2l2.3-7.8c.2-.7.8-1.1 1.5-.9l2.2.5c8.5 1.9 13.4 10.5 10.9 19.2l-2.3 7.8c-.2.6-.9 1-1.5.9" class="st1"/><path d="m209.2 173.1-3.1-.3c-8.5-1.9-13.4-10.5-10.9-19.2l2.3-7.8c.2-.1 1.5 7.5 4.5 14.5s7.4 12.7 7.2 12.8" class="st2"/><path d="M230.7 224.5c4.8 1.1 9.3 3 13.4 5.7.7.4 1.3-.6.6-1.1-4.2-2.8-8.8-4.8-13.7-5.8-.7-.2-1.1 1-.3 1.2" class="st0"/><path d="m232.7 225.8-2.2 1.2c-8.6 4.7-20.4.1-26.4-10.2l-5.4-9.3c-.5-.6-.3-1.5.4-2l2.2-1.2c8.6-4.7 20.4-.1 26.4 10.2l5.4 9.3c.4.7.2 1.6-.4 2" class="st1"/><path d="m233.3 225-2.8 2c-8.6 4.7-20.4.1-26.4-10.2l-5.4-9.3c.1-.2 8.2 6.1 17 10.6s17.6 6.7 17.6 6.9" class="st2"/><path d="M110 217.4c2.4 2.9 4.1 6.2 5.1 9.8.1.3.5.5.8.4s.4-.4.4-.7c-1.1-3.8-2.9-7.3-5.4-10.4-.5-.6-1.4.3-.9.9" class="st0"/><path d="m110.4 218.9-2.2-.5c-8.5-1.9-13.4-10.5-10.9-19.2l2.3-7.8c.2-.7.8-1.1 1.5-.9l2.2.5c8.5 1.9 13.4 10.5 10.9 19.2l-2.3 7.8c-.2.6-.8 1-1.5.9" class="st1"/><path d="m111.3 218.8-3.1-.3c-8.5-1.9-13.4-10.5-10.9-19.2l2.3-7.8c.2-.1 1.5 7.5 4.5 14.5s7.4 12.7 7.2 12.8" class="st2"/><path d="M126.9 223.5c.7 3.7.9 7.5.5 11.2-.1.8 1.2.8 1.2 0 .3-3.9.2-7.7-.6-11.5 0-.8-1.2-.4-1.1.3" class="st0"/><path d="m126.9 225.2-1.1-1.3c-4.7-5.1-5.4-14.9-1.6-21.9l3.5-6.3c.3-.5.8-.6 1.2-.2l1.2 1.3c4.7 5.1 5.4 14.9 1.6 21.9l-3.5 6.3c-.4.5-.9.6-1.3.2" class="st1"/><path d="m127.5 225.4-1.7-1.5c-4.7-5.1-5.4-14.9-1.6-21.9l3.5-6.3c.1 0-1.1 7.5-1.1 15.1s1.1 14.6.9 14.6" class="st2"/><path d="M99.9 137.5q3.6 4.35 5.1 9.9c.1.3.4.5.8.4.3-.1.5-.4.4-.8-1.1-3.8-2.9-7.3-5.4-10.4-.5-.6-1.4.3-.9.9" class="st0"/><path d="m100.2 139.1-2.2-.5c-8.5-1.9-13.4-10.5-10.9-19.2l2.3-7.8c.2-.7.8-1.1 1.5-.9l2.2.5c8.5 1.9 13.4 10.5 10.9 19.2l-2.2 7.8c-.2.6-.9 1-1.6.9" class="st1"/><path d="m101.1 138.9-3.1-.3c-8.5-1.9-13.4-10.5-10.9-19.2l2.3-7.8c.2 0 1.5 7.5 4.5 14.5 3.1 7 7.4 12.7 7.2 12.8" class="st2"/><path d="M121.4 311.4c2.4 2.9 4.1 6.2 5.1 9.8.1.3.4.5.8.4.3-.1.5-.4.4-.8-1.1-3.8-2.9-7.3-5.4-10.4-.6-.5-1.4.4-.9 1" class="st0"/><path d="m121.8 313-2.2-.5c-8.5-1.9-13.4-10.5-10.9-19.2l2.3-7.8c.2-.6.8-1 1.5-.9l2.2.5c8.5 1.9 13.4 10.5 10.9 19.2l-2.3 7.8c-.2.6-.8 1-1.5.9" class="st1"/><path d="m122.6 312.8-3.1-.3c-8.5-1.9-13.4-10.5-10.9-19.2l2.3-7.8c.2 0 1.5 7.5 4.5 14.5s7.4 12.7 7.2 12.8" class="st2"/><path d="M196 86.7c3.7.8 7.3 2.2 10.5 4.3.7.4 1.3-.6.6-1.1-3.3-2.1-7-3.6-10.8-4.4-.7-.2-1.1 1-.3 1.2" class="st0"/><path d="m197.6 87.6-1.7.9c-6.8 3.5-16.1.1-20.8-7.7l-4.2-7c-.4-.5-.3-1.2.2-1.5h.1l1.7-.9c6.8-3.5 16.1-.1 20.8 7.7l4.2 7c.3.4.2 1.1-.3 1.5" class="st1"/><path d="m198 87-2.2 1.5c-6.8 3.5-16.1.1-20.8-7.7l-4.2-7c.1-.1 6.4 4.6 13.4 8s13.9 5 13.8 5.2" class="st2"/><path d="M240.1 96.8c3.3 2 6.1 4.6 8.5 7.6.2.2.6.2.9 0 .2-.2.2-.6 0-.9-2.4-3.1-5.4-5.7-8.7-7.8-.3-.1-.7 0-.8.3-.2.3-.1.6.1.8" class="st0"/><path d="m241 98.1-2.7.4c-10.7 1.4-21.4-6.8-24-18.2L212 69.9c-.3-.8.3-1.5 1-1.7h.1l2.7-.4c10.7-1.4 21.4 6.8 24 18.2l2.3 10.3c.1.8-.3 1.5-1.1 1.8" class="st1"/><path d="m241.9 97.4-3.7.9c-10.7 1.5-21.5-7-24-18.8L212 68.9c.1-.1 6.4 8.6 14 15.9 7.6 7.2 16 12.5 15.9 12.6" class="st2"/><path d="M123.2 264.2c3.3 2 6.1 4.6 8.5 7.6.2.2.6.2.9 0 .2-.2.2-.6 0-.9-2.4-3.1-5.4-5.7-8.7-7.8-.3-.2-.7 0-.8.3-.2.3-.1.6.1.8" class="st0"/><path d="m124.4 265.6-1.9.3c-7.6 1.1-15.2-5.3-17-14.2l-1.7-8c-.2-.6.2-1.2.7-1.3h.1l1.9-.3c7.6-1.1 15.2 5.3 17 14.2l1.6 8.1c.2.4-.1 1-.7 1.2" class="st1"/><path d="m125 265.1-2.6.7c-7.6 1.1-15.2-5.3-17-14.2l-1.7-8.1c.1-.1 4.5 6.5 9.9 12 5.5 5.5 11.5 9.5 11.4 9.6" class="st2"/><path d="M31.5 217.3c3.3 2 6.1 4.6 8.5 7.6q.45.3.9 0 .3-.45 0-.9c-2.4-3.1-5.4-5.7-8.7-7.8-.3-.1-.7 0-.8.3-.2.4-.1.7.1.8" class="st0"/><path d="m32.7 218.7-1.9.3c-7.6 1.1-15.2-5.3-17-14.2l-1.7-8.1c-.2-.6.1-1.2.7-1.3h.1l1.9-.3c7.6-1.1 15.2 5.3 17 14.2l1.6 8.1c.2.5-.1 1.1-.7 1.3" class="st1"/><path d="m33.3 218.3-2.6.7c-7.6 1.1-15.2-5.3-17-14.2l-1.7-8.1c.1-.1 4.5 6.5 9.9 12s11.5 9.4 11.4 9.6" class="st2"/><path d="M240.8 175.4c3.3 2 6.1 4.6 8.5 7.6.3.2.7.2.9 0s.2-.6 0-.8c-2.4-3.1-5.4-5.7-8.7-7.8-.3-.1-.7 0-.8.3-.2.2-.1.6.1.7" class="st0"/><path d="m241.9 176.8-1.9.3c-7.6 1.1-15.2-5.3-17-14.2l-1.6-8.1c-.2-.6.2-1.2.7-1.3h.1l1.9-.3c7.6-1.1 15.2 5.3 17 14.2l1.6 8.1c.2.5-.1 1.1-.8 1.3q.15 0 0 0" class="st1"/><path d="m242.6 176.3-2.6.7c-7.6 1.1-15.2-5.3-17-14.2l-1.6-8.1c.1-.1 4.5 6.5 9.9 12s11.4 9.5 11.3 9.6" class="st2"/><path d="M237.5 140.9c3.7.8 7.3 2.2 10.5 4.3.7.4 1.3-.6.6-1.1-3.3-2.1-7-3.6-10.9-4.4-.7-.1-1 1-.2 1.2" class="st0"/><path d="m239.1 141.8-1.7.9c-6.8 3.5-16.1.1-20.8-7.7l-4.2-7c-.4-.5-.3-1.1.2-1.5h.1l1.7-.9c6.8-3.5 16.1-.1 20.8 7.7l4.2 7c.3.4.2 1.1-.3 1.5" class="st1"/><path d="m239.5 141.2-2.2 1.5c-6.8 3.5-16.1.1-20.8-7.7l-4.2-7c.1-.1 6.4 4.6 13.4 8s13.9 5.1 13.8 5.2" class="st2"/><path d="M190.8 187.5c.9-3.7 2.5-7.2 4.8-10.2.5-.6-.6-1.3-1.1-.6-2.4 3.1-4 6.7-4.9 10.5-.2.8 1 1.1 1.2.3" class="st0"/><path d="m191.9 186.2.9 2c3.6 7.9-.3 17-8.7 20.2l-7.6 2.9c-.6.2-1.3 0-1.6-.6l-.9-2c-3.6-7.9.3-17 8.7-20.2l7.6-2.9c.6-.3 1.3 0 1.6.6" class="st1"/><path d="m191.2 185.6 1.6 2.6c3.6 7.9-.3 17-8.7 20.2l-7.6 2.9c-.1-.1 5.1-5.8 8.8-12.4s5.7-13.4 5.9-13.3" class="st2"/><path d="M77.7 335.1q1.35-5.55 4.8-10.2c.5-.6-.6-1.3-1.1-.6-2.4 3.1-4.1 6.7-5 10.5-.1.7 1 1.1 1.3.3" class="st0"/><path d="m78.7 333.8.9 2c3.6 8-.3 17-8.7 20.2l-7.6 2.9c-.6.2-1.3 0-1.7-.6l-.9-2c-3.6-8 .3-17 8.7-20.2l7.6-2.9c.7-.3 1.4-.1 1.7.6" class="st1"/><path d="m78.1 333.1 1.6 2.6c3.6 8-.3 17-8.7 20.2l-7.6 2.9c-.1-.1 5.1-5.8 8.8-12.3s5.7-13.4 5.9-13.4" class="st2"/><path d="M134 339.5c3.2-4.5 5.7-9.4 7.6-14.6.3-.8-.9-1.1-1.2-.3-1.8 5.1-4.3 9.9-7.5 14.3-.4.6.7 1.2 1.1.6" class="st0"/><path d="m134.2 338.1 1.3 2.3c5.1 9.3-.4 19.7-12.3 23.4l-10.7 3.4c-.8.2-1.8 0-2.3-.7l-1.3-2.3c-5.1-9.3.4-19.7 12.3-23.4l10.7-3.4c.9-.3 1.9 0 2.3.7" class="st1"/><path d="m133.3 337.3 2.3 3c5.1 9.3-.4 19.8-12.3 23.5l-10.8 3.4c-.1-.1 7.2-6.8 12.6-14.3 5.3-7.6 7.9-15.6 8.2-15.6" class="st2"/><path d="M111.3 156.8c2.5-2.9 5.5-5.2 8.9-6.9.7-.4.1-1.4-.6-1.1-3.5 1.7-6.6 4.1-9.2 7.1-.5.7.4 1.5.9.9" class="st0"/><path d="m112.8 156.1-.1 2.2c-.4 8.7-8 15-17 14.1l-8.1-.9c-.7-.1-1.2-.6-1.2-1.3l.1-2.2c.4-8.7 8-15 17-14.1l8.1.9c.7 0 1.2.6 1.2 1.3" class="st1"/><path d="m112.5 155.2.2 3.1c-.4 8.7-8 15-17 14.1l-8.1-.9c-.1-.1 7.2-2.8 13.5-7s11.3-9.4 11.4-9.3" class="st2"/><path d="M144.9 178.4c3.9-4.5 8.7-8.2 14-10.8.7-.4.1-1.4-.6-1.1-5.4 2.7-10.3 6.4-14.3 11-.5.6.4 1.5.9.9" class="st0"/><path d="m146.3 179-.1 3.6c-.5 14.2-9.5 24.5-20.2 23.1l-9.6-1.5c-.8-.2-1.4-1-1.4-2.1l.1-3.6c.5-14.2 9.5-24.5 20.2-23.1l9.6 1.5c.8-.1 1.4.9 1.4 2.1" class="st1"/><path d="m146.1 176.6.2 5.2c-.5 14.7-9.6 25.3-20.3 23.8l-9.7-1.5c-.1-.2 8.6-4.7 16.1-11.8 7.6-7.1 13.4-15.9 13.7-15.7" class="st2"/><path d="M319.1 172.1c-1.1 2.8-2.8 5.3-5 7.3-.6.5.3 1.4.9.9 2.4-2.2 4.2-4.9 5.4-7.9.1-.3-.1-.7-.4-.8-.4 0-.7.2-.9.5" class="st0"/><path d="m318.9 172-.7-3.6c-3.1-13.9 4.3-25.4 16.2-25.8l10.7-.3c1 0 1.9.8 2 1.9l.7 3.6c3.1 13.9-4.3 25.4-16.2 25.8l-10.7.3c-1-.2-1.9-.8-2-1.9" class="st1"/><path d="m319.6 173.6-1.5-4.8c-3.1-14.1 4.3-25.8 16.3-26.1l10.8-.3c.2.2-8.2 6-14.7 14.1-6.6 8-10.5 17.3-10.9 17.1" class="st2"/><path d="M403.8 205.6c-1.1 2.8-2.8 5.3-5 7.3-.6.5.3 1.4.9.9 2.4-2.2 4.2-4.9 5.4-7.9.1-.3-.1-.7-.4-.8-.4 0-.8.2-.9.5" class="st0"/><path d="m403.4 205.6-.7-3.4c-3-13.4 4.1-24.5 15.7-24.8l10.4-.3c1 0 1.8.8 2 1.8l.7 3.4c3 13.4-4.1 24.5-15.7 24.8l-10.4.3c-1-.2-1.6-.8-2-1.8" class="st1"/><path d="m403.5 207-1-3c-2-8.9 2.8-16.3 10.5-16.5l6.9-.2c.1.1-5.3 3.8-9.5 8.9s-6.8 11-6.9 10.8" class="st2"/><path d="M352.3 213.1c-.2 4.4-1.1 8.7-2.7 12.7-.3.7.9 1.1 1.2.3 1.6-4.2 2.5-8.6 2.7-13.1.1-.7-1.1-.7-1.2.1" class="st0"/><path d="m351.7 214.5-1-2.7c-4.1-10.6-2.1-22 4.5-25.4l6-3.1c.5-.3 1.2.2 1.5 1l1 2.7c4.1 10.6 2.1 22-4.5 25.4l-6 3.1c-.5.2-1.2-.2-1.5-1" class="st1"/><path d="m352.4 215.3-1.7-3.6c-4.1-10.6-2.1-22 4.5-25.4l6-3.1c.1.1-3.5 7-5.7 15.2-2.2 8.1-2.9 17.1-3.1 16.9" class="st2"/><path d="M111.4 235.4c3.4-1.5 7.1-2.6 10.8-3.1.8-.1.5-1.3-.3-1.2-3.8.5-7.6 1.6-11.1 3.2-.7.3-.1 1.4.6 1.1" class="st0"/><path d="m113 235-1 1.5c-3.9 5.8-13.3 8.7-21 6.5l-6.9-2c-.6-.2-.8-.6-.5-1.1l1-1.5c3.9-5.8 13.3-8.7 21-6.5l6.9 2c.6.2.8.6.5 1.1" class="st1"/><path d="m113.1 234.3-1.1 2.1c-3.9 5.8-13.3 8.7-21 6.5l-6.9-2c0-.1 7.6-.7 14.9-2.4s14.1-4.3 14.1-4.2" class="st2"/></g><g id="Layer_25"><path d="M387.4 318.9c-6.5-2.6-12.3-6.8-16.8-12.2-.5-.6-1.4.3-.9.9 4.7 5.6 10.6 9.9 17.4 12.5.7.3 1.1-.9.3-1.2" class="st0"/><path d="m386.3 317.7 2.1-.7c8.4-2.9 17 2 19.2 10.9l2 8.1c.2.7-.2 1.4-.8 1.6l-2.1.7c2.5-.8-15.1 5.7-19.2-10.9l-2-8.1c-.2-.6.1-1.3.8-1.6" class="st1"/><path d="m385.6 318.3 2.8-1.3c8.4-2.9 17 2 19.2 10.9l2 8.1c-.1.1-5.2-5.8-11.3-10.2s-12.8-7.3-12.7-7.5" class="st2"/><path d="M297.9 119.6c-3.1-.1-6.1-.8-8.9-2.1-.7-.3-1.4.7-.6 1.1 3 1.4 6.3 2.2 9.6 2.3.7 0 .7-1.3-.1-1.3" class="st0"/><path d="m296.6 119.1 1.5-1c5.9-4 13.9-2.4 17.9 3.5 0 .1.1.1.1.2l3.6 5.5c.3.5.2 1.1-.3 1.4l-1.5 1c1.8-1.2-10.7 7.6-18-3.7l-3.6-5.5c-.2-.5-.1-1.1.3-1.4" class="st1"/><path d="m296.2 119.7 1.9-1.6c5.9-4 13.9-2.4 17.9 3.5 0 .1.1.1.1.2l3.6 5.5c-.1.1-5.5-3.1-11.5-5s-12-2.4-12-2.6" class="st2"/></g><text class="st25 st26 st27" transform="rotate(-49.998 419.147 -335.623)">Jaap &amp;</text><text class="st25 st26 st27" transform="rotate(-49.998 430.727 -341.023)">Thea</text><text class="st25 st26 st27" transform="rotate(-45 300.716 -44.625)">Eelco &amp;</text><text class="st25 st26 st27" transform="rotate(-45 311.838 -52.234)">Cootje</text><text class="st25 st26 st28" transform="rotate(-13.557 1044.822 -259.018)">Gertjan</text><text class="st25 st26 st28" transform="rotate(-13.557 1070.065 -262.018)">Schoon</text><text class="st25 st26 st29" transform="rotate(-44.275 497.446 42.537)">Hessel</text><text class="st25 st26 st29" transform="rotate(-44.275 509.245 37.737)">&amp; Hylkje</text><text class="st25 st26 st27" transform="rotate(45.413 -117.317 733.43)">Rogier</text><text class="st25 st26 st27" transform="rotate(45.413 -130.222 728.03)">&amp; Elske</text><text class="st25 st26 st29" transform="rotate(36.976 51.974 523.39)">Nadine</text><text class="st25 st26 st29" transform="rotate(36.976 37.617 518.59)">&amp; Lotus</text><text class="st25 st26 st27" transform="rotate(40.836 8.632 326.375)">Mariska</text><text class="st25 st26" style="font-size:5.9994px" transform="rotate(40.937 -214.837 501.355)">Familie</text><text class="st25 st26" style="font-size:8.9988px" transform="rotate(40.937 -224.784 495.794)">Crevels</text><text class="st25 st26 st32" transform="rotate(-34.55 508.09 -390.425)">Marleen</text><text class="st25 st26 st32" transform="rotate(-34.55 523.524 -395.226)">&amp; Xander</text><text class="st25 st26" style="font-size:5px" transform="rotate(34.43 -249.374 842.055)">Bernadette</text><text class="st25 st26 st34" transform="rotate(-53 328.965 -237.206)">Peter &amp;</text><text class="st25 st26 st34" transform="rotate(-53 339.795 -242.605)">Leonoor</text><text class="st25 st35 st36" transform="rotate(-58 214.567 62.92)">Xander &amp;</text><text class="st25 st35 st36" transform="rotate(-58 224.309 57.52)">Marleen</text><text class="st25 st35 st27" transform="rotate(-70.998 120.153 -53.103)">Anneke</text><text class="st25 st35 st27" transform="rotate(21.001 -472.647 662.392)">Peter</text><text class="st25 st35 st27" transform="translate(417.358 106.233)">Sylvia</text><text class="st25 st35 st37" transform="translate(436.73 195.634)">Lieke</text><text class="st25 st35 st37" transform="translate(436.73 202.834)">&amp; Luuk</text><text class="st25 st35 st38" transform="rotate(-55 348.386 -45.906)">Pedro</text><text class="st25 st35 st38" transform="rotate(-55 358.758 -51.306)">Croes</text><text class="st25 st35 st27" transform="rotate(-67.002 190.528 -197.762)">Marnix</text><text class="st25 st35 st27" transform="rotate(-67.002 198.686 -203.162)">&amp; Sylvie</text><text class="st25 st35 st37" transform="rotate(25 -310.715 939.727)">Familie Van</text><text class="st25 st35 st37" transform="rotate(25 -326.953 936.126)">Nieuwenborg</text><text class="st25 st35 st27" transform="rotate(-63 430.926 -288.476)">Maarten</text><text class="st25 st35 st37" transform="rotate(28.003 -139.698 486.931)">Patricia, Leon,</text><text class="st25 st35 st37" transform="rotate(28.003 -154.135 483.332)">Pepijn &amp; Siem</text><text class="st25 st35 st37" transform="rotate(32.997 -373.31 677.48)">Floris, Linda,</text><text class="st25 st35 st37" transform="rotate(32.997 -385.464 673.88)">Oliver &amp; Raoul</text><text class="st25 st35 st39" transform="rotate(17.998 -219.473 999.395)">Familie</text><text class="st25 st35 st39" transform="rotate(17.998 -242.205 995.795)">Zeetjes</text><text class="st25 st35 st40" transform="rotate(47.002 -264.097 123.315)">Rien</text><text class="st25 st35 st40" transform="rotate(47.002 -275.136 118.514)">Koole</text><text class="st25 st35 st37" transform="rotate(30 -261.29 741.493)">Peter &amp; Karin</text><text class="st25 st35 st37" transform="rotate(30 -274.726 737.893)">van Asten</text><text class="st25 st35 st27" transform="rotate(67.002 -43.13 124.274)">Rianne</text><text class="st25 st35 st27" transform="rotate(-61.997 279.656 102.002)">Phéline</text><text class="st25 st35 st27" transform="rotate(-61.997 288.643 96.603)">&amp; Julia</text><text class="st25 st35 st27" transform="rotate(-51.998 303.37 -78.284)">Baukje</text><text class="st25 st35 st38" transform="rotate(254.003 244.39 -77.896)">Andie</text><text class="st25 st35 st38" transform="rotate(42.893 -37.567 562.197)">Merel</text><text class="st25 st35 st38" transform="rotate(42.893 -90.823 361.524)">Lauke</text><text class="st25 st35 st27" transform="rotate(-33.461 377.76 -247.538)">Gijs</text><text class="st25 st35 st27" transform="rotate(-61.682 196.877 -41.929)">Yvonne</text></svg>