<?xml version="1.0" encoding="UTF-8"?>
<svg version="1.1" viewBox="0 0 714.24 596.02" xml:space="preserve" xmlns="http://www.w3.org/2000/svg" xmlns:cc="http://creativecommons.org/ns#" xmlns:dc="http://purl.org/dc/elements/1.1/" xmlns:rdf="http://www.w3.org/1999/02/22-rdf-syntax-ns#"><metadata><rdf:RDF><cc:Work rdf:about=""><dc:format>image/svg+xml</dc:format><dc:type rdf:resource="http://purl.org/dc/dcmitype/StillImage"/><dc:title/></cc:Work></rdf:RDF></metadata><g transform="matrix(1.3333 0 0 -1.3333 951.18 682.91)"><path d="m-231.44 145.41v7.7841l-1.1251-0.32677c-0.61857-0.17972-6.4128-2.8947-12.876-6.0329-14.393-6.9892-17.793-8.2148-23.763-8.5669-5.4943-0.32398-6.0598 0.0416-5.1057 3.3001l0.61751 2.1076 42.002 17.777 0.15831 23.964c0.28752 43.523-0.4919 176.45-1.0292 175.49-0.27332-0.48846-1.4618-3.6172-2.641-6.9527-3.1765-8.9849-4.076-11.109-5.9411-14.024-2.7021-4.2243-3.9704-4.7544-13.33-5.5742-13.57-1.1884-19.904 0.5074-26.126 6.9942-5.6483 5.8893-9.3442 18.427-9.3442 31.699v3.4476l-3.6252 0.28019c-1.994 0.1541-4.2437 0.51868-5.0001 0.81004-1.3047 0.50244-1.3776 0.70269-1.4248 3.9171-0.0272 1.8632-0.19596 4.5762-0.37502 6.029l-0.32557 2.6416-3.9446 1.7116c-4.7063 2.0422-5.9903 3.154-7.1684 6.2063-0.80565 2.0878-0.88713 4.4913-0.88177 26.051 5e-3 20.301 0.13092 24.441 0.86783 28.501 2.1623 11.912 3.444 12.938 16.701 13.372l7.5737 0.24778 0.29421 5.8159c0.16182 3.1987 0.43629 10.597 0.61 16.441l0.31572 10.626 12.317 9e-4c6.7746 4.6e-4 19.237 0.14928 27.693 0.33068l15.376 0.32983v12.377l9.2508-0.28754 0.50002-140.51 4.1842-5.7503c6.9766-9.5871 10.084-15.5 10.785-20.521 0.50793-3.6416-0.17021-5.0886-2.8506-6.0839l-2.3119-0.8583-1.1793 2.606c-0.64859 1.4334-2.8549 6.3986-4.903 11.034l-3.7238 8.4282-0.12625-98.907c-0.0694-54.399 0.0431-99.073 0.25001-99.276 0.20695-0.20338 4.8762-2.0413 10.377-4.0849 17.975-6.6773 26.9-10.82 30.838-14.314l2.143-1.902-0.98951-1.8713c-0.54407-1.0292-1.264-1.9809-1.5995-2.1144-1.0656-0.42418-7.7377 0.92459-12.141 2.454-2.3376 0.81184-8.5277 3.5816-13.756 6.1543-9.8883 4.8662-14.008 6.7453-14.787 6.7453-0.25836 0-0.45857-3.384-0.45857-7.7504v-7.7504h-10zm-18.255 197.15c1.2779 0.34177 1.6558 1.0906 4.5659 9.0552 3.63 9.9329 5.6479 13.375 10.703 18.255l3.4858 3.3655-4.1e-4 25.079c-2.2e-4 13.794-0.14968 40.099-0.33211 58.456l-0.33171 33.377h-45.838v-23.841l3.4638-0.6188c6.0342-1.0784 9.6089-4.1472 10.538-9.0469 1.9544-10.306 1.9238-49.621-0.0454-58.106-0.63573-2.7382-3.221-5.3982-6.6936-6.8868-2.4089-1.0324-2.3489-0.83936-3.0436-9.8373l-0.31516-4.0818-3.0768-0.31982c-1.6922-0.1759-3.7248-0.44475-4.5166-0.59761l-1.4398-0.27761 0.33772-4.8214c1.0512-15.009 4.1054-23.103 10.192-27.008 3.9441-2.5307 6.9121-3.1062 14.403-2.7923 3.6037 0.15111 7.1787 0.44242 7.9448 0.6474zm-30.748 45.083v3.0002h-12.501v-6.0004h12.501zm7.4094 13.632c0.65449 0.54213 0.70434 3.9496 0.40048 27.329-0.31682 24.382-0.42169 26.767-1.2034 27.36-0.65021 0.49387-3.9591 0.65443-13.757 0.66661l-12.901 0.0159-0.70273-1.6814c-1.1412-2.7309-1.7206-7.4224-2.3114-18.718-0.7022-13.416 0.0709-33.025 1.3808-35.024l0.81047-1.2372 13.768 0.33447c9.7787 0.23754 13.985 0.51371 14.516 0.95391zm-23.41 15.387c-1.2377 0.20169 0.89999 0.2504 4.7503 0.10824s7.0941-0.34097 7.2087-0.4418c0.3689-0.32463-9.6318-0.0457-11.959 0.33356zm0 10.501c-1.2377 0.20168 0.89999 0.25039 4.7503 0.10824 3.8503-0.14216 7.0941-0.34097 7.2087-0.4418 0.3689-0.32464-9.6318-0.0457-11.959 0.33356zm0 9.5005c-1.2377 0.20169 0.89999 0.2504 4.7503 0.10824 3.8503-0.14215 7.0941-0.34097 7.2087-0.4418 0.3689-0.32463-9.6318-0.0457-11.959 0.33356zm1.599 8.9805c-1.7335 0.1957-3.4097 0.61384-3.7254 0.92955-0.43157 0.43158 1.4291 0.57371 7.511 0.57371 6.981 0 8.0455-0.1024 7.7969-0.75006-0.21686-0.56513-1.1273-0.75005-3.6938-0.75005-1.8734 0-3.7056-0.0808-4.0717-0.17947-0.36626-0.0987-2.0841-0.0194-3.8171 0.17632z" fill="#020202" stroke-width=".50003"/></g><g><g fill="#ee172c" aria-label="e c u a d o r"><path d="m194.44 585.21q-3.52 4.4587-9.6213 7.04-5.984 2.464-12.32 2.464-5.984 0-11.147-1.9947-5.0453-2.112-8.6827-5.8667-3.6373-3.7547-5.7493-8.9173-1.9947-5.28-1.9947-11.616 0-5.8667 1.8773-11.029 1.9947-5.1627 5.3973-9.0347 3.4027-3.872 8.2133-6.1013 4.8107-2.2293 10.56-2.2293 5.5147 0 10.208 1.9947 4.8107 1.8773 8.2133 5.632 3.52 3.7547 5.3973 9.3867 1.9947 5.5147 1.9947 12.789h-45.995q0.11734 4.576 1.76 8.6827 1.6427 3.9893 4.4587 7.04 2.816 2.9333 6.688 4.6933 3.9893 1.6427 8.8 1.6427 2.464 0 5.0453-0.46934 2.6987-0.58666 5.1627-1.6427t4.4587-2.464q2.112-1.408 3.52-3.168zm-3.4027-22.059q-1.056-9.9733-6.336-15.136-5.28-5.1627-13.728-5.1627-4.3413 0-7.9787 1.6427-3.52 1.5253-6.1013 4.3413-2.5813 2.6987-4.224 6.4533-1.5253 3.6373-1.76 7.8613z" style="font-feature-settings:normal;font-variant-caps:normal;font-variant-ligatures:normal;font-variant-numeric:normal"/><path d="m277.27 585.33q-3.4027 4.1067-8.9173 6.8053-5.3973 2.5813-12.437 2.5813-5.8667 0-10.912-2.112-4.928-2.2293-8.5653-5.984-3.6373-3.872-5.632-9.0347-1.9947-5.28-1.9947-11.264t1.9947-11.147q2.112-5.28 5.7493-9.0347 3.6373-3.872 8.5653-5.984 5.0453-2.2293 10.795-2.2293 7.1573 0 12.085 2.5813 5.0453 2.464 8.5653 6.9227l-3.9893 3.0507q-2.6987-3.52-6.8053-5.5147-3.9893-2.112-9.856-2.112-4.6933 0-8.6827 1.8773-3.872 1.8773-6.8053 5.0453-2.816 3.168-4.4587 7.5093-1.5253 4.224-1.5253 9.0347t1.6427 9.152q1.6427 4.224 4.4587 7.392 2.9333 3.168 6.8053 5.0453 3.9893 1.8773 8.5653 1.8773 5.8667 0 10.325-2.112 4.576-2.112 7.2747-5.632z" style="font-feature-settings:normal;font-variant-caps:normal;font-variant-ligatures:normal;font-variant-numeric:normal"/><path d="m310.36 539.34h5.28v29.92q0 5.984 0.93867 9.9733 1.056 3.9893 3.0507 6.336 1.9947 2.3467 4.928 3.2853 2.9333 0.93867 6.8053 0.93867 5.0453 0 8.8-2.112t6.1013-5.3973q2.464-3.2853 3.6373-7.2747 1.1733-3.9893 1.1733-7.8613v-27.808h5.28v42.592q0 2.3467 0 3.872 0 1.5253 0 2.816 0 1.1733 0 2.3467 0.11733 1.056 0.23467 2.3467h-4.928q-0.11734-1.2907-0.23467-2.3467 0-1.056-0.11733-2.2293 0-1.2907 0-2.816 0-1.5253 0-3.872-0.93867 1.76-2.5813 3.9893-1.6427 2.2293-4.1067 4.224-2.464 1.8773-5.984 3.168-3.4027 1.2907-7.9787 1.2907-5.7493 0-9.6213-1.6427t-6.336-4.6933q-2.3467-3.168-3.4027-7.5093-0.93867-4.3413-0.93867-9.856z" style="font-feature-settings:normal;font-variant-caps:normal;font-variant-ligatures:normal;font-variant-numeric:normal"/><path d="m430.51 565.74q-2.464-0.58666-6.2187-0.93866-3.6373-0.46934-9.3867-0.46934-5.984 0-9.504 1.5253-3.52 1.408-5.3973 3.6373-1.76 2.112-2.3467 4.6933-0.46933 2.464-0.46933 4.4587 0 5.984 3.872 8.6827 3.9893 2.5813 10.091 2.5813 3.9893 0 7.5093-1.408t6.1013-3.7547q2.6987-2.3467 4.224-5.28 1.5253-3.0507 1.5253-6.1013zm0.46933 27.573q-0.11733-1.6427-0.23466-3.6373 0-1.9947 0-5.3973-2.112 3.0507-4.6933 5.1627-2.5813 1.9947-5.28 3.168-2.5813 1.1733-5.28 1.6427-2.6987 0.46934-4.928 0.46934-3.4027 0-6.8053-0.704t-6.1013-2.464q-2.6987-1.8773-4.4587-4.928-1.6427-3.168-1.6427-7.9787 0-3.872 1.2907-7.2747 1.2907-3.52 4.1067-5.984 2.816-2.5813 7.2747-3.9893 4.4587-1.5253 10.795-1.5253 4.928 0 8.8 0.352t6.5707 0.82133v-3.0507q0-4.4587-1.056-7.392t-3.168-4.6933-5.1627-2.464-7.04-0.704q-6.688 0-10.677 1.9947-3.872 1.8773-5.984 3.6373l-2.816-3.6373q2.2293-2.112 7.1573-4.4587 5.0453-2.3467 12.203-2.3467 10.56 0 16.192 4.4587 5.632 4.4587 5.632 14.784v24.875q0 2.3467 0 4.4587 0 1.9947 0.11733 3.52l0.23467 3.2853z" style="font-feature-settings:normal;font-variant-caps:normal;font-variant-ligatures:normal;font-variant-numeric:normal"/><path d="m514.76 593.31q-0.11734-1.6427-0.23467-4.3413 0-2.816 0-5.0453-1.8773 3.2853-4.6933 5.3973-2.464 1.9947-6.2187 3.7547-3.7547 1.6427-9.0347 1.6427-6.2187 0-10.795-2.112-4.576-2.2293-7.6267-5.984-2.9333-3.7547-4.4587-8.8-1.408-5.1627-1.408-11.029 0-6.5707 1.9947-11.851 2.112-5.3973 5.7493-9.152 3.7547-3.7547 8.8-5.7493 5.1627-2.112 11.264-2.112 3.4027 0 6.2187 0.82133 2.9333 0.82134 5.28 1.76 2.464 1.056 4.928 2.5813v-28.043h5.1627v66.997q0 3.4027 0 5.7493 0 2.2293 0.23466 5.5147zm-0.23467-44.469q-1.9947-1.76-4.1067-2.9333-1.9947-1.1733-5.1627-2.112-3.168-0.93867-7.2747-0.93867-4.224 0-8.2133 1.408-3.872 1.2907-7.04 4.224-3.0507 2.9333-4.928 7.5093-1.8773 4.576-1.8773 10.912 0 4.576 1.056 8.6827 1.056 4.1067 3.2853 7.2747 2.3467 3.168 5.984 5.0453 3.6373 1.8773 8.9173 1.8773 4.928 0 8.5653-1.76 3.6373-1.8773 5.984-4.576 2.464-2.6987 3.6373-5.632 1.1733-3.0507 1.1733-5.3973z" style="font-feature-settings:normal;font-variant-caps:normal;font-variant-ligatures:normal;font-variant-numeric:normal"/><path d="m582.46 594.72q-5.7493 0-10.795-2.2293-5.0453-2.2293-8.9173-6.1013-3.7547-3.872-5.984-9.0347-2.112-5.1627-2.112-11.029t2.112-11.029q2.2293-5.1627 5.984-9.0347 3.872-3.872 8.9173-6.1013 5.0453-2.2293 10.795-2.2293t10.795 2.2293q5.0453 2.2293 8.8 6.1013 3.872 3.872 5.984 9.0347 2.2293 5.1627 2.2293 11.029t-2.2293 11.029q-2.112 5.1627-5.984 9.0347-3.7547 3.872-8.8 6.1013-5.0453 2.2293-10.795 2.2293zm0-4.8107q4.6933 0 8.8-1.8773 4.1067-1.8773 7.04-5.0453 3.0507-3.168 4.6933-7.392 1.76-4.3413 1.76-9.2693 0-4.6933-1.76-8.9173-1.76-4.3413-4.8107-7.6267-2.9333-3.2853-7.04-5.1627-4.1067-1.8773-8.6827-1.8773-4.8107 0-8.9173 1.8773-3.9893 1.8773-7.04 5.0453-2.9333 3.168-4.6933 7.5093-1.6427 4.224-1.6427 9.152 0 4.8107 1.76 9.0347t4.6933 7.5093q3.0507 3.2853 7.1573 5.1627 4.1067 1.8773 8.6827 1.8773z" style="font-feature-settings:normal;font-variant-caps:normal;font-variant-ligatures:normal;font-variant-numeric:normal"/><path d="m645.23 550.72q0-2.2293 0-3.7547 0-1.6427 0-2.816 0-1.2907-0.11733-2.3467 0-1.1733-0.11733-2.464h4.928q0.11733 1.2907 0.11733 2.464 0.11733 1.1733 0.11733 2.5813 0.11734 1.2907 0.11734 2.9333 0 1.6427 0 3.872 0.93866-1.76 2.464-3.872 1.6427-2.2293 4.1067-4.1067t5.7493-3.168q3.2853-1.2907 7.6267-1.2907 2.5813 0 4.4587 0.82134l-1.5253 5.0453q-0.82134-0.352-1.9947-0.46933-1.056-0.11734-1.9947-0.11734-4.224 0-7.6267 1.8773-3.4027 1.8773-5.8667 4.928-2.464 3.0507-3.872 7.04-1.2907 3.872-1.2907 7.8613v27.573h-5.28z" style="font-feature-settings:normal;font-variant-caps:normal;font-variant-ligatures:normal;font-variant-numeric:normal"/></g>
</g><g fill="#ee172c" stroke-width=".75"><g transform="matrix(1.3333 0 0 1.3333 951.18 682.91)" aria-label="Care"><path d="m-538.3-156.94q-0.99 1.65-3.795 5.115-2.64 3.465-7.59 7.095-4.785 3.465-11.88 6.105t-16.83 2.64q-11.88 0-21.78-4.29-9.735-4.455-16.83-12.21-6.93-7.755-10.725-18.315t-3.795-22.935q0-12.045 3.795-22.44 3.795-10.56 10.725-18.315 7.095-7.92 16.83-12.375 9.9-4.455 21.78-4.455 9.735 0 16.83 2.64t11.88 6.27q4.95 3.465 7.59 6.93 2.805 3.465 3.795 5.115l-5.94 4.125q-0.99-1.32-3.3-4.125-2.145-2.97-6.27-5.94-3.96-2.97-9.9-5.28t-14.355-2.31q-10.56 0-18.975 3.96-8.25 3.795-14.025 10.56t-8.91 16.005q-2.97 9.075-2.97 19.635t3.135 19.8q3.135 9.075 8.91 16.005 5.775 6.765 14.19 10.725 8.415 3.795 19.14 3.795 7.755 0 13.53-2.31 5.94-2.31 9.9-5.28 4.125-2.97 6.435-5.775 2.475-2.97 3.465-4.29z" style="font-feature-settings:normal;font-variant-caps:normal;font-variant-ligatures:normal;font-variant-numeric:normal"/><path d="m-467.18-177.4q-3.465-0.825-8.745-1.32-5.115-0.66-13.2-0.66-8.415 0-13.365 2.145-4.95 1.98-7.59 5.115-2.475 2.97-3.3 6.6-0.66 3.465-0.66 6.27 0 8.415 5.445 12.21 5.61 3.63 14.19 3.63 5.61 0 10.56-1.98t8.58-5.28q3.795-3.3 5.94-7.425 2.145-4.29 2.145-8.58zm0.66 38.775q-0.165-2.31-0.33-5.115 0-2.805 0-7.59-2.97 4.29-6.6 7.26-3.63 2.805-7.425 4.455-3.63 1.65-7.425 2.31t-6.93 0.66q-4.785 0-9.57-0.99t-8.58-3.465q-3.795-2.64-6.27-6.93-2.31-4.455-2.31-11.22 0-5.445 1.815-10.23 1.815-4.95 5.775-8.415 3.96-3.63 10.23-5.61 6.27-2.145 15.18-2.145 6.93 0 12.375 0.495t9.24 1.155v-4.29q0-6.27-1.485-10.395t-4.455-6.6-7.26-3.465-9.9-0.99q-9.405 0-15.015 2.805-5.445 2.64-8.415 5.115l-3.96-5.115q3.135-2.97 10.065-6.27 7.095-3.3 17.16-3.3 14.85 0 22.77 6.27t7.92 20.79v34.98q0 3.3 0 6.27 0 2.805 0.165 4.95l0.33 4.62z" style="font-feature-settings:normal;font-variant-caps:normal;font-variant-ligatures:normal;font-variant-numeric:normal"/><path d="m-436.99-198.52q0-3.135 0-5.28 0-2.31 0-3.96 0-1.815-0.165-3.3 0-1.65-0.165-3.465h6.93q0.165 1.815 0.165 3.465 0.165 1.65 0.165 3.63 0.165 1.815 0.165 4.125t0 5.445q1.32-2.475 3.465-5.445 2.31-3.135 5.775-5.775t8.085-4.455 10.725-1.815q3.63 0 6.27 1.155l-2.145 7.095q-1.155-0.495-2.805-0.66-1.485-0.165-2.805-0.165-5.94 0-10.725 2.64t-8.25 6.93-5.445 9.9q-1.815 5.445-1.815 11.055v38.775h-7.425z" style="font-feature-settings:normal;font-variant-caps:normal;font-variant-ligatures:normal;font-variant-numeric:normal"/><path d="m-320.83-150.01q-4.95 6.27-13.53 9.9-8.415 3.465-17.325 3.465-8.415 0-15.675-2.805-7.095-2.97-12.21-8.25t-8.085-12.54q-2.805-7.425-2.805-16.335 0-8.25 2.64-15.51 2.805-7.26 7.59-12.705t11.55-8.58 14.85-3.135q7.755 0 14.355 2.805 6.765 2.64 11.55 7.92 4.95 5.28 7.59 13.2 2.805 7.755 2.805 17.985h-64.68q0.165 6.435 2.475 12.21 2.31 5.61 6.27 9.9 3.96 4.125 9.405 6.6 5.61 2.31 12.375 2.31 3.465 0 7.095-0.66 3.795-0.825 7.26-2.31t6.27-3.465q2.97-1.98 4.95-4.455zm-4.785-31.02q-1.485-14.025-8.91-21.285t-19.305-7.26q-6.105 0-11.22 2.31-4.95 2.145-8.58 6.105-3.63 3.795-5.94 9.075-2.145 5.115-2.475 11.055z" style="font-feature-settings:normal;font-variant-caps:normal;font-variant-ligatures:normal;font-variant-numeric:normal"/></g>

<g transform="matrix(1.3333 0 0 1.3333 951.18 682.91)" aria-label="Quina"><path d="m-631.78-270.09q-5.94 3.3-12.87 5.115-6.765 1.98-14.355 1.98-11.88 0-21.945-4.455-9.9-4.455-17.16-12.21t-11.385-18.15q-4.125-10.56-4.125-22.77 0-12.045 4.125-22.605t11.385-18.315q7.26-7.92 17.16-12.375 10.065-4.455 21.945-4.455t21.78 4.455q10.065 4.455 17.325 12.375 7.26 7.755 11.385 18.315t4.125 22.605q0 14.52-5.775 26.4-5.61 11.88-15.51 19.8l14.355 16.665-5.775 4.785zm-20.295-23.925 5.775-4.785 15.84 18.645q8.415-6.93 13.035-17.325 4.62-10.56 4.62-23.1 0-10.395-3.3-19.635t-9.405-16.005q-5.94-6.765-14.52-10.725t-18.975-3.96-18.975 3.96-14.685 10.725q-5.94 6.765-9.24 16.005t-3.3 19.635 3.3 19.635q3.3 9.075 9.24 16.005 6.105 6.765 14.685 10.725 8.58 3.795 18.975 3.795 6.27 0 11.88-1.32 5.61-1.485 10.395-4.125z" style="font-feature-settings:normal;font-variant-caps:normal;font-variant-ligatures:normal;font-variant-numeric:normal"/><path d="m-584.43-341.53h7.425v42.075q0 8.415 1.32 14.025 1.485 5.61 4.29 8.91t6.93 4.62 9.57 1.32q7.095 0 12.375-2.97t8.58-7.59q3.465-4.62 5.115-10.23t1.65-11.055v-39.105h7.425v59.895q0 3.3 0 5.445t0 3.96q0 1.65 0 3.3 0.165 1.485 0.33 3.3h-6.93q-0.165-1.815-0.33-3.3 0-1.485-0.165-3.135 0-1.815 0-3.96t0-5.445q-1.32 2.475-3.63 5.61t-5.775 5.94q-3.465 2.64-8.415 4.455-4.785 1.815-11.22 1.815-8.085 0-13.53-2.31t-8.91-6.6q-3.3-4.455-4.785-10.56-1.32-6.105-1.32-13.86z" style="font-feature-settings:normal;font-variant-caps:normal;font-variant-ligatures:normal;font-variant-numeric:normal"/><path d="m-497.8-368.26h10.395v10.89h-10.395zm1.485 26.73h7.425v75.9h-7.425z" style="font-feature-settings:normal;font-variant-caps:normal;font-variant-ligatures:normal;font-variant-numeric:normal"/><path d="m-465.46-325.53q0-3.135 0-5.28 0-2.31 0-3.96 0-1.815-0.165-3.3 0-1.65-0.165-3.465h6.93q0.165 1.815 0.165 3.3 0.165 1.485 0.165 3.3 0.165 1.65 0.165 3.96 0 2.145 0 5.28 1.32-2.475 3.63-5.61 2.475-3.135 5.94-5.775 3.63-2.805 8.58-4.62t11.385-1.815q8.085 0 13.53 2.31 5.61 2.31 9.075 6.765 3.465 4.29 4.95 10.56 1.485 6.105 1.485 13.695v44.55h-7.425v-42.075q0-8.415-1.485-14.025t-4.455-8.91q-2.805-3.3-7.095-4.62-4.125-1.32-9.57-1.32-7.26 0-12.54 2.97t-8.745 7.59-5.28 10.23q-1.65 5.61-1.65 11.055v39.105h-7.425z" style="font-feature-settings:normal;font-variant-caps:normal;font-variant-ligatures:normal;font-variant-numeric:normal"/><path d="m-326.37-304.41q-3.465-0.825-8.745-1.32-5.115-0.66-13.2-0.66-8.415 0-13.365 2.145-4.95 1.98-7.59 5.115-2.475 2.97-3.3 6.6-0.66 3.465-0.66 6.27 0 8.415 5.445 12.21 5.61 3.63 14.19 3.63 5.61 0 10.56-1.98t8.58-5.28q3.795-3.3 5.94-7.425 2.145-4.29 2.145-8.58zm0.66 38.775q-0.165-2.31-0.33-5.115 0-2.805 0-7.59-2.97 4.29-6.6 7.26-3.63 2.805-7.425 4.455-3.63 1.65-7.425 2.31t-6.93 0.66q-4.785 0-9.57-0.99t-8.58-3.465q-3.795-2.64-6.27-6.93-2.31-4.455-2.31-11.22 0-5.445 1.815-10.23 1.815-4.95 5.775-8.415 3.96-3.63 10.23-5.61 6.27-2.145 15.18-2.145 6.93 0 12.375 0.495t9.24 1.155v-4.29q0-6.27-1.485-10.395t-4.455-6.6-7.26-3.465-9.9-0.99q-9.405 0-15.015 2.805-5.445 2.64-8.415 5.115l-3.96-5.115q3.135-2.97 10.065-6.27 7.095-3.3 17.16-3.3 14.85 0 22.77 6.27t7.92 20.79v34.98q0 3.3 0 6.27 0 2.805 0.165 4.95l0.33 4.62z" style="font-feature-settings:normal;font-variant-caps:normal;font-variant-ligatures:normal;font-variant-numeric:normal"/></g>

</g></svg>
