<svg xmlns="http://www.w3.org/2000/svg" width="1600" height="900" viewBox="0 0 1600 900"><path fill="#111" d="M0 0h1600v900H0z"/><rect width="880" height="560" x="360" y="180" fill="#fff" rx="24"/><rect width="880" height="60" x="360" y="180" fill="#ee172c" rx="24"/><path fill="#ee172c" d="M360 216h880v24H360z"/><circle cx="402" cy="210" r="9" fill="#fff"/><circle cx="436" cy="210" r="9" fill="#fff" fill-opacity=".45"/><circle cx="470" cy="210" r="9" fill="#fff" fill-opacity=".45"/><text x="800" y="420" fill="#111" font-family="Arial, Helvetica, sans-serif" font-size="94" font-weight="700" text-anchor="middle">Quina Care</text><text x="800" y="486" fill="#ee172c" font-family="Arial, Helvetica, sans-serif" font-size="30" font-weight="700" letter-spacing="6" text-anchor="middle">DE NIEUWE WEBSITE</text><rect width="120" height="128" x="612" y="556" fill="#f4f4f5" rx="12"/><rect width="120" height="128" x="740" y="556" fill="#f4f4f5" rx="12"/><rect width="120" height="128" x="868" y="556" fill="#f4f4f5" rx="12"/><rect width="120" height="56" x="612" y="628" fill="#ee172c" rx="12"/><rect width="120" height="92" x="740" y="592" fill="#ee172c" rx="12"/><rect width="120" height="72" x="868" y="612" fill="#ee172c" rx="12"/></svg>