<svg xmlns="http://www.w3.org/2000/svg" xml:space="preserve" viewBox="0 0 2552.2 446.2"><path d="M63 49.1q-6.3 5.25-6.3 13.8c0 5.7 2.6 10.3 7.8 13.7s17.1 7.4 35.8 12 33.2 11.5 43.6 20.7c10.3 9.2 15.5 22.7 15.5 40.4s-6.6 32-19.9 43-30.7 16.5-52.3 16.5c-31.2 0-59.4-11.6-84.4-34.7L29 142.3c21.3 18.6 40.9 27.9 59 27.9 8.1 0 14.4-1.7 19-5.2q6.9-5.25 6.9-14.1c0-5.9-2.4-10.6-7.3-14.1s-14.6-7-29.1-10.6c-22.9-5.5-39.7-12.5-50.4-21.3-10.6-8.7-15.9-22.5-15.9-41.2S18 30.6 31.4 20.4 61.7 5.2 81.8 5.2c13.2 0 26.3 2.2 39.5 6.8s24.7 10.9 34.4 19.2l-22.3 32.2q-25.65-19.5-53.1-19.5c-7.2-.1-13 1.7-17.3 5.2m229.8-1.3v159.1h-44V47.8h-55.9V9.7h155.8v38.1zm228.3 159.1-18.3-42.6h-82.7l-18.3 42.6H355L440.1 9.7h42.6L568 206.9zM461.6 68.4l-24.8 57.3h49.4zm212.5-20.6v159.1h-44V47.8h-55.9V9.7H730v38.1zM776.2 9.7h44v197.2h-44zm433.4 96.8h44.3v70q-29.4 32.7-81.3 32.7-43.5 0-72.9-28.8c-19.7-19.2-29.5-43.4-29.5-72.7s10-53.7 30-73.2c20-19.6 44.2-29.3 72.5-29.3q42.45 0 73.8 27.9l-22.9 33c-8.8-7.7-17-13-24.4-15.9s-15.5-4.4-24.1-4.4q-25.05 0-42.3 17.1c-11.5 11.4-17.2 26.4-17.2 45q0 27.9 16.5 44.7c11 11.2 24.1 16.8 39.4 16.8q22.8 0 38.1-8.7zm296.2 100.4V9.7h44v158h84.1v39.2zm325.1-171.4c18.8 17.2 28.2 41.1 28.2 71.8s-9.2 54.9-27.5 72.8c-18.4 17.9-46.3 26.8-84 26.8h-67.4V9.7h69.7q52.8 0 81 25.8m-32.3 117.3c10.8-10.2 16.2-24.9 16.2-44.3q0-29.1-16.2-44.7c-10.8-10.5-27.4-15.7-49.8-15.7h-24.5V168h27.9c20.1 0 35.6-5.1 46.4-15.2" style="fill:#5a98ff"/><path d="M772.9 243.3h44v197.2h-44l-94-123.6v123.6h-44V243.3h41.2l96.8 127zm456 25.8c18.8 17.2 28.2 41.1 28.2 71.8s-9.2 54.9-27.5 72.8c-18.4 17.9-46.3 26.8-84 26.8h-67.4V243.3h69.7q52.8 0 81 25.8m-32.3 117.2c10.8-10.2 16.2-24.9 16.2-44.3q0-29.1-16.2-44.7c-10.8-10.5-27.4-15.7-49.8-15.7h-24.5v119.9h27.9c20.1.1 35.6-5 46.4-15.2m471.3-77.5q0 47.4-37.5 61.2l49.9 70.5h-54.2l-43.7-62.9H1552v62.9h-44V243.3h74.8c30.7 0 52.5 5.2 65.6 15.5 13 10.3 19.5 27 19.5 50m-53 23.4c5.5-4.9 8.2-12.7 8.2-23.3s-2.8-17.9-8.5-21.9c-5.6-3.9-15.5-5.9-29.6-5.9h-33v58.4h32.2c15 0 25.2-2.4 30.7-7.3m112.3 108.3V243.3h44v158h84.1v39.2zm314.9 0-18.3-42.6h-82.7l-18.3 42.6H1876l85.2-197.2h42.6l85.2 197.2zM1982.5 302l-24.8 57.3h49.4zm281.3-58.7h44v197.2h-44l-94-123.6v123.6h-44V243.3h41.2l96.8 127zm257.4 25.8c18.8 17.2 28.2 41.1 28.2 71.8s-9.2 54.9-27.5 72.8c-18.4 17.9-46.3 26.8-84 26.8h-67.4V243.3h69.7q52.8 0 81 25.8m-32.3 117.3c10.8-10.2 16.2-24.9 16.2-44.3q0-29.1-16.2-44.7c-10.8-10.5-27.4-15.7-49.8-15.7h-24.5v119.9h27.9c20.1 0 35.6-5.1 46.4-15.2" style="fill:#e84e1b"/><path d="M979.4 48.1h46.7V9.7h-46.7c-51.9 0-94.1 41.7-94.1 93.6V168h-19.6v38.9h19.6v36.4h-19.6v38.4h19.6V345c0 51.9 42.2 95.5 94.1 95.5h46.7v-38.9h-46.7c-30.2 0-54.7-26.4-54.7-56.5v-63.4h91.6v-38.4h-91.6v-36.4h91.6V168h-91.6v-64.7c0-30.2 24.5-55.2 54.7-55.2m377.1 353.3c-1.8 0-3.3-1.5-3.3-3.3V281.7h90.8v-38.4h-90.8v-36.4h90.8V168h-90.7c.2-10.5.7-19.4 1.7-27.5 3.3-27.5 21.8-54.1 69.3-54.1V9.7H1385v42.7c-36.8 11.9-64.2 44.3-68.9 83.5-1.4 11.8-2.1 24.6-2.1 40.5v221.8c0 23.4 19 42.4 42.4 42.4h87.5v-39.1h-87.4z" style="fill:#372650"/></svg>