<?xml version="1.0" encoding="UTF-8"?>
<svg xmlns="http://www.w3.org/2000/svg" version="1.1" viewBox="0 0 509.9 607.4">
  <style type="text/css">.st0{fill:#C6C6C6;}
	.st1{fill:#039639;}
	.st2{fill:#068838;}
	.st3{fill:#A6947D;}
	.st4{fill:#7F725E;}
	.st5{fill:#99AC19;}
	.st6{fill:#AFB21D;}
	.st7{fill:#8A9324;}
	.st8{fill:#008D36;}
	.st9{fill:#009439;}
	.st10{fill:#BFBB74;}
	.st11{fill:#444F2D;}
	.st12{fill:#8E7D69;}
	.st13{fill:#A69A7E;}
	.st14{fill:#8C8369;}
	.st15{fill:#C4BC95;}
	.st16{fill:#58693A;}
	.st17{fill:#973535;}
	.st18{fill:#A14546;}
	.st19{fill:#FCDDD4;}
	.st20{fill:#018337;}
	.st21{fill:#078938;}
	.st22{fill:#C9C779;}
	.st23{fill:#BCB872;}
	.st24{fill:none;}
	.st25{fill:#FFFFFF;}
	.st26{font-family:'Effra-Regular';}
	.st27{font-size:9px;}
	.st28{font-size:4.9994px;}
	.st29{font-size:8px;}
	.st30{font-size:5.9994px;}
	.st31{font-size:8.9988px;}
	.st32{font-size:7.9991px;}
	.st33{font-size:5px;}
	.st34{font-size:8.9994px;}
	.st35{font-family:'ArialMT';}
	.st36{font-size:8.999px;}
	.st37{font-size:6px;}
	.st38{font-size:9.001px;}
	.st39{font-size:6.0004px;}
	.st40{font-size:8.0006px;}</style>
  <path class="st0" d="m310.6 250.2c-4.4-0.3-8.7-1.2-12.8-2.9-0.7-0.3-1.1 0.9-0.3 1.2 4.2 1.7 8.6 2.7 13.1 2.9 0.8 0.1 0.8-1.1 0-1.2z"></path>
  <path class="st1" d="m308.9 249.6 2.2-1.1c8.7-4.3 20-2.1 25.3 4.9l4.7 6.3c0.3 0.4 0.2 1.1-0.2 1.4-0.1 0.1-0.2 0.1-0.3 0.1l-2.2 1.1c-8.7 4.3-20 2.1-25.3-4.9l-4.7-6.3c-0.3-0.4-0.2-1.1 0.2-1.4 0.1 0 0.2-0.1 0.3-0.1z"></path>
  <path class="st2" d="m308.3 250.3 2.8-1.8c8.7-4.3 20-2.1 25.3 4.9l4.7 6.3c-0.1 0.1-7.6-3.7-16-6.1-8.3-2.4-16.8-3.2-16.8-3.3z"></path>
  <path class="st0" d="m371.1 225c-3.5-0.3-7-1.2-10.2-2.8-0.7-0.4-1.4 0.7-0.6 1.1 3.4 1.7 7.1 2.7 10.8 3 0.8 0.1 0.8-1.2 0-1.3z"></path>
  <path class="st1" d="m369.8 224.4 1.8-1.1c7-4.3 16.2-2.1 20.5 4.9l3.8 6.3c0.3 0.5 0.1 1.2-0.4 1.5l-1.8 1.1c-7 4.3-16.2 2.1-20.5-4.9l-3.8-6.3c-0.3-0.5-0.1-1.2 0.4-1.5z"></path>
  <path class="st2" d="m369.3 225 2.3-1.7c7-4.3 16.2-2.1 20.5 4.9l3.8 6.3c-0.1 0.1-6.2-3.7-13-6.1s-13.7-3.2-13.6-3.4z"></path>
  <path class="st0" d="m432 195.5c-3.5 0.5-7.1 0.4-10.6-0.5-0.8-0.2-1.1 1-0.3 1.2 3.7 0.9 7.5 1.1 11.2 0.5 0.8-0.1 0.5-1.3-0.3-1.2z"></path>
  <path class="st1" d="m430.5 195.1 1.5-1.5c5.9-5.8 15.3-5.6 21.1 0.2l5.2 5.3c0.4 0.4 0.4 1.1 0 1.6l-1.5 1.5c-5.9 5.8-15.3 5.7-21.1-0.2l-5.2-5.3c-0.4-0.5-0.4-1.2 0-1.6z"></path>
  <path class="st2" d="m430.2 195.8 1.9-2.2c5.9-5.8 15.3-5.6 21.1 0.2l5.2 5.3c0 0.1-6.9-2.2-14-3s-14.2-0.1-14.2-0.3z"></path>
  <path class="st0" d="m415.8 141.9c-3.5 0.5-7.1 0.4-10.6-0.5-0.8-0.2-1.1 1-0.3 1.2 3.7 0.9 7.5 1.1 11.2 0.5 0.8-0.1 0.5-1.3-0.3-1.2z"></path>
  <path class="st1" d="m414.4 141.6 1.5-1.5c5.9-5.8 15.3-5.6 21.1 0.2l5.1 5.3c0.4 0.4 0.4 1.1 0 1.6l-1.5 1.5c-5.9 5.8-15.3 5.7-21.1-0.2l-5.1-5.3c-0.5-0.4-0.5-1.2 0-1.6-0.1 0 0 0 0 0z"></path>
  <path class="st2" d="m414 142.3 1.9-2.2c5.9-5.8 15.3-5.6 21.1 0.2l5.1 5.3c0 0.1-6.9-2.2-14-3.1s-14 0-14.1-0.2z"></path>
  <path class="st0" d="m331.4 109.5c-3.5 0.5-7.1 0.4-10.6-0.5-0.8-0.2-1.1 1-0.3 1.2 3.7 0.9 7.5 1.1 11.2 0.5 0.9-0.1 0.5-1.3-0.3-1.2z"></path>
  <path class="st1" d="m330 109.1 1.5-1.5c5.9-5.8 15.3-5.7 21.1 0.2l5.1 5.3c0.4 0.4 0.4 1.1 0 1.6l-1.5 1.5c-5.9 5.8-15.3 5.6-21.1-0.2l-5.1-5.3c-0.4-0.5-0.4-1.2 0-1.6z"></path>
  <path class="st2" d="m329.7 109.8 1.9-2.2c5.9-5.8 15.3-5.7 21.1 0.2l5.1 5.3c0 0.1-6.9-2.2-14-3.1s-14.1 0-14.1-0.2z"></path>
  <path class="st3" d="m96.2 216.4c1-1.8 3.3-2.4 5.1-1.4l142.4 82.2c1.8 1 2.4 3.3 1.4 5.1s-3.3 2.4-5.1 1.4l-142.4-82.2c-1.8-1-2.4-3.3-1.4-5.1z"></path>
  <path class="st4" d="m284 48.6c2 0.4 3.3 2.4 2.9 4.5l-6.5 30.8c-0.4 2-2.4 3.3-4.5 2.9-2-0.4-3.3-2.4-2.9-4.5l6.5-30.8c0.5-2.1 2.4-3.4 4.5-2.9z"></path>
  <path class="st4" d="m325.2 132.1 0.3 0.2c1.6 1.3 2 3.6 0.7 5.3l-30.7 39.9c-1.3 1.6-3.6 2-5.3 0.7l-0.3-0.2c-1.6-1.3-2-3.6-0.7-5.3l30.7-39.9c1.3-1.6 3.6-1.9 5.3-0.7z"></path>
  <path class="st4" d="m193.9 65.2c1.9-0.8 4.1 0 5 2l24.6 56.7c0.8 1.9 0 4.1-2 5-1.9 0.8-4.1 0-5-2l-24.6-56.7c-0.8-1.9 0.1-4.1 2-5z"></path>
  <path class="st4" d="m340.6 101.6c0.7 1.9-0.2 4-2.1 4.8l-79.4 30.8c-1.9 0.7-4-0.2-4.8-2.1-0.7-1.9 0.2-4 2.1-4.8l79.4-30.8c1.9-0.7 4 0.2 4.8 2.1z"></path>
  <path class="st4" d="m95.5 143c0.7-2 2.8-3 4.8-2.3l155.6 53.1c2 0.7 3 2.8 2.3 4.8s-2.8 3-4.8 2.3l-155.5-53.2c-2-0.6-3-2.8-2.4-4.7z"></path>
  <path class="st4" d="m247.9 272c-0.8-1.9 0-4.1 1.9-5l181.5-79.8c1.9-0.8 4.1 0 5 1.9 0.8 1.9 0 4.1-1.9 5l-181.5 79.8c-1.9 0.9-4.1 0-5-1.9z"></path>
  <path class="st4" d="m70.5 222.2c2 0.4 3.3 2.4 2.9 4.5l-6.5 30.8c-0.4 2-2.4 3.3-4.5 2.9-2-0.4-3.3-2.4-2.9-4.5l6.5-30.8c0.4-2 2.4-3.3 4.5-2.9z"></path>
  <path class="st4" d="m138.6 228.1c2 0.4 3.3 2.4 2.9 4.5l-13.9 66.2c-0.4 2-2.4 3.3-4.5 2.9-2-0.4-3.3-2.4-2.9-4.5l13.9-66.2c0.5-2.1 2.5-3.4 4.5-2.9z"></path>
  <polygon class="st5" points="243 102.9 243.8 90.5 323.2 59.7 327.2 70.1"></polygon>
  <rect class="st5" transform="matrix(.2714 -.9625 .9625 .2714 22.809 270.87)" x="182.2" y="60.3" width="16.3" height="120.2"></rect>
  <rect class="st5" transform="matrix(.9562 -.2927 .2927 .9562 -35.53 102.24)" x="240.9" y="161.6" width="166" height="16.5"></rect>
  <rect class="st5" transform="matrix(.8048 -.5936 .5936 .8048 -80.445 278.93)" x="300.8" y="253.5" width="166" height="16.5"></rect>
  <rect class="st5" transform="matrix(.8048 -.5936 .5936 .8048 -143.11 170.61)" x="179.5" y="263.9" width="16.6" height="77.9"></rect>
  <rect class="st5" transform="matrix(.9321 -.3621 .3621 .9321 -85.752 35.731)" x="44.2" y="207.7" width="16.5" height="77.9"></rect>
  <path class="st6" d="m322.3 170.3c0.1 0.4-0.1 0.8-0.5 1l-71.8 21.6c-0.4 0.1-0.8-0.1-1-0.5-0.1-0.4 0.1-0.8 0.5-1l71.8-21.7c0.5-0.1 0.9 0.2 1 0.6z"></path>
  <path class="st6" d="m413 245.2c0.3 0.4 0.2 0.8-0.2 1.1l-60.2 44.4c-0.3 0.3-0.8 0.2-1.1-0.2-0.3-0.3-0.2-0.8 0.2-1.1l60.2-44.4c0.3-0.2 0.8-0.1 1.1 0.2z"></path>
  <path class="st6" d="m440 217.7c0.3 0.4 0.2 0.8-0.2 1.1l-60.2 44.4c-0.3 0.3-0.8 0.2-1.1-0.2-0.3-0.3-0.2-0.8 0.2-1.1l60.2-44.4c0.4-0.2 0.9-0.1 1.1 0.2z"></path>
  <path class="st6" d="m372 150.8c0.1 0.4-0.1 0.8-0.5 1l-71.6 21.9c-0.4 0.1-0.8-0.1-1-0.5-0.1-0.4 0.1-0.8 0.5-1l71.6-21.9c0.4-0.2 0.9 0.1 1 0.5z"></path>
  <path class="st6" d="m321.1 63.8c0.2 0.4 0 0.9-0.4 1l-69.3 28.2c-0.4 0.2-0.8 0-1-0.4s0-0.8 0.4-1l69.3-28.2c0.4-0.2 0.8 0 1 0.4z"></path>
  <path class="st6" d="m236.7 139.6c-0.1 0.4-0.5 0.7-1 0.5l-72-20.3c-0.4-0.1-0.6-0.5-0.5-1 0.1-0.4 0.5-0.6 1-0.5l72 20.3c0.3 0.2 0.6 0.6 0.5 1z"></path>
  <path class="st6" d="m209.5 123.3c-0.1 0.4-0.5 0.7-1 0.5l-72-20.3c-0.4-0.1-0.6-0.5-0.5-1 0.1-0.4 0.5-0.6 1-0.5l72 20.3c0.4 0.1 0.6 0.6 0.5 1z"></path>
  <path class="st6" d="m176.7 296.1c0.2-0.2 0.6-0.1 0.7 0.1l16.6 22.5c0.2 0.2 0.1 0.6-0.1 0.7-0.2 0.2-0.6 0.1-0.7-0.1l-16.6-22.5c-0.2-0.2-0.2-0.6 0.1-0.7z"></path>
  <path class="st6" d="m167.3 273.9c0.2-0.2 0.6-0.1 0.7 0.1l16.6 22.5c0.2 0.2 0.1 0.6-0.1 0.7-0.2 0.2-0.6 0.1-0.7-0.1l-16.6-22.5c-0.2-0.2-0.1-0.5 0.1-0.7z"></path>
  <path class="st6" d="m185.1 290.8c0.2-0.2 0.6-0.1 0.7 0.1l16.6 22.5c0.2 0.2 0.1 0.6-0.1 0.7-0.2 0.2-0.6 0.1-0.7-0.1l-16.6-22.4c-0.1-0.3-0.1-0.6 0.1-0.8z"></path>
  <path class="st7" d="m267.8 178c0.3 1.3 0.9 4.9 1.9 8.4s2.6 6.5 3.1 8l-2.5 1-5.8-16.1 3.3-1.3z"></path>
  <path class="st7" d="m328.2 159.1c0.3 1.3 0.9 4.9 1.9 8.4s2.6 6.6 3.1 8l-2.5 1-5.8-16.1 3.3-1.3z"></path>
  <path class="st7" d="m382.6 142.8c0.3 1.3 0.9 4.9 1.9 8.4 1 3.3 2.6 6.5 3.1 8l-2.5 1-5.7-16.1 3.2-1.3z"></path>
  <path class="st7" d="m228.3 140c0.5-1.2 2.2-4.4 3.5-7.9s1.8-6.8 2.3-8.3l2.6 0.8-5.1 16.3-3.3-0.9z"></path>
  <path class="st7" d="m176.9 125.9c0.5-1.2 2.2-4.4 3.4-7.9s1.8-6.8 2.3-8.3l2.6 0.8-5.1 16.3-3.2-0.9z"></path>
  <path class="st7" d="m143.5 116c0.5-1.2 2.2-4.4 3.5-7.9s1.8-6.8 2.3-8.3l2.6 0.8-5.1 16.3-3.3-0.9z"></path>
  <path class="st7" d="m265.2 81.3c0.5 1.9 1.2 3.9 2 5.7 0.9 1.8 2 3.5 3.1 5.2l-2.4 1.3-5.7-10.6 3-1.6z"></path>
  <path class="st7" d="m302.3 67.3c0.5 1.9 1.2 3.9 2 5.7 0.9 1.8 2 3.5 3.1 5.2l-2.4 1.2-5.7-10.6 3-1.5z"></path>
  <path class="st7" d="m183.8 312.4c1.1-0.7 4.3-2.4 7.2-4.5s5.3-4.6 6.5-5.5l1.7 2.1-13.2 10.5-2.2-2.6z"></path>
  <path class="st7" d="m157.5 275.9c1.1-0.7 4.3-2.4 7.2-4.5s5.3-4.6 6.5-5.5l1.7 2.1-13.3 10.6-2.1-2.7z"></path>
  <path class="st7" d="m43.5 246.8c1.3-0.3 4.8-0.9 8.3-2s6.5-2.7 7.9-3.2l1 2.5-16 5.9-1.2-3.2z"></path>
  <path class="st7" d="m372.7 280.9c-0.8-1.1-2.8-4.1-5.2-6.9s-5.1-5-6.2-6l1.9-1.9 12 12.5-2.5 2.3z"></path>
  <path class="st7" d="m429.7 238.7c-0.8-1-2.8-4.1-5.2-6.9s-5.1-5-6.2-6.1l1.9-1.9 12 12.4-2.5 2.5z"></path>
  <polygon class="st8" points="262.2 321.4 239.4 321.4 242.6 50.8 259.8 50.8"></polygon>
  <polygon class="st8" points="272 344.5 261.1 323.3 491.7 236 498.7 254"></polygon>
  <polygon class="st8" points="239.5 332.6 233.8 349.4 2.9 267.4 7.6 253.6"></polygon>
  <path class="st9" d="m399.7 277.3c0.1 0.4-0.1 0.9-0.5 1l-117.5 42.6c-0.4 0.1-0.8-0.1-1-0.5-0.1-0.4 0.1-0.8 0.5-1l117.5-42.6c0.4-0.2 0.8 0.1 1 0.5z"></path>
  <path class="st9" d="m396.9 290.1v0.1c0.2 0.4 0 0.8-0.4 1l-109.2 43.5c-0.4 0.2-0.8 0-1-0.4v-0.1c-0.2-0.4 0-0.8 0.4-1l109.2-43.5c0.4-0.1 0.8 0.1 1 0.4z"></path>
  <path class="st9" d="m212.7 332.6v0.1c-0.1 0.4-0.6 0.6-1 0.5l-111.3-37.9c-0.4-0.1-0.6-0.6-0.5-1v-0.1c0.1-0.4 0.6-0.6 1-0.5l111.3 37.9c0.4 0.2 0.6 0.6 0.5 1z"></path>
  <path class="st9" d="m124.7 297.8v0.1c-0.1 0.4-0.6 0.6-1 0.5l-111.3-38c-0.4-0.1-0.6-0.6-0.5-1v-0.1c0.1-0.4 0.6-0.6 1-0.5l111.3 37.9c0.4 0.3 0.6 0.7 0.5 1.1z"></path>
  <path class="st9" d="m26.3 273c0-0.5 0.2-0.8 0.5-0.7l61.2 21.2c0.3 0.2 0.5 0.5 0.5 0.9v0.1c0 0.4-0.2 0.7-0.4 0.6l-61.1-21.2c-0.5-0.2-0.7-0.5-0.7-0.9z"></path>
  <path class="st9" d="m491.3 247.1c0.2 0.4 0 0.9-0.4 1l-116.7 44.8c-0.4 0.2-0.8 0-1-0.4s0-0.8 0.4-1l116.7-44.8c0.4-0.2 0.9 0 1 0.4z"></path>
  <path class="st9" d="m247.7 181.8c0.4 0 0.8 0.3 0.8 0.8v105.9c0 0.4-0.3 0.8-0.8 0.8-0.4 0-0.8-0.3-0.8-0.8v-105.9c0.1-0.4 0.4-0.8 0.8-0.8z"></path>
  <path class="st9" d="m255.5 96.5c0.4 0 0.8 0.3 0.8 0.8v105.9c0 0.4-0.3 0.8-0.8 0.8-0.4 0-0.8-0.3-0.8-0.8v-106c0-0.4 0.4-0.7 0.8-0.7z"></path>
  <path class="st9" d="m250.4 53.8c0.4 0 0.8 0.3 0.8 0.8v105.9c0 0.4-0.3 0.8-0.8 0.8-0.4 0-0.8-0.3-0.8-0.8v-105.9c0.1-0.5 0.4-0.8 0.8-0.8z"></path>
  <polygon class="st10" points="213.3 356.7 218.2 356.7 220.4 346.4 215.5 346.4"></polygon>
  <polygon class="st10" points="222.8 356.7 227.7 356.7 229.9 346.4 225 346.4"></polygon>
  <polygon class="st10" points="232.9 356.7 237.8 356.7 240 346.4 235.1 346.4"></polygon>
  <polygon class="st10" points="242.9 356.7 247.8 356.7 250 346.4 245.1 346.4"></polygon>
  <polygon class="st10" points="253.9 356.7 258.8 356.7 261 346.4 256.1 346.4"></polygon>
  <polygon class="st10" points="263.9 356.7 268.8 356.7 271 346.4 266.1 346.4"></polygon>
  <polygon class="st10" points="274.2 356.7 279.1 356.7 281.3 346.4 276.4 346.4"></polygon>
  <path class="st10" d="m284.1 356.8 2.5 0.1c3.2-1.3 4.6-4.8 3.6-7.4-0.8-1.9-1.9-3-4.2-3.1-0.8 3.5-1.2 6.9-1.9 10.4z"></path>
  <polygon class="st10" points="213.5 367.1 218.4 367.1 220.6 356.8 215.7 356.8"></polygon>
  <polygon class="st10" points="223 367.1 227.9 367.1 230.1 356.8 225.2 356.8"></polygon>
  <polygon class="st10" points="233.1 367.1 238.1 367.1 240.2 356.8 235.3 356.8"></polygon>
  <polygon class="st10" points="243.1 367.1 248 367.1 250.2 356.8 245.3 356.8"></polygon>
  <polygon class="st10" points="254.1 367.1 259 367.1 261.2 356.8 256.3 356.8"></polygon>
  <polygon class="st10" points="264.1 367.1 269 367.1 271.2 356.8 266.3 356.8"></polygon>
  <polygon class="st10" points="274.4 367.1 279.3 367.1 281.5 356.8 276.6 356.8"></polygon>
  <path class="st10" d="m284.3 367.2 2.5 0.1c3.2-1.3 4.6-4.8 3.6-7.4-0.8-1.9-1.9-3-4.2-3.1-0.8 3.5-1.2 7-1.9 10.4z"></path>
  <polygon class="st10" points="214.1 377.8 219 377.8 221.1 367.4 216.2 367.4"></polygon>
  <polygon class="st10" points="223.6 377.8 228.5 377.8 230.7 367.4 225.7 367.4"></polygon>
  <polygon class="st10" points="233.7 377.8 238.6 377.8 240.8 367.4 235.9 367.4"></polygon>
  <polygon class="st10" points="243.7 377.8 248.6 377.8 250.8 367.4 245.8 367.4"></polygon>
  <polygon class="st10" points="254.6 377.8 259.6 377.8 261.7 367.4 256.8 367.4"></polygon>
  <polygon class="st10" points="264.6 377.8 269.6 377.8 271.7 367.4 266.8 367.4"></polygon>
  <polygon class="st10" points="274.9 377.8 279.9 377.8 282 367.4 277.1 367.4"></polygon>
  <path class="st10" d="m284.8 377.9 2.5 0.1c3.2-1.3 4.6-4.8 3.6-7.4-0.8-1.9-1.9-3-4.2-3.1-0.7 3.5-1.2 6.9-1.9 10.4z"></path>
  <polygon class="st10" points="214 579.1 219 579.1 221.1 568.7 216.2 568.7"></polygon>
  <polygon class="st10" points="223.6 579.1 228.5 579.1 230.6 568.7 225.7 568.7"></polygon>
  <polygon class="st10" points="233.7 579.1 238.6 579.1 240.8 568.7 235.8 568.7"></polygon>
  <polygon class="st10" points="243.6 579.1 248.6 579.1 250.7 568.7 245.8 568.7"></polygon>
  <polygon class="st10" points="254.6 579.1 259.6 579.1 261.7 568.7 256.8 568.7"></polygon>
  <polygon class="st10" points="264.6 579.1 269.5 579.1 271.7 568.7 266.8 568.7"></polygon>
  <polygon class="st10" points="274.9 579.1 279.9 579.1 282 568.7 277.1 568.7"></polygon>
  <path class="st10" d="m284.8 579.1 2.5 0.1c3.2-1.3 4.6-4.8 3.6-7.4-0.8-1.9-1.9-3-4.2-3.1-0.7 3.5-1.2 7-1.9 10.4z"></path>
  <polygon class="st10" points="214 589.3 219 589.3 221.1 579 216.2 579"></polygon>
  <polygon class="st10" points="223.6 589.3 228.5 589.3 230.6 579 225.7 579"></polygon>
  <polygon class="st10" points="233.7 589.3 238.6 589.3 240.8 579 235.8 579"></polygon>
  <polygon class="st10" points="243.6 589.3 248.6 589.3 250.7 579 245.8 579"></polygon>
  <polygon class="st10" points="254.6 589.3 259.6 589.3 261.7 579 256.8 579"></polygon>
  <polygon class="st10" points="264.6 589.3 269.5 589.3 271.7 579 266.8 579"></polygon>
  <polygon class="st10" points="274.9 589.3 279.9 589.3 282 579 277.1 579"></polygon>
  <path class="st10" d="m284.8 589.4 2.5 0.1c3.2-1.3 4.6-4.8 3.6-7.4-0.8-1.9-1.9-3-4.2-3.1-0.7 3.5-1.2 6.9-1.9 10.4z"></path>
  <polygon class="st10" points="214 599.7 218.9 599.7 221.1 589.3 216.1 589.3"></polygon>
  <polygon class="st10" points="223.5 599.7 228.4 599.7 230.6 589.3 225.7 589.3"></polygon>
  <polygon class="st10" points="233.6 599.7 238.5 599.7 240.7 589.3 235.8 589.3"></polygon>
  <polygon class="st10" points="243.6 599.7 248.5 599.7 250.7 589.3 245.7 589.3"></polygon>
  <polygon class="st10" points="254.6 599.7 259.5 599.7 261.7 589.3 256.7 589.3"></polygon>
  <polygon class="st10" points="264.6 599.7 269.5 599.7 271.6 589.3 266.7 589.3"></polygon>
  <polygon class="st10" points="274.9 599.7 279.8 599.7 282 589.3 277 589.3"></polygon>
  <path class="st10" d="m284.7 599.7 2.5 0.1c3.2-1.3 4.6-4.8 3.6-7.4-0.8-1.9-1.9-3-4.2-3.1-0.7 3.6-1.2 7-1.9 10.4z"></path>
  <path class="st11" d="m262.8 258.4c-1.8-0.1-6.5-0.5-11.4-0.5-4.6 0-9.4 0.5-11.4 0.5l-0.2-2.4 22.7-0.6 0.3 3z"></path>
  <path class="st11" d="m261.4 185.6c-1.6-0.1-5.9-0.5-10.3-0.5-4.2 0-8.5 0.5-10.3 0.5l-0.2-2.2 20.5-0.6 0.3 2.8z"></path>
  <path class="st11" d="m260.7 114.9c-1.5-0.1-5.4-0.5-9.4-0.5-3.9 0-7.8 0.5-9.4 0.5l-0.2-2.2 18.8-0.6 0.2 2.8z"></path>
  <path class="st11" d="m202.1 319.3c-0.6 1.3-2.5 4.6-4 8.1s-2.4 7-2.9 8.5l-2.2-0.8 6.3-16.9 2.8 1.1z"></path>
  <path class="st11" d="m133.9 295.7c-0.6 1.3-2.5 4.6-4 8.1-1.4 3.4-2.4 7-2.9 8.5l-2.2-0.7 6.3-16.9 2.8 1z"></path>
  <path class="st11" d="m79.3 277.6c-0.6 1.2-2.3 4.2-3.7 7.5s-2.2 6.5-2.7 7.9l-2.2-0.8 5.8-15.6 2.8 1z"></path>
  <path class="st11" d="m31.6 261.3c-0.6 1.2-2.3 4.2-3.7 7.5s-2.2 6.5-2.7 7.9l-2.2-0.8 5.8-15.6 2.8 1z"></path>
  <path class="st11" d="m291.7 310.8c0.4 1.9 1.1 7 2.3 12 1.2 4.8 2.9 9.6 3.5 11.7l-2.6 0.9-6.5-23.5 3.3-1.1z"></path>
  <path class="st11" d="m355.2 286.8c0.5 1.8 1.5 6.9 3 11.8 1.5 4.8 3.5 9.4 4.2 11.5l-2.5 1-7.9-23.1 3.2-1.2z"></path>
  <path class="st11" d="m416.3 263.7c0.4 1.6 1.2 6 2.6 10.4 1.3 4.2 3.1 8.2 3.8 10l-2.5 1-7-20.2 3.1-1.2z"></path>
  <path class="st11" d="m476.9 240.4c0.4 1.6 1.2 6 2.6 10.4 1.3 4.2 3.1 8.2 3.8 10l-2.5 1-7-20.2 3.1-1.2z"></path>
  <path class="st12" d="m72.2 257.3c1.9-0.8 4.1 0 5 2l27.1 62.2c0.8 1.9 0 4.1-2 5-1.9 0.8-4.1 0-5-2l-27.1-62.2c-0.8-1.9 0.1-4.1 2-5z"></path>
  <path class="st12" d="m403.8 186.4c2 0.4 3.3 2.4 2.9 4.5l-13.9 66.1c-0.4 2-2.4 3.3-4.5 2.9-2-0.4-3.3-2.4-2.9-4.5l13.9-66.2c0.4-1.9 2.4-3.2 4.5-2.8z"></path>
  <path class="st12" d="m430.5 131c0.8 1.9 0 4.1-1.9 5l-61.9 27.2c-1.9 0.8-4.1 0-5-1.9-0.8-1.9 0-4.1 1.9-5l61.9-27.2c1.9-0.9 4.2 0 5 1.9z"></path>
  <path class="st12" d="m388.9 175.3c0.2 2.1-1.4 3.9-3.5 4l-102.4 8.2c-2.1 0.2-3.9-1.4-4-3.5-0.2-2.1 1.4-3.9 3.5-4l102.5-8.1c1.9-0.2 3.8 1.3 3.9 3.4z"></path>
  <path class="st13" d="m501.3 240.1c0.8 1.9 0 4.1-1.9 5l-61.9 27.2c-1.9 0.8-4.1 0-5-1.9-0.8-1.9 0-4.1 1.9-5l61.9-27.2c1.9-0.9 4.2 0 5 1.9z"></path>
  <path class="st14" d="m108.3 78.9c1-1.8 3.3-2.4 5.1-1.4l58.6 33.8c1.8 1 2.4 3.3 1.4 5.1s-3.3 2.4-5.1 1.4l-58.7-33.8c-1.8-1-2.4-3.3-1.3-5.1z"></path>
  <path class="st15" d="m288.1 183.3c2 0.7 3 2.8 2.3 4.8l-33.2 97.3c-0.7 2-2.8 3-4.8 2.3s-3-2.8-2.3-4.8l33.2-97.3c0.7-1.9 2.8-3 4.8-2.3z"></path>
  <path class="st5" d="m488.9 295 0.1 0.7c0.3 4.4-2.9 8.2-7.3 8.5l-150.2 12c-4.4 0.3-8.2-2.9-8.5-7.3l-0.1-0.7c-0.3-4.4 2.9-8.2 7.3-8.5l150.2-12c4.3-0.3 8.1 2.9 8.5 7.3z"></path>
  <path class="st5" d="m176.3 318.1 0.1 0.7c0.3 4.4-2.9 8.2-7.3 8.5l-129.4 10.5c-4.4 0.3-8.2-2.9-8.5-7.3l-0.1-0.7c-0.3-4.4 2.9-8.2 7.3-8.5l129.4-10.4c4.4-0.4 8.2 2.9 8.5 7.2z"></path>
  <path class="st6" d="m407.5 304.4c0 0.4-0.3 0.8-0.7 0.8l-74.6 5.9c-0.4 0-0.8-0.3-0.8-0.7s0.3-0.8 0.7-0.8l74.6-5.9c0.4-0.1 0.8 0.3 0.8 0.7z"></path>
  <path class="st6" d="m436.4 295.6c0 0.4-0.3 0.8-0.7 0.8l-74.6 5.9c-0.4 0-0.8-0.3-0.8-0.7s0.3-0.8 0.7-0.8l74.6-5.9c0.4-0.1 0.7 0.3 0.8 0.7z"></path>
  <path class="st6" d="m488 297.1c0 0.4-0.3 0.8-0.7 0.8l-74.6 5.9c-0.4 0-0.8-0.3-0.8-0.7s0.3-0.8 0.7-0.8l74.6-5.9c0.4 0 0.7 0.3 0.8 0.7z"></path>
  <path class="st7" d="m362.5 295.1c-2.8 5.4-2.8 11.9 0.1 17.3l-2.7 0.2c-3-5.3-3.3-11.7-0.9-17.2l3.5-0.3z"></path>
  <path class="st7" d="m400.8 292.1c-2.8 5.4-2.7 11.9 0.1 17.3l-2.7 0.2c-3-5.3-3.3-11.7-0.9-17.2l3.5-0.3z"></path>
  <path class="st7" d="m451.6 288.3c-2.8 5.4-2.8 11.9 0.1 17.3l-2.7 0.2c-3-5.3-3.3-11.7-0.9-17.2l3.5-0.3z"></path>
  <ellipse class="st11" cx="482.5" cy="296.3" rx="6" ry="7.6"></ellipse>
  <ellipse class="st11" cx="37.4" cy="329.8" rx="6" ry="7.6"></ellipse>
  <path class="st7" d="m159.5 327.9c1.7-5.9 0.5-12.2-3.4-16.9l2.6-0.7c3.9 4.7 5.4 10.9 4 16.8l-3.2 0.8z"></path>
  <path class="st7" d="m110.4 331.8c1.8-5.9 0.5-12.2-3.4-16.9l2.6-0.7c3.9 4.7 5.4 10.9 4 16.8l-3.2 0.8z"></path>
  <path class="st7" d="m54.4 336.3c0.9-2.9 1-6 0.4-9-0.6-2.9-1.9-5.6-3.8-7.9l2.6-0.7c3.9 4.7 5.4 10.9 4 16.8l-3.2 0.8z"></path>
  <path class="st15" d="m449.8 271.4c1.2 1.7 0.7 4.1-1 5.2l-42.5 28.8c-1.7 1.2-4.1 0.7-5.2-1-1.2-1.7-0.7-4.1 1-5.2l42.5-28.8c1.7-1.1 4.1-0.7 5.2 1z"></path>
  <g id="b">
    <rect class="st16" x="238" y="323.4" width="24.7" height="256.8"></rect>
    <path class="st11" d="m261.7 424.1c-1.8-0.1-6.7-0.5-11.8-0.5-4.8 0-9.7 0.5-11.8 0.5v-2.2l23.3-0.6 0.3 2.8z"></path>
    <path class="st11" d="m262.2 463.4c-1.8-0.1-6.7-0.5-11.8-0.5-4.8 0-9.7 0.5-11.8 0.5v-2.2l23.2-0.6 0.4 2.8z"></path>
    <path class="st11" d="m262.6 500.8c-1.8-0.1-6.8-0.5-11.8-0.5-4.8 0-9.7 0.5-11.8 0.5v-2.2l23.2-0.6 0.4 2.8z"></path>
  </g>
  <path class="st17" d="m243.8 451.8c9.8 0 17.7 7.9 17.7 17.7v2.1c0 5.1-4.1 9.2-9.2 9.2h-8.5c-2.4 0-4.4-2-4.4-4.4v-20.3c0-2.4 2-4.3 4.4-4.3z"></path>
  <path class="st17" d="m252.6 449.8 2.2 1.5c0.6 0.4 0.8 1.3 0.4 1.9l-2.7 3.9c-0.4 0.6-1.3 0.8-1.9 0.4l-2.2-1.5c-0.6-0.4-0.8-1.3-0.4-1.9l2.7-3.9c0.4-0.7 1.3-0.8 1.9-0.4z"></path>
  <path class="st17" d="m257.8 453.2 2.2 1.5c0.6 0.4 0.8 1.3 0.3 1.9l-2.7 3.8c-0.4 0.6-1.3 0.8-1.9 0.3l-2.2-1.5c-0.6-0.4-0.8-1.3-0.3-1.9l2.7-3.8c0.4-0.5 1.3-0.7 1.9-0.3z"></path>
  <path class="st18" d="m244.5 454.9h2c4.1 0 7.4 3.3 7.4 7.5 0 2.1-1.7 3.9-3.9 3.9h-5.6c-1 0-1.8-0.8-1.8-1.8v-7.7c0.1-1.1 0.9-1.9 1.9-1.9z"></path>
  <path class="st19" d="m249.1 405.4h1.7c0.3 0 0.6 0.3 0.6 0.6v47.8c0 0.3-0.3 0.6-0.6 0.6h-1.7c-0.3 0-0.6-0.3-0.6-0.6v-47.8c0-0.3 0.2-0.6 0.6-0.6z"></path>
  <path class="st19" d="m249.1 480.2h1.5c0.4 0 0.7 0.3 0.7 0.7v30c0 0.4-0.3 0.7-0.7 0.7h-1.5c-0.4 0-0.7-0.3-0.7-0.7v-30c0-0.3 0.3-0.7 0.7-0.7z"></path>
  <rect class="st20" x="238" y="504.8" width="24.7" height="103.6"></rect>
  <rect class="st20" x="238.5" y="300.2" width="24.7" height="105.2"></rect>
  <path class="st21" d="m245.3 529.1c0.5 0 0.9 0.4 0.9 0.9v40.5c0 0.5-0.4 0.9-0.9 0.9s-0.9-0.4-0.9-0.9v-40.5c0-0.6 0.4-0.9 0.9-0.9z"></path>
  <path class="st21" d="m254 506.9c0.5 0 0.9 0.4 0.9 0.9v40.4c0 0.5-0.4 0.9-0.9 0.9s-0.9-0.4-0.9-0.9v-40.4c0-0.5 0.4-0.9 0.9-0.9z"></path>
  <path class="st21" d="m245.3 356.5c0.5 0 0.9 0.4 0.9 0.9v40.5c0 0.5-0.4 0.9-0.9 0.9s-0.9-0.4-0.9-0.9v-40.5c0-0.5 0.4-0.9 0.9-0.9z"></path>
  <path class="st21" d="m253.1 323.4c0.5 0 0.9 0.4 0.9 0.9v40.5c0 0.5-0.4 0.9-0.9 0.9s-0.9-0.4-0.9-0.9v-40.5c0.1-0.5 0.4-0.9 0.9-0.9z"></path>
  <path class="st11" d="m263.1 385.4c-2-0.1-7.2-0.5-12.6-0.5-5.1 0-10.4 0.5-12.6 0.5l-0.2-2.4 25.2-0.6 0.2 3z"></path>
  <path class="st11" d="m263.5 318c-2-0.1-7.2-0.5-12.6-0.5-5.1 0-10.4 0.5-12.6 0.5l-0.2-2.4 25.1-0.6 0.3 3z"></path>
  <path class="st11" d="m264.3 516.2c-2-0.1-7.2-0.5-12.6-0.5-5.1 0-10.4 0.5-12.6 0.5l-0.2-2.4 25.1-0.6 0.3 3z"></path>
  <path class="st11" d="m263.1 603.9c-2-0.1-7.2-0.5-12.6-0.5-5.1 0-10.4 0.5-12.6 0.5l-0.2-2.4 25.1-0.6 0.3 3z"></path>
  <g id="c">
    <rect class="st8" x="214.6" y="323.9" width="24.7" height="284.5"></rect>
    <rect class="st8" x="261.4" y="323.3" width="24.7" height="285.1"></rect>
  </g>
  <path class="st9" d="m267.1 379.7c0.4 0 0.8 0.3 0.8 0.8v158.3c0 0.4-0.3 0.8-0.8 0.8-0.4 0-0.8-0.3-0.8-0.8v-158.3c0-0.5 0.4-0.8 0.8-0.8z"></path>
  <path class="st9" d="m227.7 406.7c0.4 0 0.8 0.3 0.8 0.8v158.3c0 0.4-0.3 0.8-0.8 0.8-0.4 0-0.8-0.3-0.8-0.8v-158.4c0.1-0.4 0.4-0.7 0.8-0.7z"></path>
  <path class="st9" d="m220.7 402.4c0.4 0 0.8 0.3 0.8 0.8v118.8c0 0.4-0.3 0.8-0.8 0.8-0.4 0-0.8-0.3-0.8-0.8v-118.9c0-0.4 0.3-0.7 0.8-0.7z"></path>
  <path class="st9" d="m273 454.4c0.4 0 0.8 0.3 0.8 0.8v118.8c0 0.4-0.3 0.8-0.8 0.8-0.4 0-0.8-0.3-0.8-0.8v-118.8c0-0.4 0.4-0.8 0.8-0.8z"></path>
  <path class="st9" d="m282 454.8c0.4 0 0.8 0.3 0.8 0.8v118.8c0 0.4-0.3 0.8-0.8 0.8-0.4 0-0.8-0.3-0.8-0.8v-118.9c0-0.4 0.4-0.7 0.8-0.7z"></path>
  <path class="st9" d="m277.1 327.4c0.4 0 0.8 0.3 0.8 0.8v105.9c0 0.4-0.3 0.8-0.8 0.8-0.4 0-0.8-0.3-0.8-0.8v-105.9c0-0.4 0.3-0.8 0.8-0.8z"></path>
  <path class="st9" d="m224.9 328.4c0.4 0 0.8 0.3 0.8 0.8v66.5c0 0.4-0.3 0.8-0.8 0.8-0.4 0-0.8-0.3-0.8-0.8v-66.5c0-0.5 0.3-0.8 0.8-0.8z"></path>
  <path class="st11" d="m286.5 417.6c-2-0.1-7.2-0.5-12.6-0.5-5.1 0-10.4 0.5-12.6 0.5l-0.2-2.4 25.1-0.6 0.3 3z"></path>
  <path class="st11" d="m286.5 466.4c-2-0.1-7.2-0.5-12.6-0.5-5.1 0-10.4 0.5-12.6 0.5l-0.2-2.4 25.1-0.6 0.3 3z"></path>
  <path class="st11" d="m286.5 532c-2-0.1-7.2-0.5-12.6-0.5-5.1 0-10.4 0.5-12.6 0.5l-0.2-2.3 25.1-0.6 0.3 2.9z"></path>
  <path class="st11" d="m239.8 551.3c-2-0.1-7.2-0.5-12.6-0.5-5.1 0-10.4 0.5-12.6 0.5l-0.2-2.4 25.1-0.6 0.3 3z"></path>
  <path class="st11" d="m239.6 477.2c-2-0.1-7.2-0.5-12.6-0.5-5.1 0-10.4 0.5-12.6 0.5l-0.2-2.4 25.1-0.6 0.3 3z"></path>
  <path class="st11" d="m239.9 403.5c-2-0.1-7.2-0.5-12.6-0.5-5.1 0-10.4 0.5-12.6 0.5l-0.2-2.4 25.1-0.6 0.3 3z"></path>
  <path class="st11" d="m239.2 325.8c-2-0.1-7.2-0.5-12.6-0.5-5.1 0-10.4 0.5-12.6 0.5l-0.2-2.4 25.1-0.6 0.3 3z"></path>
  <path class="st11" d="m287.1 326.9c-2-0.1-7.2-0.5-12.6-0.5-5.1 0-10.4 0.5-12.6 0.5l-0.2-2.4 25.1-0.6 0.3 3z"></path>
  <path class="st22" d="m214.2 346.5h71.5c2.9 0 5.2 2.3 5.2 5.2s-2.3 5.2-5.2 5.2h-71.5c-2.9 0-5.2-2.3-5.2-5.2s2.3-5.2 5.2-5.2z"></path>
  <path class="st22" d="m214.2 356.8h71.5c2.9 0 5.2 2.3 5.2 5.2s-2.3 5.2-5.2 5.2h-71.5c-2.9 0-5.2-2.3-5.2-5.2 0-2.8 2.3-5.2 5.2-5.2z"></path>
  <path class="st22" d="m214.2 367.2h71.5c2.9 0 5.2 2.3 5.2 5.2s-2.3 5.2-5.2 5.2h-71.5c-2.9 0-5.2-2.3-5.2-5.2s2.3-5.2 5.2-5.2z"></path>
  <path class="st22" d="m215.2 568.6h70.6c2.9 0 5.2 2.3 5.2 5.2s-2.3 5.2-5.2 5.2h-70.6c-2.9 0-5.2-2.3-5.2-5.2s2.3-5.2 5.2-5.2z"></path>
  <path class="st22" d="m215.2 579h70.6c2.9 0 5.2 2.3 5.2 5.2s-2.3 5.2-5.2 5.2h-70.6c-2.9 0-5.2-2.3-5.2-5.2s2.3-5.2 5.2-5.2z"></path>
  <path class="st22" d="m215.1 589.4h70.6c2.9 0 5.2 2.3 5.2 5.2s-2.3 5.2-5.2 5.2h-70.6c-2.9 0-5.2-2.3-5.2-5.2s2.4-5.2 5.2-5.2z"></path>
  <path class="st23" d="m213.1 356.4h74.6c0.2 0 0.4 0.2 0.4 0.4s-0.2 0.4-0.4 0.4h-74.6c-0.2 0-0.4-0.2-0.4-0.4s0.2-0.4 0.4-0.4z"></path>
  <path class="st23" d="m212.4 366.6h74.6c0.2 0 0.4 0.2 0.4 0.4s-0.2 0.4-0.4 0.4h-74.6c-0.2 0-0.4-0.2-0.4-0.4-0.1-0.2 0.1-0.4 0.4-0.4z"></path>
  <path class="st23" d="m213.2 588.9h73.6c0.2 0 0.4 0.2 0.4 0.4s-0.2 0.4-0.4 0.4h-73.6c-0.2 0-0.4-0.2-0.4-0.4s0.2-0.4 0.4-0.4z"></path>
  <path class="st23" d="m213.5 578.5h73.6c0.2 0 0.4 0.2 0.4 0.4s-0.2 0.4-0.4 0.4h-73.6c-0.2 0-0.4-0.2-0.4-0.4s0.2-0.4 0.4-0.4z"></path>
  <path class="st0" d="m234.6 43.5c5.8 4.2 10.8 9.5 14.5 15.6 0.4 0.7 1.5 0.1 1.1-0.6-3.9-6.3-9-11.7-15-16-0.7-0.6-1.3 0.5-0.6 1z"></path>
  <path class="st1" d="m204.3 0h4.1c16.4 0 29.6 13.2 29.6 29.5v14.7c0 1.2-1 2.2-2.2 2.2h-4.1c-16.3 0-29.6-13.2-29.6-29.5v-14.7c0-1.2 1-2.2 2.2-2.2z"></path>
  <path class="st2" d="m237.3 45.9-5.7 0.6c-16.3 0-29.6-13.2-29.6-29.5v-14.8c0.3-0.2 6.6 12.7 15.7 23.8 8.9 11 19.9 19.6 19.6 19.9z"></path>
  <path class="st0" d="m298 62c-0.5 5.4-2.1 10.7-4.6 15.5-0.4 0.7 0.7 1.3 1.1 0.6 2.6-5 4.2-10.5 4.7-16.2 0.1-0.8-1.2-0.8-1.2 0.1z"></path>
  <path class="st1" d="m296.6 64-1.6-2.8c-6.2-10.8-2.6-24.6 8-31l9.5-5.7c0.8-0.5 1.8-0.2 2.3 0.6l1.6 2.7c6.2 10.8 2.6 24.6-8 31l-9.5 5.7c-0.8 0.5-1.8 0.3-2.3-0.5z"></path>
  <path class="st2" d="m297.6 64.7-2.5-3.5c-6.2-10.8-2.6-24.6 8-31l9.5-5.7c0.2 0.1-5.7 9.3-9.5 19.6-3.7 10.1-5.2 20.7-5.5 20.6z"></path>
  <path class="st0" d="m420.4 121.9c-0.5 5.4-2.1 10.7-4.6 15.5-0.4 0.7 0.7 1.3 1.1 0.6 2.6-5 4.2-10.5 4.8-16.2 0.1-0.7-1.2-0.7-1.3 0.1z"></path>
  <path class="st1" d="m419.1 123.9-1.6-2.8c-6.2-10.8-2.6-24.6 8-31l9.5-5.7c0.8-0.5 1.8-0.2 2.3 0.6l1.6 2.8c6.2 10.8 2.6 24.5-8 31l-9.5 5.7c-0.8 0.5-1.8 0.2-2.3-0.6z"></path>
  <path class="st2" d="m420.1 124.6-2.5-3.5c-6.2-10.8-2.6-24.6 8-31l9.5-5.7c0.2 0.1-5.7 9.3-9.5 19.6-3.8 10.1-5.2 20.7-5.5 20.6z"></path>
  <path class="st0" d="m316.1 226c-0.5 5.4-2.1 10.7-4.6 15.5-0.4 0.7 0.7 1.3 1.1 0.6 2.6-5 4.2-10.5 4.7-16.2 0.2-0.7-1.1-0.7-1.2 0.1z"></path>
  <path class="st1" d="m315.3 228.2-1.8-2.1c-6.9-8.2-2.9-18.7 8.9-23.6l10.6-4.3c0.9-0.4 2-0.2 2.6 0.5l1.8 2.1c6.9 8.2 2.9 18.7-8.9 23.6l-10.6 4.3c-0.9 0.3-2 0.1-2.6-0.5z"></path>
  <path class="st2" d="m316.4 228.8-2.8-2.7c-6.9-8.2-2.9-18.7 8.9-23.7l10.6-4.4c0.2 0.1-6.3 7.1-10.6 15-4.1 7.8-5.8 15.9-6.1 15.8z"></path>
  <path class="st0" d="m321.5 74.4c-3.7-0.2-7.4-1.1-10.8-2.8-0.7-0.4-1.4 0.7-0.6 1.1 3.5 1.8 7.4 2.8 11.4 3 0.8 0 0.8-1.2 0-1.3z"></path>
  <path class="st1" d="m320 75.6 1.9-1.9c7.6-7.7 17.9-4.6 22.8 7.1l4.5 10.5c0.4 0.9 0.2 2.1-0.3 2.7l-1.9 1.9c-7.6 7.7-17.8 4.6-22.8-7.1l-4.5-10.5c-0.4-0.9-0.2-2 0.3-2.7z"></path>
  <path class="st2" d="m319.5 77.2 2.5-3.3c7.7-8.1 18-4.8 23 7.5l4.6 11.1c-0.1 0.3-7-6.2-14.7-10.1s-15.4-4.9-15.4-5.2z"></path>
  <path class="st0" d="m438.9 225.1c-3.7-0.2-7.4-1.1-10.8-2.8-0.7-0.4-1.4 0.7-0.6 1.1 3.5 1.8 7.4 2.8 11.4 3 0.8-0.1 0.8-1.3 0-1.3z"></path>
  <path class="st1" d="m437.5 224.3 1.8-1.3c7.2-5.2 16.9-3.1 21.6 4.8l4.3 7.1c0.3 0.6 0.2 1.4-0.3 1.8l-1.9 1.3c-7.2 5.2-16.9 3.1-21.6-4.8l-4.3-7.1c-0.3-0.6-0.2-1.4 0.4-1.8z"></path>
  <path class="st2" d="m437 225.1 2.3-2.1c7.2-5.2 16.9-3.1 21.6 4.8l4.3 7.1c-0.1 0.2-6.6-4-13.8-6.5s-14.5-3.1-14.4-3.3z"></path>
  <path class="st0" d="m435.1 288.3c-3.7-0.2-7.4-1.2-10.8-2.9-0.7-0.4-1.4 0.7-0.6 1.1 3.5 1.8 7.4 2.8 11.4 3 0.8 0.1 0.8-1.1 0-1.2z"></path>
  <path class="st1" d="m433.6 287.5 1.3-1.3c5.3-5.2 12.3-3.1 15.9 4.8l3.2 7c0.3 0.6 0.1 1.4-0.2 1.8l-1.3 1.3c1.5-1.5-9.4 9.7-15.9-4.8l-3.2-7c-0.4-0.6-0.2-1.3 0.2-1.8z"></path>
  <path class="st2" d="m433.2 288.5 1.7-2.2c5.3-5.4 12.4-3.2 16 5l3.2 7.3c-0.1 0.2-4.9-4.1-10.2-6.7-5.4-2.6-10.7-3.2-10.7-3.4z"></path>
  <path class="st0" d="m270.7 263.5c-3.8-0.2-7.4-1.1-10.8-2.8-0.7-0.4-1.4 0.7-0.6 1.1 3.5 1.8 7.4 2.8 11.4 3 0.8 0 0.8-1.2 0-1.3z"></path>
  <path class="st1" d="m269.4 264.7 2-1.9c8-7.8 18.7-4.6 23.9 7.2l4.8 10.6c0.4 0.9 0.2 2.1-0.3 2.7l-2 1.9c2.3-2.2-14.2 14.6-23.9-7.2l-4.8-10.7c-0.5-0.8-0.4-1.8 0.3-2.6z"></path>
  <path class="st2" d="m268.8 265.9 2.5-3.1c8-7.8 18.7-4.6 23.9 7.2l4.8 10.6c-0.1 0.3-7.3-6-15.3-9.7-7.9-3.8-16-4.5-15.9-5z"></path>
  <path class="st0" d="m314.8 323.6c-3.8-0.2-7.4-1.1-10.8-2.8-0.7-0.4-1.4 0.7-0.6 1.1 3.5 1.8 7.4 2.8 11.4 3 0.8 0 0.8-1.3 0-1.3z"></path>
  <path class="st1" d="m313.3 322.8 1.8-1.3c7.2-5.2 16.8-3.1 21.6 4.8l4.3 7.1c0.4 0.6 0.2 1.4-0.3 1.8l-1.8 1.3c2.1-1.5-12.8 9.8-21.6-4.8l-4.3-7.1c-0.3-0.6-0.2-1.4 0.3-1.8z"></path>
  <path class="st2" d="m312.8 323.6 2.3-2.1c7.2-5.2 16.8-3.1 21.6 4.8l4.3 7.1c-0.1 0.2-6.6-4-13.8-6.5s-14.4-3.1-14.4-3.3z"></path>
  <path class="st0" d="m480.4 303.1c-3.7-0.2-7.4-1.1-10.8-2.8-0.7-0.4-1.4 0.7-0.6 1.1 3.5 1.8 7.4 2.8 11.4 3 0.8 0 0.8-1.2 0-1.3z"></path>
  <path class="st1" d="m479 304.5 2-2c8-8 18.6-4.8 23.9 7.4l4.8 10.9c0.4 0.9 0.2 2.1-0.3 2.8l-2 2c2.3-2.3-14.2 15-23.9-7.4l-4.8-10.9c-0.5-0.9-0.3-2.2 0.3-2.8z"></path>
  <path class="st2" d="m478.4 306.7 2.5-3.6c7.9-9 18.4-5.3 23.7 8.3l4.7 12.2c-0.1 0.3-7.2-6.9-15.1-11.2s-15.8-5.4-15.8-5.7z"></path>
  <path class="st0" d="m475.2 256.6c-3.7-0.2-7.4-1.1-10.8-2.8-0.7-0.4-1.4 0.7-0.6 1.1 3.5 1.8 7.4 2.8 11.4 3 0.8 0 0.8-1.2 0-1.3z"></path>
  <path class="st1" d="m473.7 255.8 1.8-1.3c7.2-5.2 16.9-3.1 21.6 4.8l4.3 7.1c0.4 0.6 0.2 1.4-0.3 1.8l-1.8 1.3c2.1-1.5-12.8 9.8-21.6-4.8l-4.3-7.1c-0.4-0.6-0.2-1.3 0.3-1.8z"></path>
  <path class="st2" d="m473.2 256.6 2.3-2.1c7.2-5.2 16.9-3.1 21.6 4.8l4.3 7.1c-0.1 0.2-6.6-4-13.8-6.5s-14.4-3.1-14.4-3.3z"></path>
  <path class="st0" d="m370.9 176.2c-3.8-0.2-7.4-1.1-10.8-2.8-0.7-0.4-1.4 0.7-0.6 1.1 3.5 1.8 7.4 2.8 11.4 3 0.8 0 0.8-1.2 0-1.3z"></path>
  <path class="st1" d="m369.5 175.5 1.8-1.3c7.2-5.2 16.9-3.1 21.6 4.8l4.3 7.1c0.4 0.6 0.2 1.4-0.3 1.8l-1.8 1.3c2.1-1.5-12.8 9.8-21.6-4.8l-4.3-7.1c-0.4-0.6-0.3-1.4 0.3-1.8z"></path>
  <path class="st0" d="m288 211c-3.7-0.2-7.4-1.1-10.8-2.8-0.7-0.4-1.4 0.7-0.6 1.1 3.5 1.8 7.4 2.8 11.4 3 0.8 0 0.8-1.3 0-1.3z"></path>
  <path class="st1" d="m286.6 210.2 1.8-1.3c7.2-5.2 16.9-3.1 21.6 4.8l4.3 7.1c0.3 0.6 0.2 1.4-0.3 1.8l-1.8 1.3c2.1-1.5-12.8 9.8-21.6-4.8l-4.3-7.1c-0.4-0.6-0.3-1.4 0.3-1.8z"></path>
  <path class="st2" d="m286.1 211 2.3-2.1c7.2-5.2 16.9-3.1 21.6 4.8l4.3 7.1c-0.1 0.2-6.6-4-13.8-6.5s-14.5-3.1-14.4-3.3z"></path>
  <path class="st0" d="m340.7 237.8c-3.8-0.2-7.4-1.1-10.8-2.8-0.7-0.4-1.4 0.7-0.6 1.1 3.5 1.8 7.4 2.8 11.4 3 0.8 0 0.8-1.2 0-1.3z"></path>
  <path class="st1" d="m339.2 237 1.8-1.3c7.2-5.2 16.8-3.1 21.6 4.8l4.3 7.1c0.4 0.6 0.2 1.4-0.3 1.8l-1.8 1.3c2.1-1.5-12.8 9.8-21.6-4.8l-4.3-7.1c-0.3-0.6-0.2-1.4 0.3-1.8z"></path>
  <path class="st2" d="m338.8 237.8 2.3-2.1c7.2-5.2 16.8-3.1 21.6 4.8l4.3 7.1c-0.1 0.2-6.6-4-13.8-6.5s-14.4-3.1-14.4-3.3z"></path>
  <path class="st0" d="m488.4 232.5c-0.5 5.4-2.1 10.7-4.6 15.5-0.4 0.7 0.7 1.4 1.1 0.6 2.6-5 4.2-10.5 4.7-16.2 0.2-0.7-1.1-0.7-1.2 0.1z"></path>
  <path class="st1" d="m487.1 234.5-1.6-2.8c-6.2-10.8-2.6-24.5 8-31l9.5-5.7c0.8-0.5 1.8-0.2 2.3 0.6v0.1l1.6 2.8c6.2 10.8 2.6 24.6-8 31l-9.5 5.7c-0.8 0.4-1.8 0.2-2.3-0.7z"></path>
  <path id="a" class="st2" d="m488.1 235.3-2.5-3.5c-6.2-10.8-2.6-24.5 8-31l9.5-5.7c0.2 0.1-5.7 9.3-9.5 19.6-3.8 10.1-5.3 20.7-5.5 20.6z"></path>
  <path class="st0" d="m186.1 277.8c-0.5 5.4-2.1 10.7-4.6 15.5-0.4 0.7 0.7 1.3 1.1 0.6 2.6-5 4.2-10.5 4.8-16.2 0-0.7-1.3-0.7-1.3 0.1z"></path>
  <path class="st1" d="m184.7 279.8-1.6-2.8c-6.2-10.8-2.6-24.5 8-30.9l9.6-5.7c0.8-0.5 1.8-0.2 2.3 0.6v0.1l1.6 2.8c6.2 10.8 2.6 24.6-8 31l-9.5 5.7c-0.9 0.3-1.9 0-2.4-0.8z"></path>
  <path class="st2" d="m185.7 280.5-2.5-3.5c-6.2-10.8-2.6-24.5 8-30.9l9.6-5.7c0.2 0.1-5.7 9.3-9.5 19.6-3.9 10-5.3 20.6-5.6 20.5z"></path>
  <path class="st0" d="m49.8 216.3c-0.5 5.4-2.1 10.7-4.6 15.5-0.4 0.7 0.7 1.4 1.1 0.6 2.6-5 4.2-10.5 4.8-16.2 0-0.7-1.2-0.7-1.3 0.1z"></path>
  <path class="st1" d="m48.5 218.3-1.6-2.8c-6.2-10.8-2.6-24.5 8-31l9.6-5.7c0.8-0.5 1.8-0.2 2.3 0.6v0.1l1.6 2.8c6.2 10.8 2.6 24.6-8 31l-9.5 5.6c-0.9 0.5-1.9 0.3-2.4-0.6z"></path>
  <path class="st24" d="m49.5 219.1-2.5-3.5c-6.2-10.8-2.6-24.5 8-31l9.6-5.7c0.2 0.1-5.7 9.3-9.5 19.6-3.9 10.1-5.3 20.7-5.6 20.6z"></path>
  <path class="st0" d="m57.9 309.7c-0.5 5.4-2.1 10.7-4.6 15.5-0.4 0.7 0.7 1.3 1.1 0.6 2.6-5 4.2-10.5 4.8-16.2 0-0.7-1.2-0.7-1.3 0.1z"></path>
  <path class="st1" d="m56.6 311.7-1.6-2.7c-6.2-10.8-2.7-24.6 8-31l9.5-5.7c0.8-0.5 1.8-0.2 2.3 0.6l1.6 2.8c6.2 10.8 2.6 24.6-8 31l-9.5 5.7c-0.8 0.4-1.8 0.1-2.3-0.7z"></path>
  <path class="st2" d="m57.6 312.5-2.6-3.5c-6.2-10.8-2.7-24.6 8-31l9.5-5.7c0.2 0.1-5.7 9.3-9.5 19.6-3.7 10-5.2 20.6-5.4 20.6z"></path>
  <path class="st0" d="m139.6 147.6c-0.4 3.7-1.6 7.3-3.4 10.5-0.2 0.3 0 0.7 0.3 0.8s0.6 0 0.8-0.2c1.9-3.4 3.2-7.3 3.6-11.2 0-0.7-1.3-0.7-1.3 0.1z"></path>
  <path class="st1" d="m138.7 149-1.2-1.9c-4.6-7.4-1.9-16.9 6-21.2l7.2-3.9c0.6-0.3 1.3-0.1 1.7 0.4l1.2 1.9c4.6 7.4 1.9 16.9-6 21.2l-7.2 3.9c-0.6 0.4-1.3 0.2-1.7-0.4z"></path>
  <path class="st2" d="m139.4 149.5-1.9-2.4c-4.6-7.4-1.9-16.9 6-21.2l7.2-3.9c0.1 0.1-4.3 6.4-7.1 13.4s-4 14.2-4.2 14.1z"></path>
  <path class="st0" d="m311.8 102.8c-0.3 3-1.3 6-2.8 8.6-0.4 0.7 0.7 1.3 1.1 0.6 1.6-2.9 2.6-6 2.9-9.3 0.1-0.7-1.1-0.7-1.2 0.1z"></path>
  <path class="st1" d="m311.2 103.9-1-1.6c-3.6-5.8-1.7-13.5 4.1-17 0.3-0.2 0.5-0.3 0.8-0.4l5.8-3.2c0.5-0.3 1.1-0.1 1.4 0.4l1 1.5c3.6 5.8 1.7 13.5-4.1 17.1-0.2 0.2-0.5 0.3-0.8 0.4l-5.8 3.2c-0.5 0.3-1.1 0.1-1.4-0.4z"></path>
  <path class="st2" d="m311.8 104.4-1.5-2c-3.6-5.8-1.7-13.5 4.1-17 0.3-0.2 0.5-0.3 0.8-0.4l5.8-3.2c0.1 0.1-3.5 5.2-5.8 11s-3.2 11.6-3.4 11.6z"></path>
  <path class="st0" d="m126.5 79.3c-0.3 3-1.3 6-2.8 8.6-0.4 0.7 0.7 1.3 1.1 0.6 1.6-2.9 2.6-6 2.9-9.3 0.2-0.7-1.1-0.7-1.2 0.1z"></path>
  <path class="st1" d="m126.6 80.2-1.2-2.3c-4.4-8.8-2.1-20.4 5-25.7 0.4-0.3 0.6-0.5 1-0.6l7-4.8c0.6-0.5 1.3-0.2 1.7 0.6l1.2 2.3c4.4 8.9 2.1 20.4-5.1 25.7-0.2 0.2-0.6 0.5-0.8 0.6l-7 4.8c-0.7 0.3-1.4 0-1.8-0.6z"></path>
  <path class="st2" d="m127.3 80.8-1.9-3c-4.4-8.7-2.1-20.4 5-25.6 0.4-0.3 0.6-0.5 1-0.6l7-4.8c0.1 0.2-4.2 8-7 16.6s-3.9 17.6-4.1 17.4z"></path>
  <path class="st0" d="m13.3 253.3c2.4 2.9 4.1 6.2 5.1 9.8 0.1 0.3 0.5 0.5 0.8 0.4s0.4-0.4 0.4-0.7c-1.1-3.8-2.9-7.3-5.4-10.4-0.5-0.5-1.4 0.4-0.9 0.9z"></path>
  <path class="st1" d="m13.7 254.9-2.2-0.5c-8.5-1.9-13.3-10.5-10.8-19.1l2.3-7.8c0.2-0.6 0.8-1 1.5-0.9l2.2 0.5c8.5 1.9 13.4 10.5 10.9 19.2l-2.3 7.8c-0.3 0.5-0.9 0.9-1.6 0.8z"></path>
  <path class="st2" d="m14.6 254.8-3.1-0.3c-8.5-2-13.4-10.6-10.9-19.2l2.3-7.8c0.2 0 1.5 7.5 4.5 14.5s7.4 12.7 7.2 12.8z"></path>
  <path class="st0" d="m262.7 232.8c2.4 2.9 4.1 6.2 5.1 9.8 0.1 0.3 0.4 0.5 0.8 0.4 0.3-0.1 0.5-0.4 0.4-0.8-1.1-3.8-2.9-7.3-5.4-10.4-0.5-0.5-1.4 0.4-0.9 1z"></path>
  <path class="st1" d="m263.1 234.4-2.2-0.5c-8.5-1.9-13.4-10.5-10.9-19.2l2.3-7.8c0.2-0.7 0.8-1.1 1.5-0.9l2.2 0.5c8.5 1.9 13.4 10.5 10.9 19.2l-2.3 7.9c-0.2 0.5-0.8 0.9-1.5 0.8z"></path>
  <path class="st2" d="m264 234.3-3-0.3c-8.5-1.9-13.4-10.5-10.9-19.2l2.3-7.8c0.2-0.1 1.5 7.5 4.5 14.5 3 6.9 7.3 12.6 7.1 12.8z"></path>
  <path class="st0" d="m147 93c2.4 2.9 4.1 6.2 5.1 9.8 0.1 0.3 0.5 0.5 0.8 0.4s0.4-0.4 0.4-0.7c-1.1-3.8-2.9-7.3-5.4-10.4-0.5-0.6-1.4 0.3-0.9 0.9z"></path>
  <path class="st1" d="m147.4 94.5-2.2-0.5c-8.5-1.9-13.4-10.5-10.9-19.2l2.3-7.8c0.2-0.7 0.8-1.1 1.5-0.9l2.2 0.5c8.5 1.9 13.4 10.5 10.9 19.2l-2.3 7.8c-0.2 0.6-0.9 1-1.5 0.9z"></path>
  <path class="st2" d="m148.3 94.4-3.1-0.3c-8.5-1.9-13.4-10.5-10.9-19.2l2.3-7.8c0.2-0.1 1.5 7.5 4.5 14.5s7.4 12.7 7.2 12.8z"></path>
  <path class="st0" d="m275.3 56.3c2.4 2.9 4.1 6.2 5.1 9.9 0.1 0.3 0.4 0.5 0.8 0.4 0.3-0.1 0.5-0.4 0.4-0.8-1.1-3.8-2.9-7.3-5.4-10.4-0.5-0.6-1.4 0.2-0.9 0.9z"></path>
  <path class="st1" d="m275.7 57.8-2.2-0.5c-8.5-1.9-13.4-10.5-10.9-19.2l2.3-7.8c0.2-0.7 0.8-1.1 1.5-0.9l2.2 0.5c8.5 1.9 13.4 10.5 10.9 19.2l-2.3 7.8c-0.2 0.6-0.8 1-1.5 0.9z"></path>
  <path class="st2" d="m276.6 57.7-3-0.3c-8.5-1.9-13.4-10.5-10.9-19.2l2.3-7.8c0.2-0.1 1.5 7.5 4.5 14.5s7.3 12.7 7.1 12.8z"></path>
  <path class="st0" d="m383.8 138.9c2.4 2.9 4.1 6.2 5.1 9.8 0.1 0.3 0.4 0.5 0.8 0.4 0.3-0.1 0.5-0.4 0.4-0.8-1.1-3.8-2.9-7.3-5.4-10.4-0.5-0.5-1.4 0.4-0.9 1z"></path>
  <path class="st1" d="m384.2 140.5-2.2-0.5c-8.5-1.9-13.4-10.5-10.9-19.2l2.3-7.8c0.2-0.7 0.8-1.1 1.5-0.9l2.2 0.5c8.5 1.9 13.4 10.5 10.9 19.2l-2.3 7.8c-0.2 0.6-0.9 1-1.5 0.9z"></path>
  <path class="st2" d="m385.1 140.3-3-0.3c-8.5-1.9-13.4-10.5-10.9-19.2l2.3-7.8c0.2-0.1 1.5 7.5 4.5 14.5 2.9 7 7.2 12.7 7.1 12.8z"></path>
  <path class="st0" d="m387.9 219.7c2.4 2.9 4.1 6.2 5.1 9.8 0.1 0.3 0.4 0.5 0.8 0.4 0.3-0.1 0.5-0.4 0.4-0.8-1.1-3.8-2.9-7.3-5.4-10.4-0.5-0.5-1.4 0.4-0.9 1z"></path>
  <path class="st1" d="m388.3 221.2-2.2-0.5c-8.5-1.9-13.4-10.5-10.9-19.2l2.3-7.8c0.2-0.7 0.8-1.1 1.5-0.9l2.2 0.5c8.5 1.9 13.4 10.5 10.9 19.2l-2.2 7.8c-0.3 0.7-1 1.1-1.6 0.9z"></path>
  <path class="st2" d="m389.2 221.1-3-0.3c-8.5-1.9-13.4-10.5-10.9-19.2l2.3-7.8c0.2 0 1.5 7.5 4.5 14.5s7.2 12.7 7.1 12.8z"></path>
  <path class="st0" d="m300 152.1c2.2 2 3.9 4.6 4.9 7.4 0.3 0.8 1.5 0.4 1.2-0.3-1.1-3-2.9-5.8-5.2-8-0.6-0.5-1.5 0.4-0.9 0.9z"></path>
  <path class="st1" d="m300.4 153.2-2.1-0.4c-8.2-1.5-12.9-8-10.5-14.6l2.2-6c0.3-0.5 0.9-0.8 1.5-0.7l2.1 0.4c8.2 1.4 12.9 8 10.5 14.6l-2.2 5.9c-0.4 0.6-0.9 0.9-1.5 0.8z"></path>
  <path class="st2" d="m301.2 153.1-3-0.3c-8.2-1.5-12.9-8-10.5-14.6l2.2-6c0.2 0 1.5 5.7 4.4 11s7.1 9.8 6.9 9.9z"></path>
  <path class="st0" d="m208 171.7c2.4 2.9 4.1 6.2 5.1 9.8 0.1 0.3 0.4 0.5 0.8 0.4 0.3-0.1 0.5-0.4 0.4-0.8-1.1-3.8-2.9-7.3-5.4-10.4-0.6-0.5-1.4 0.4-0.9 1z"></path>
  <path class="st1" d="m208.4 173.3-2.2-0.5c-8.5-1.9-13.4-10.5-10.9-19.2l2.3-7.8c0.2-0.7 0.8-1.1 1.5-0.9l2.2 0.5c8.5 1.9 13.4 10.5 10.9 19.2l-2.3 7.8c-0.2 0.6-0.9 1-1.5 0.9z"></path>
  <path class="st2" d="m209.2 173.1-3.1-0.3c-8.5-1.9-13.4-10.5-10.9-19.2l2.3-7.8c0.2-0.1 1.5 7.5 4.5 14.5s7.4 12.7 7.2 12.8z"></path>
  <path class="st0" d="m230.7 224.5c4.8 1.1 9.3 3 13.4 5.7 0.7 0.4 1.3-0.6 0.6-1.1-4.2-2.8-8.8-4.8-13.7-5.8-0.7-0.2-1.1 1-0.3 1.2z"></path>
  <path class="st1" d="m232.7 225.8-2.2 1.2c-8.6 4.7-20.4 0.1-26.4-10.2l-5.4-9.3c-0.5-0.6-0.3-1.5 0.4-2l2.2-1.2c8.6-4.7 20.4-0.1 26.4 10.2l5.4 9.3c0.4 0.7 0.2 1.6-0.4 2z"></path>
  <path class="st2" d="m233.3 225-2.8 2c-8.6 4.7-20.4 0.1-26.4-10.2l-5.4-9.3c0.1-0.2 8.2 6.1 17 10.6s17.6 6.7 17.6 6.9z"></path>
  <path class="st0" d="m110 217.4c2.4 2.9 4.1 6.2 5.1 9.8 0.1 0.3 0.5 0.5 0.8 0.4s0.4-0.4 0.4-0.7c-1.1-3.8-2.9-7.3-5.4-10.4-0.5-0.6-1.4 0.3-0.9 0.9z"></path>
  <path class="st1" d="m110.4 218.9-2.2-0.5c-8.5-1.9-13.4-10.5-10.9-19.2l2.3-7.8c0.2-0.7 0.8-1.1 1.5-0.9l2.2 0.5c8.5 1.9 13.4 10.5 10.9 19.2l-2.3 7.8c-0.2 0.6-0.8 1-1.5 0.9z"></path>
  <path class="st2" d="m111.3 218.8-3.1-0.3c-8.5-1.9-13.4-10.5-10.9-19.2l2.3-7.8c0.2-0.1 1.5 7.5 4.5 14.5s7.4 12.7 7.2 12.8z"></path>
  <path class="st0" d="m126.9 223.5c0.7 3.7 0.9 7.5 0.5 11.2-0.1 0.8 1.2 0.8 1.2 0 0.3-3.9 0.2-7.7-0.6-11.5 0-0.8-1.2-0.4-1.1 0.3z"></path>
  <path class="st1" d="m126.9 225.2-1.1-1.3c-4.7-5.1-5.4-14.9-1.6-21.9l3.5-6.3c0.3-0.5 0.8-0.6 1.2-0.2l1.2 1.3c4.7 5.1 5.4 14.9 1.6 21.9l-3.5 6.3c-0.4 0.5-0.9 0.6-1.3 0.2z"></path>
  <path class="st2" d="m127.5 225.4-1.7-1.5c-4.7-5.1-5.4-14.9-1.6-21.9l3.5-6.3c0.1 0-1.1 7.5-1.1 15.1s1.1 14.6 0.9 14.6z"></path>
  <path class="st0" d="m99.9 137.5c2.4 2.9 4.1 6.2 5.1 9.9 0.1 0.3 0.4 0.5 0.8 0.4 0.3-0.1 0.5-0.4 0.4-0.8-1.1-3.8-2.9-7.3-5.4-10.4-0.5-0.6-1.4 0.3-0.9 0.9z"></path>
  <path class="st1" d="m100.2 139.1-2.2-0.5c-8.5-1.9-13.4-10.5-10.9-19.2l2.3-7.8c0.2-0.7 0.8-1.1 1.5-0.9l2.2 0.5c8.5 1.9 13.4 10.5 10.9 19.2l-2.2 7.8c-0.2 0.6-0.9 1-1.6 0.9z"></path>
  <path class="st2" d="m101.1 138.9-3.1-0.3c-8.5-1.9-13.4-10.5-10.9-19.2l2.3-7.8c0.2 0 1.5 7.5 4.5 14.5 3.1 7 7.4 12.7 7.2 12.8z"></path>
  <path class="st0" d="m121.4 311.4c2.4 2.9 4.1 6.2 5.1 9.8 0.1 0.3 0.4 0.5 0.8 0.4 0.3-0.1 0.5-0.4 0.4-0.8-1.1-3.8-2.9-7.3-5.4-10.4-0.6-0.5-1.4 0.4-0.9 1z"></path>
  <path class="st1" d="m121.8 313-2.2-0.5c-8.5-1.9-13.4-10.5-10.9-19.2l2.3-7.8c0.2-0.6 0.8-1 1.5-0.9l2.2 0.5c8.5 1.9 13.4 10.5 10.9 19.2l-2.3 7.8c-0.2 0.6-0.8 1-1.5 0.9z"></path>
  <path class="st2" d="m122.6 312.8-3.1-0.3c-8.5-1.9-13.4-10.5-10.9-19.2l2.3-7.8c0.2 0 1.5 7.5 4.5 14.5s7.4 12.7 7.2 12.8z"></path>
  <path class="st0" d="m196 86.7c3.7 0.8 7.3 2.2 10.5 4.3 0.7 0.4 1.3-0.6 0.6-1.1-3.3-2.1-7-3.6-10.8-4.4-0.7-0.2-1.1 1-0.3 1.2z"></path>
  <path class="st1" d="m197.6 87.6-1.7 0.9c-6.8 3.5-16.1 0.1-20.8-7.7l-4.2-7c-0.4-0.5-0.3-1.2 0.2-1.5h0.1l1.7-0.9c6.8-3.5 16.1-0.1 20.8 7.7l4.2 7c0.3 0.4 0.2 1.1-0.3 1.5z"></path>
  <path class="st2" d="m198 87-2.2 1.5c-6.8 3.5-16.1 0.1-20.8-7.7l-4.2-7c0.1-0.1 6.4 4.6 13.4 8s13.9 5 13.8 5.2z"></path>
  <path class="st0" d="m240.1 96.8c3.3 2 6.1 4.6 8.5 7.6 0.2 0.2 0.6 0.2 0.9 0 0.2-0.2 0.2-0.6 0-0.9-2.4-3.1-5.4-5.7-8.7-7.8-0.3-0.1-0.7 0-0.8 0.3-0.2 0.3-0.1 0.6 0.1 0.8z"></path>
  <path class="st1" d="m241 98.1-2.7 0.4c-10.7 1.4-21.4-6.8-24-18.2l-2.3-10.4c-0.3-0.8 0.3-1.5 1-1.7h0.1l2.7-0.4c10.7-1.4 21.4 6.8 24 18.2l2.3 10.3c0.1 0.8-0.3 1.5-1.1 1.8z"></path>
  <path class="st2" d="m241.9 97.4-3.7 0.9c-10.7 1.5-21.5-7-24-18.8l-2.2-10.6c0.1-0.1 6.4 8.6 14 15.9 7.6 7.2 16 12.5 15.9 12.6z"></path>
  <path class="st0" d="m123.2 264.2c3.3 2 6.1 4.6 8.5 7.6 0.2 0.2 0.6 0.2 0.9 0 0.2-0.2 0.2-0.6 0-0.9-2.4-3.1-5.4-5.7-8.7-7.8-0.3-0.2-0.7 0-0.8 0.3-0.2 0.3-0.1 0.6 0.1 0.8z"></path>
  <path class="st1" d="m124.4 265.6-1.9 0.3c-7.6 1.1-15.2-5.3-17-14.2l-1.7-8c-0.2-0.6 0.2-1.2 0.7-1.3h0.1l1.9-0.3c7.6-1.1 15.2 5.3 17 14.2l1.6 8.1c0.2 0.4-0.1 1-0.7 1.2z"></path>
  <path class="st2" d="m125 265.1-2.6 0.7c-7.6 1.1-15.2-5.3-17-14.2l-1.7-8.1c0.1-0.1 4.5 6.5 9.9 12 5.5 5.5 11.5 9.5 11.4 9.6z"></path>
  <path class="st0" d="m31.5 217.3c3.3 2 6.1 4.6 8.5 7.6 0.3 0.2 0.6 0.2 0.9 0 0.2-0.3 0.2-0.6 0-0.9-2.4-3.1-5.4-5.7-8.7-7.8-0.3-0.1-0.7 0-0.8 0.3-0.2 0.4-0.1 0.7 0.1 0.8z"></path>
  <path class="st1" d="m32.7 218.7-1.9 0.3c-7.6 1.1-15.2-5.3-17-14.2l-1.7-8.1c-0.2-0.6 0.1-1.2 0.7-1.3h0.1l1.9-0.3c7.6-1.1 15.2 5.3 17 14.2l1.6 8.1c0.2 0.5-0.1 1.1-0.7 1.3z"></path>
  <path class="st2" d="m33.3 218.3-2.6 0.7c-7.6 1.1-15.2-5.3-17-14.2l-1.7-8.1c0.1-0.1 4.5 6.5 9.9 12s11.5 9.4 11.4 9.6z"></path>
  <path class="st0" d="m240.8 175.4c3.3 2 6.1 4.6 8.5 7.6 0.3 0.2 0.7 0.2 0.9 0s0.2-0.6 0-0.8c-2.4-3.1-5.4-5.7-8.7-7.8-0.3-0.1-0.7 0-0.8 0.3-0.2 0.2-0.1 0.6 0.1 0.7z"></path>
  <path class="st1" d="m241.9 176.8-1.9 0.3c-7.6 1.1-15.2-5.3-17-14.2l-1.6-8.1c-0.2-0.6 0.2-1.2 0.7-1.3h0.1l1.9-0.3c7.6-1.1 15.2 5.3 17 14.2l1.6 8.1c0.2 0.5-0.1 1.1-0.8 1.3 0.1 0 0.1 0 0 0z"></path>
  <path class="st2" d="m242.6 176.3-2.6 0.7c-7.6 1.1-15.2-5.3-17-14.2l-1.6-8.1c0.1-0.1 4.5 6.5 9.9 12s11.4 9.5 11.3 9.6z"></path>
  <path class="st0" d="m237.5 140.9c3.7 0.8 7.3 2.2 10.5 4.3 0.7 0.4 1.3-0.6 0.6-1.1-3.3-2.1-7-3.6-10.9-4.4-0.7-0.1-1 1-0.2 1.2z"></path>
  <path class="st1" d="m239.1 141.8-1.7 0.9c-6.8 3.5-16.1 0.1-20.8-7.7l-4.2-7c-0.4-0.5-0.3-1.1 0.2-1.5h0.1l1.7-0.9c6.8-3.5 16.1-0.1 20.8 7.7l4.2 7c0.3 0.4 0.2 1.1-0.3 1.5z"></path>
  <path class="st2" d="m239.5 141.2-2.2 1.5c-6.8 3.5-16.1 0.1-20.8-7.7l-4.2-7c0.1-0.1 6.4 4.6 13.4 8s13.9 5.1 13.8 5.2z"></path>
  <path class="st0" d="m190.8 187.5c0.9-3.7 2.5-7.2 4.8-10.2 0.5-0.6-0.6-1.3-1.1-0.6-2.4 3.1-4 6.7-4.9 10.5-0.2 0.8 1 1.1 1.2 0.3z"></path>
  <path class="st1" d="m191.9 186.2 0.9 2c3.6 7.9-0.3 17-8.7 20.2l-7.6 2.9c-0.6 0.2-1.3 0-1.6-0.6l-0.9-2c-3.6-7.9 0.3-17 8.7-20.2l7.6-2.9c0.6-0.3 1.3 0 1.6 0.6z"></path>
  <path class="st2" d="m191.2 185.6 1.6 2.6c3.6 7.9-0.3 17-8.7 20.2l-7.6 2.9c-0.1-0.1 5.1-5.8 8.8-12.4s5.7-13.4 5.9-13.3z"></path>
  <path class="st0" d="m77.7 335.1c0.9-3.7 2.5-7.1 4.8-10.2 0.5-0.6-0.6-1.3-1.1-0.6-2.4 3.1-4.1 6.7-5 10.5-0.1 0.7 1 1.1 1.3 0.3z"></path>
  <path class="st1" d="m78.7 333.8 0.9 2c3.6 8-0.3 17-8.7 20.2l-7.6 2.9c-0.6 0.2-1.3 0-1.7-0.6l-0.9-2c-3.6-8 0.3-17 8.7-20.2l7.6-2.9c0.7-0.3 1.4-0.1 1.7 0.6z"></path>
  <path class="st2" d="m78.1 333.1 1.6 2.6c3.6 8-0.3 17-8.7 20.2l-7.6 2.9c-0.1-0.1 5.1-5.8 8.8-12.3s5.7-13.4 5.9-13.4z"></path>
  <path class="st0" d="m134 339.5c3.2-4.5 5.7-9.4 7.6-14.6 0.3-0.8-0.9-1.1-1.2-0.3-1.8 5.1-4.3 9.9-7.5 14.3-0.4 0.6 0.7 1.2 1.1 0.6z"></path>
  <path class="st1" d="m134.2 338.1 1.3 2.3c5.1 9.3-0.4 19.7-12.3 23.4l-10.7 3.4c-0.8 0.2-1.8 0-2.3-0.7l-1.3-2.3c-5.1-9.3 0.4-19.7 12.3-23.4l10.7-3.4c0.9-0.3 1.9 0 2.3 0.7z"></path>
  <path class="st2" d="m133.3 337.3 2.3 3c5.1 9.3-0.4 19.8-12.3 23.5l-10.8 3.4c-0.1-0.1 7.2-6.8 12.6-14.3 5.3-7.6 7.9-15.6 8.2-15.6z"></path>
  <path class="st0" d="m111.3 156.8c2.5-2.9 5.5-5.2 8.9-6.9 0.7-0.4 0.1-1.4-0.6-1.1-3.5 1.7-6.6 4.1-9.2 7.1-0.5 0.7 0.4 1.5 0.9 0.9z"></path>
  <path class="st1" d="m112.8 156.1-0.1 2.2c-0.4 8.7-8 15-17 14.1l-8.1-0.9c-0.7-0.1-1.2-0.6-1.2-1.3l0.1-2.2c0.4-8.7 8-15 17-14.1l8.1 0.9c0.7 0 1.2 0.6 1.2 1.3z"></path>
  <path class="st2" d="m112.5 155.2 0.2 3.1c-0.4 8.7-8 15-17 14.1l-8.1-0.9c-0.1-0.1 7.2-2.8 13.5-7s11.3-9.4 11.4-9.3z"></path>
  <path class="st0" d="m144.9 178.4c3.9-4.5 8.7-8.2 14-10.8 0.7-0.4 0.1-1.4-0.6-1.1-5.4 2.7-10.3 6.4-14.3 11-0.5 0.6 0.4 1.5 0.9 0.9z"></path>
  <path class="st1" d="m146.3 179-0.1 3.6c-0.5 14.2-9.5 24.5-20.2 23.1l-9.6-1.5c-0.8-0.2-1.4-1-1.4-2.1l0.1-3.6c0.5-14.2 9.5-24.5 20.2-23.1l9.6 1.5c0.8-0.1 1.4 0.9 1.4 2.1z"></path>
  <path class="st2" d="m146.1 176.6 0.2 5.2c-0.5 14.7-9.6 25.3-20.3 23.8l-9.7-1.5c-0.1-0.2 8.6-4.7 16.1-11.8 7.6-7.1 13.4-15.9 13.7-15.7z"></path>
  <path class="st0" d="m319.1 172.1c-1.1 2.8-2.8 5.3-5 7.3-0.6 0.5 0.3 1.4 0.9 0.9 2.4-2.2 4.2-4.9 5.4-7.9 0.1-0.3-0.1-0.7-0.4-0.8-0.4 0-0.7 0.2-0.9 0.5z"></path>
  <path class="st1" d="m318.9 172-0.7-3.6c-3.1-13.9 4.3-25.4 16.2-25.8l10.7-0.3c1 0 1.9 0.8 2 1.9l0.7 3.6c3.1 13.9-4.3 25.4-16.2 25.8l-10.7 0.3c-1-0.2-1.9-0.8-2-1.9z"></path>
  <path class="st2" d="m319.6 173.6-1.5-4.8c-3.1-14.1 4.3-25.8 16.3-26.1l10.8-0.3c0.2 0.2-8.2 6-14.7 14.1-6.6 8-10.5 17.3-10.9 17.1z"></path>
  <path class="st0" d="m403.8 205.6c-1.1 2.8-2.8 5.3-5 7.3-0.6 0.5 0.3 1.4 0.9 0.9 2.4-2.2 4.2-4.9 5.4-7.9 0.1-0.3-0.1-0.7-0.4-0.8-0.4 0-0.8 0.2-0.9 0.5z"></path>
  <path class="st1" d="m403.4 205.6-0.7-3.4c-3-13.4 4.1-24.5 15.7-24.8l10.4-0.3c1 0 1.8 0.8 2 1.8l0.7 3.4c3 13.4-4.1 24.5-15.7 24.8l-10.4 0.3c-1-0.2-1.6-0.8-2-1.8z"></path>
  <path class="st2" d="m403.5 207-1-3c-2-8.9 2.8-16.3 10.5-16.5l6.9-0.2c0.1 0.1-5.3 3.8-9.5 8.9s-6.8 11-6.9 10.8z"></path>
  <path class="st0" d="m352.3 213.1c-0.2 4.4-1.1 8.7-2.7 12.7-0.3 0.7 0.9 1.1 1.2 0.3 1.6-4.2 2.5-8.6 2.7-13.1 0.1-0.7-1.1-0.7-1.2 0.1z"></path>
  <path class="st1" d="m351.7 214.5-1-2.7c-4.1-10.6-2.1-22 4.5-25.4l6-3.1c0.5-0.3 1.2 0.2 1.5 1l1 2.7c4.1 10.6 2.1 22-4.5 25.4l-6 3.1c-0.5 0.2-1.2-0.2-1.5-1z"></path>
  <path class="st2" d="m352.4 215.3-1.7-3.6c-4.1-10.6-2.1-22 4.5-25.4l6-3.1c0.1 0.1-3.5 7-5.7 15.2-2.2 8.1-2.9 17.1-3.1 16.9z"></path>
  <path class="st0" d="m111.4 235.4c3.4-1.5 7.1-2.6 10.8-3.1 0.8-0.1 0.5-1.3-0.3-1.2-3.8 0.5-7.6 1.6-11.1 3.2-0.7 0.3-0.1 1.4 0.6 1.1z"></path>
  <path class="st1" d="m113 235-1 1.5c-3.9 5.8-13.3 8.7-21 6.5l-6.9-2c-0.6-0.2-0.8-0.6-0.5-1.1l1-1.5c3.9-5.8 13.3-8.7 21-6.5l6.9 2c0.6 0.2 0.8 0.6 0.5 1.1z"></path>
  <path class="st2" d="m113.1 234.3-1.1 2.1c-3.9 5.8-13.3 8.7-21 6.5l-6.9-2c0-0.1 7.6-0.7 14.9-2.4s14.1-4.3 14.1-4.2z"></path>
  <path class="st0" d="m387.4 318.9c-6.5-2.6-12.3-6.8-16.8-12.2-0.5-0.6-1.4 0.3-0.9 0.9 4.7 5.6 10.6 9.9 17.4 12.5 0.7 0.3 1.1-0.9 0.3-1.2z"></path>
  <path class="st1" d="m386.3 317.7 2.1-0.7c8.4-2.9 17 2 19.2 10.9l2 8.1c0.2 0.7-0.2 1.4-0.8 1.6l-2.1 0.7c2.5-0.8-15.1 5.7-19.2-10.9l-2-8.1c-0.2-0.6 0.1-1.3 0.8-1.6z"></path>
  <path class="st2" d="m385.6 318.3 2.8-1.3c8.4-2.9 17 2 19.2 10.9l2 8.1c-0.1 0.1-5.2-5.8-11.3-10.2s-12.8-7.3-12.7-7.5z"></path>
  <path class="st0" d="m297.9 119.6c-3.1-0.1-6.1-0.8-8.9-2.1-0.7-0.3-1.4 0.7-0.6 1.1 3 1.4 6.3 2.2 9.6 2.3 0.7 0 0.7-1.3-0.1-1.3z"></path>
  <path class="st1" d="m296.6 119.1 1.5-1c5.9-4 13.9-2.4 17.9 3.5 0 0.1 0.1 0.1 0.1 0.2l3.6 5.5c0.3 0.5 0.2 1.1-0.3 1.4l-1.5 1c1.8-1.2-10.7 7.6-18-3.7l-3.6-5.5c-0.2-0.5-0.1-1.1 0.3-1.4z"></path>
  <path class="st2" d="m296.2 119.7 1.9-1.6c5.9-4 13.9-2.4 17.9 3.5 0 0.1 0.1 0.1 0.1 0.2l3.6 5.5c-0.1 0.1-5.5-3.1-11.5-5s-12-2.4-12-2.6z"></path>
  <text class="st25 st26 st27" transform="rotate(-49.998)" x="144.5735" y="521.7326" stroke-width=".99997">Jaap </text>
  <text class="st25 st26 st27" transform="matrix(.6428 -.766 .766 .6428 415.08 208.14)"></text>
  <text class="st25 st26 st27" transform="rotate(-45)" x="122.3298" y="172.55345" stroke-width=".99999">Eelco &amp;</text>
  <text class="st25 st26 st27" transform="rotate(-45)" x="121.95095" y="183.27148" stroke-width=".99999">Cootje</text>
  <text class="st25 st26 st28" transform="matrix(.9721 -.2344 .2344 .9721 89.827 237.7)">Gertjan</text>
  <text class="st25 st26 st28" transform="matrix(.9721 -.2344 .2344 .9721 91.234 243.53)">Schoon</text>
  <text class="st25 st26 st29" transform="matrix(.716 -.6981 .6981 .716 111.58 359.35)">Hessel</text>
  <text class="st25 st26 st29" transform="matrix(.716 -.6981 .6981 .716 118.28 366.22)">&amp; Hylkje</text>
  <text class="st25 st26 st27" transform="matrix(.702 .7122 -.7122 .702 487.38 302.12)">Rogier</text>
  <text class="st25 st26 st27" transform="matrix(.702 .7122 -.7122 .702 479.69 309.7)">&amp; Elske</text>
  <text class="st25 st26 st29" transform="matrix(.7989 .6015 -.6015 .7989 325.26 74.001)">Nadine</text>
  <text class="st25 st26 st29" transform="matrix(.7989 .6015 -.6015 .7989 319.49 81.671)">&amp; Lotus</text>
  <text class="st25 st26 st27" transform="matrix(.7566 .6539 -.6539 .7566 215.51 73.799)">Mariska</text>
  <text class="st25 st26 st30" transform="matrix(.7554 .6552 -.6552 .7554 275.96 263.38)">Familie</text>
  <text class="st25 st26 st31" transform="matrix(.7554 .6552 -.6552 .7554 269.88 268.54)">Crevels</text>
  <text class="st25 st26 st32" transform="matrix(.8236 -.5671 .5671 .8236 311.03 219.29)">Marleen</text>
  <text class="st25 st26 st32" transform="matrix(.8236 -.5671 .5671 .8236 316.47 227.2)">&amp; Xander</text>
  <text class="st25 st26 st33" transform="matrix(.8248 .5654 -.5654 .8248 432.42 288.52)">Bernadette</text>
  <text class="st25 st26 st34" transform="matrix(.6018 -.7986 .7986 .6018 320.43 168.27)">Peter &amp;</text>
  <text class="st25 st26 st34" transform="matrix(.6018 -.7986 .7986 .6018 329.05 174.77)">Leonoor</text>
  <text class="st25 st35 st36" transform="matrix(.5299 -.848 .848 .5299 47.503 211.54)">Xander &amp;</text>
  <text class="st25 st35 st36" transform="matrix(.5299 -.848 .848 .5299 56.661 217.26)">Marleen</text>
  <text class="st25 st35 st27" transform="matrix(.3256 -.9455 .9455 .3256 131.24 77.793)">Anneke</text>
  <text class="st25 st35 st27" transform="matrix(.9336 .3584 -.3584 .9336 206 213.39)">Peter</text>
  <text class="st25 st35 st27" transform="translate(417.36 106.23)">Sylvia</text>
  <text class="st25 st35 st37" transform="translate(436.73 195.63)">Lieke</text>
  <text class="st25 st35 st37" transform="translate(436.73 202.83)">&amp; Luuk</text>
  <text class="st25 st35 st37" transform="rotate(-33.824)" x="225.50266" y="389.00888" fill="#ffffff" font-family="ArialMT" font-size="6px">
    <tspan x="225.50266" y="389.00888">Lauke</tspan>
    <tspan x="225.50266" y="396.50888">Bisschops</tspan>
  </text>
  <text class="st25 st35 st37" transform="rotate(-33.824)" x="36.354805" y="191.80827" fill="#ffffff" font-family="ArialMT" font-size="6px">
    <tspan x="36.354805" y="191.80827">Lucas </tspan>
    <tspan x="36.354805" y="199.30827">en Lena</tspan>
  </text>
  <text class="st25 st35 st38" transform="matrix(.5736 -.8192 .8192 .5736 186.17 265.81)"></text>
  <text class="st25 st35 st38" transform="matrix(.5736 -.8192 .8192 .5736 195.01 272)"></text>
  <text class="st25 st35 st27" transform="matrix(.3907 -.9205 .9205 .3907 298.13 54.889)">Marnix</text>
  <text class="st25 st35 st27" transform="matrix(.3907 -.9205 .9205 .3907 308.07 59.109)">&amp; Sylvie</text>
  <text class="st25 st35 st37" transform="matrix(.8387 .5446 -.5446 .8387 308.74 312.58)">Floris, Linda,</text>
  <text class="st25 st35 st37" transform="matrix(.8387 .5446 -.5446 .8387 304.82 318.62)">Oliver &amp; Raoul</text>
  <text class="st25 st35 st39" transform="matrix(.9511 .309 -.309 .9511 298.06 116.72)">Familie</text>
  <text class="st25 st35 st39" transform="matrix(.9511 .309 -.309 .9511 295.84 123.57)">Zeetjes</text>
  <text class="st25 st35 st39" transform="rotate(17.998)" x="121.13969" y="86.854561" fill="#ffffff" font-family="ArialMT" font-size="6.0006px">
    <tspan x="121.13969" y="86.854561">Familie </tspan>
    <tspan x="121.13969" y="94.355339">van Nieuwenborg</tspan>
    <tspan x="121.13969" y="101.85612"></tspan>
    <tspan x="121.13969" y="109.35688"></tspan>
  </text>
  <text class="st25 st35 st40" transform="matrix(.682 .7314 -.7314 .682 6.2 232.37)">Rien</text>
  <text class="st25 st35 st40" transform="matrix(.682 .7314 -.7314 .682 -.8216 238.92)">Koole</text>
  <text class="st25 st35 st37" transform="matrix(.866 .5 -.5 .866 335.75 229.99)">Peter &amp; Karin</text>
  <text class="st25 st35 st37" transform="matrix(.866 .5 -.5 .866 332.15 236.23)">van Asten</text>
  <text class="st25 st35 st27" transform="matrix(.4695 -.8829 .8829 .4695 58.293 301.03)">Phéline</text>
  <text class="st25 st35 st27" transform="matrix(.4695 -.8829 .8829 .4695 67.828 306.1)">&amp; Julia</text>
  <text class="st25 st35 st27" transform="matrix(.6157 -.788 .788 .6157 178.27 208.97)">Baukje</text>
  <text class="st25 st35 st38" transform="matrix(-.2756 -.9613 .9613 -.2756 386.62 135.56)">Andie</text>
  <text class="st25 st35 st38" transform="matrix(.7326 .6806 -.6806 .7326 372.6 175.88)"></text>
  <text class="st25 st35 st27" transform="matrix(.8343 -.5514 .5514 .8343 199.1 167.26)">Gijs</text>
  <text class="st25 st35 st27" transform="matrix(.4744 -.8804 .8804 .4744 140.4 151.28)"></text>
  <text x="147.25117" y="135.31189" fill="#000000" xml:space="preserve">
    <tspan x="147.25117" y="135.31189"></tspan>
  </text>
  <g fill="#fff">
    <text style="shape-inside:url(#rect380);white-space:pre" xml:space="preserve"></text>
    <g font-size="8px">
      <text style="shape-inside:url(#rect382);white-space:pre" xml:space="preserve"></text>
      <text style="shape-inside:url(#rect383);white-space:pre" xml:space="preserve"></text>
      <text style="shape-inside:url(#rect384);white-space:pre" xml:space="preserve"></text>
      <text style="shape-inside:url(#rect385);white-space:pre" xml:space="preserve"></text>
    </g>
    <text transform="matrix(.6699 -.66538 .74636 .75144 0 0)" x="-59.939873" y="212.44588" font-size="7.5535px" stroke-width=".94419" xml:space="preserve">
      <tspan x="-59.939873" y="212.44588">Yvonne </tspan>
      <tspan x="-59.939873" y="221.88777">&amp; Darius</tspan>
    </text>
    <g font-size="8px">
      <text style="shape-inside:url(#rect387);white-space:pre" xml:space="preserve"></text>
      <text style="shape-inside:url(#rect388);white-space:pre" xml:space="preserve"></text>
      <text style="shape-inside:url(#rect389);white-space:pre" xml:space="preserve"></text>
      <text style="shape-inside:url(#rect390);white-space:pre" xml:space="preserve"></text>
      <text style="shape-inside:url(#rect391);white-space:pre" xml:space="preserve"></text>
      <text x="185.28001" y="272.39258" xml:space="preserve">
        <tspan x="185.28001" y="272.39258"></tspan>
      </text>
      <text transform="rotate(-45.973)" x="-65.166985" y="320.57114" xml:space="preserve">
        <tspan x="-65.166985" y="320.57114">Pedro</tspan>
        <tspan x="-65.166985" y="330.57114">Croes</tspan>
      </text>
      <text x="490.83725" y="217.1181" xml:space="preserve">
        <tspan x="490.83725" y="217.1181"></tspan>
      </text>
      <text transform="matrix(.84911 .52878 -.46692 .88693 0 0)" x="491.81262" y="69.385796" xml:space="preserve">
        <tspan x="491.81262" y="69.385796">Willy Kop</tspan>
      </text>
      <text transform="rotate(-28.02)" x="-112.68491" y="337.52997" xml:space="preserve">
        <tspan x="-112.68491" y="337.52997">Marretje </tspan>
        <tspan x="-112.68491" y="347.52997">Faber</tspan>
        <tspan x="-112.68491" y="357.52997"></tspan>
      </text>
    </g>
  </g>
  <g fill="none">
    <rect x=".88439" y=".88439" width="509.41" height="374.54"></rect>
    <g font-size="8px">
      <text x="95.514275" y="124.257" xml:space="preserve">
        <tspan x="95.514275" y="124.257">Lauken</tspan>
      </text>
      <text x="412.56863" y="191.47075" xml:space="preserve">
        <tspan x="412.56863" y="191.47075"></tspan>
        <tspan x="412.56863" y="201.47075"></tspan>
      </text>
    </g>
  </g>
</svg>
